<?xml version="1.0" encoding="UTF-8"?>
<svg id="_レイヤー_2" data-name="レイヤー 2" xmlns="http://www.w3.org/2000/svg" viewBox="0 0 40.43 56.26">
  <defs>
    <style>
      .cls-1 {
        fill: #fcf0c7;
        stroke-width: 1.54px;
      }

      .cls-1, .cls-2 {
        stroke: #000;
        stroke-linecap: round;
        stroke-linejoin: round;
      }

      .cls-2 {
        fill: none;
        stroke-width: 1.28px;
      }
    </style>
  </defs>
  <g id="_ガイド" data-name="ガイド">
    <g>
      <g>
        <path d="M2.42,51.33c0-3.06,1.77-4.93,4.17-4.93,1.16,0,2.04.56,2.59,1.16l-.6.7c-.49-.55-1.14-.91-1.98-.91-1.86,0-3.08,1.51-3.08,3.95s1.17,4,3.04,4c.92,0,1.62-.39,2.25-1.09l.6.68c-.74.87-1.66,1.37-2.9,1.37-2.35,0-4.1-1.85-4.1-4.93Z"/>
        <path d="M14.84,46.57h1.18l3.26,9.52h-1.14l-.95-3h-3.55l-.98,3h-1.08l3.25-9.52ZM13.92,52.24h3l-.49-1.55c-.36-1.08-.66-2.11-.99-3.22h-.05c-.31,1.13-.62,2.15-.98,3.22l-.49,1.55Z"/>
        <path d="M22.29,46.57h2.91c1.94,0,3.29.69,3.29,2.64,0,1.5-.87,2.37-2.21,2.67l2.46,4.21h-1.21l-2.38-4.11h-1.78v4.11h-1.08v-9.52ZM25.03,51.1c1.53,0,2.38-.61,2.38-1.89s-.84-1.77-2.38-1.77h-1.66v3.65h1.66Z"/>
        <path d="M34.05,47.48h-2.9v-.91h6.9v.91h-2.91v8.61h-1.09v-8.61Z"/>
      </g>
      <polygon class="cls-1" points="2.68 13.16 6.88 33.81 33.55 33.81 37.46 13.09 2.68 13.16"/>
      <line class="cls-2" x1=".64" y1="12.94" x2="39.79" y2="12.94"/>
      <polyline class="cls-2" points="37.1 15.02 33.55 33.81 6.88 33.81 3.33 15.02"/>
      <line class="cls-2" x1="14.57" y1="15.02" x2="15.78" y2="33.81"/>
      <line class="cls-2" x1="25.86" y1="15.02" x2="24.65" y2="33.81"/>
      <line class="cls-2" x1="4.53" y1="21.41" x2="35.9" y2="21.41"/>
      <line class="cls-2" x1="34.63" y1="27.82" x2="5.8" y2="27.82"/>
      <line class="cls-2" x1="15.37" y1=".64" x2="10.53" y2="12.94"/>
      <line class="cls-2" x1="25.06" y1=".64" x2="29.9" y2="12.94"/>
    </g>
  </g>
</svg>