<?xml version="1.0" encoding="UTF-8"?>
<svg id="_レイヤー_2" data-name="レイヤー 2" xmlns="http://www.w3.org/2000/svg" viewBox="0 0 238.07 78.22">
  <defs>
    <style>
      .cls-1 {
        fill: #1a1a1a;
      }
    </style>
  </defs>
  <g id="_テキストデータ" data-name="テキストデータ">
    <g>
      <path class="cls-1" d="M.25,24.87c-.24-.26-.09-1.14-.07-1.65.01-.5-.35-1.15-.09-1.39.79-.74,1.82-1.21,2.9-1.56,1.09-.34,2.64-1.17,3.66-1.38,3.57-.64,6.21-.05,11.16-.51,3.93.13,5.07-.08,8.75-.21.09-.7-.19-1.85-.28-3.05-.08-1.21-.36-2.71-.79-2.69-3.74.19-7.63.63-10.52.56-3.3-.14-6.51.83-9.71,1.92-.24.08-.59-.05-.92-.28-.35-.23-.7-.53-.94-.8.52-.49,1.12-1.35,1.72-2.16.6-.8,1.19-1.54,1.71-1.78,3.06-.66,6.03-.49,9-.23,2.97.26,5.94.61,8.98.33,2.28-.3,2.35-1.55,2.9-3.44.96-1.99,1.06-4.77,1.37-6.55.99.68,1.45.31,1.88.71.43.39,1.25.42.98,1.04-.53.75-1.55,2.67-2.03,3.48.16.83-.69,1.87-.98,2.88-.06,1.77,1.22,1.56,2.74,1.49,1.51-.07,3.55-.13,3.94-.49.05-1.52.58-2.01.87-3.14.29-1.13.47-2.4.76-3.65.26-.24.53-.87.78-.6.24.27.98.92,1.25.68.46,1.52-.51,3.9-1.83,5.38-.93,1.23-.18,1.51,1.54,3.08-.83,2-2.61,2.2-5.21,2.3-1.72.38-3.34-.44-5.02.39-.5.24.33,1.73.42,2.56.1.83-.05,1.51.46,1.53,2.51.47,4.29.53,6.59-.04,2.79.23,5.45-.06,7.71.26-2.22,2.09-3.26,3.06-4.94,3.89-2.15-.19-5.31-.31-7.95-.9-.25,0-.18.06-.38.24-.2.18.44,2.17.42,2.42,1.85,5.13,3.89,8.56,7.31,12.28,3.42,3.73,9.66,6.42,12.17,7.13-.16,1.01-2.69.8-4.48,1.37-1.65.2-4.06.25-6.33.04-1.35-1.43-3.22-2.39-3.46-4.42-.76-1.8-1.41-4.86-2.93-5.17-.49-.52-1.53.2-2.43.74-.91.54-1.94,1.27-2.97,1.48-3.56.64-7.24.58-10.67.65-3.44.64-7.12.77-10.7,1.66-.51.24-1.02.48-1.54.71-.51.24-1.03.47-1.54.72-.76.22-1.26-.3-1.49-.88-.24-.58-.18-2.23.08-2.22,2.07-1.2,4.24-1.88,4.17-3.4-.45-1.79-1.04-3.08-.85-5.09,0-.25.27-.37.59-.43.32-.05.97-.54,1.22-.52.47,1.03,1.05,2.69,1.13,3.83.1,1.14-.72,2.64-.23,3.16,1.12.41,2.85-.03,4.44-.11,1.59-.08,3.17.12,3.7-.88.33-2.14-.18-2.17-1.02-3.52-.33-1.47-1.05-2.76-2.13-4.32.02-.5.41-.87.92-1.04.51-.18,1.53-.39,2.03-.12,1.2,1.7,1.72,3.67,1.46,5.51-.25,1.83-.72,2.64,0,3.67,2.01.58,3.67.24,5.82.07,2.16-.18,5.21-.45,7.24-.38.25,0,.7-.17,1.03-.47.34-.31.41-.88.42-1.13-.69-2.05-1.07-3.78-1.56-6.01-.25-1.08-1.97-5.57-1.84-5.51-3.53-.51-7.52-.7-11.01-.37-3.5.33-7.11.64-10.45,1.55-.26.24-.65.61-1.05.92-.39.3-.77.54-1.03.53-.99-.29-1.91.31-2.75.79-.84.47-1.38,1.34-2.11.56"/>
      <path class="cls-1" d="M27.78,27.07c.2.16.26,1.03.54,1.53.28.51.51,1.05.5,1.3-1.4.09-3.01-.73-4.8-.53-1.61-.19-3.14-.49-4.38-1.3.28-.87,3.28.36,4.72-.85,1.26-.09,2.54-.29,3.42-.14"/>
      <path class="cls-1" d="M60.06,20.57c.25-.05.71-.31,1.02-.34.32-.03.87.42.87.66-.13,3.54-.65,7.71-2.1,11.33-1.48,4.26-3.84,6.71-7.69,8.1-1.28.47-1.77-.18-1.93-1.14-.15-.95.01-2.22.04-2.98,1.74.82,3.05-.27,4.85-1.23,1.93-.94,2.65-3.45,2.82-4.59.03-1.13-1.12-.67-2.71-.28-1.83,0-3.01.84-4.26.55-.26,0-.5-.14-.63-.34-.12-.19-.11-.45.15-.68,1.29-.72,2.32-1.2,3.72-1.39,2.17-.56,3.2-1.03,4.46-.86,0-.25.02-.62-.03-.96-.06-.31.34-.8.09-.81-1.01-.04-2.54.04-3.55,0-1-.03-1.63-.3-2.66.16-.25,0-.77.23-.83.03-.05-.19-.05-.44-.04-.7.26-.24.4-.37.46-.49.07-.12.21-.74.23-1.01,1,.04,1.65,0,2.53.09.88.1,1.52-.19,2.78.23,1.02-.21,1.29-.6,1.44-1.35-.1-.76-.06-1.78.96-1.99"/>
      <path class="cls-1" d="M75.09,3.21c-.39.37-.54.94-.59,1.54-.06.61-.01,1.26-.03,1.8-.01.54-.06.94-.26,1.25-.2.32-.56.56-1.2.79-.38.11-.7.1-1.09.04-.39-.06-.87-.17-1.56-.27-.44,0-.79.1-1.12.19-.34.08-.66.14-1.03,0-.38-.26-.5-.59-.52-.97-.03-.37,0-.82-.03-1.33-.05-.5-.19-1.02-.3-1.56-.11-.54-.18-1.11-.09-1.74-.13.12-.61.09-1.1.02-.5-.08-1-.18-1.18-.21-.18-.04-.2.1-.22.3-.01.2-.03.47-.19.7-.27.37-.41.75-.47,1.12-.07.37-.06.73-.04,1.08,0,.34.18.68.24.99.06.31.01.6-.38.84-.14.57-.6.78-1.19.86-.61.07-1.37-.03-2.12-.09-.76-.06-1.59,0-2.35.25-.77.23-1.48.63-2,1.25,0,.13-.02.28-.02.46,0,.17-.02.37-.02.55,0,.19-.01.38-.02.56,0,.16,0,.33,0,.45.63-.1,1.26-.2,1.9-.3.64-.1,1.27-.19,1.91-.26,1.2.26,1.84.21,2.32.08.5-.11.85-.28,1.48-.27.38.02.7.12.95.3.24.17.43.42.55.7.11.29.16.62.15.98,0,.36-.08.75-.22,1.11-.76.17-1.66.39-2.6.5-.94.12-1.92.11-2.86-.18-.89,0-1.5.21-1.91.79-.42.59-.64,1.54-.76,3.05,1.32.17,2.15-.57,3.58-.89,1.32.32,3.5-.17,7.1-.14,1.72-.1,3.33-.17,4.97-.14,1.63.03,3.65.17,5.41.5.26.13.02.31.11.54.09.23.11.48.1.73,0,.26.05.54.1.8.05.26-.27.34-.27.47-1.03.22-1.85.49-3.11.54-1.25.04-2.55,0-3.75-.13-1.19-.14-2.34-.14-3.49-.08-1.16.06-2.34.19-3.61.34.12.13.05.36-.09.57-.13.22-.33.44-.46.56-.13.12-.25.24-.32.37-.07.12-.07.25.05.38.12.13.28.3.44.47.16.18.33.38.48.57.15.19.29.39.38.57.1.17.15.34.15.46-.04,1.27-.09,2.56-.13,3.88-.03,1.32-.06,2.64-.07,3.97.16,1.66.17,2.99.15,4.22-.02,1.24-.06,2.37.02,3.65,0,.12.06.22.15.3.11.07.25.14.4.16.16.04.43.06.69.07.25.02.51.03.64.03.23-1.45.37-2.55.59-3.31.21-.75.51-1.15,1.08-1.2,1.09-.16,2.45-.24,3.75-.27,1.3-.03,2.54-.03,3.36,0,.5.14.52.4.36.79-.16.38-.51.89-.76,1.54-.35.4-.93.84-1.5,1.24-.58.41-1.16.76-1.54,1,1.69.31,2.74.47,3.59.54.85.06,1.51.02,2.46-.08.74-.95,1.65-2.7,2.64-4.28.98-1.59,2.05-3.03,3.08-3.37.51-.11.84.16,1.17.6.32.44.64,1.05,1.1,1.64.71.59,1.21,1.18,1.67,1.74.46.58.88,1.13,1.44,1.66.75.28,1.54.3,2.36.28.81-.03,1.66-.12,2.51-.05.86-.13,2.05-.23,3.15-.38,1.11-.14,2.13-.33,2.65-.63.5.14-.87-.44-2.73-1.24-1.86-.79-4.2-1.79-5.63-2.47-1.37-.51-2.88-1.08-4.09-1.8-1.21-.73-2.13-1.63-2.34-2.84-.22-.89.09-1.53.52-2.17.43-.65.99-1.3,1.27-2.2.18-1.39.34-2.36.48-3.36.14-.99.27-2,.39-3.45-.14,0-.36.11-.57.23-.21.12-.43.23-.52.23-.1,0-.21-.13-.29-.25-.08-.13-.14-.26-.14-.26-.29.94-.55,1.82-.78,2.66-.23.85-.42,1.67-.54,2.48-.13.82-.22,1.61-.46,2.22-.25.61-.66,1.04-1.42,1.14-.63-.15-1.08-.4-1.42-.85-.35-.45-.57-1.09-.76-2.01-.47-1.16-.62-2.52-.58-3.78.04-1.27.28-2.44.55-3.19.89.03,1.19.11,1.39.12.2.03.29,0,.77-.18.47-.17.84-.47,1.21-.86.37-.38.74-.84,1.28-1.33.4-.49.91-.6,1.44-.51.54.11,1.09.41,1.59.74.95.21,1.38.58,1.73.9.35.31.63.57,1.26.6.12,0,.29-.05.45-.15.16-.1.32-.24.46-.4.13-.15.33-.41.46-.67.14-.26.21-.51.09-.64-.37-.39-.93-.69-1.53-.96-.6-.27-1.24-.49-1.78-.74-.53-.24-1.1-.65-1.61-.94-.5-.3-.94-.47-1.2-.23-.35.82-.52,1.5-1.06,1.94-.54.44-1.43.63-3.2.45-1.04-.04-2.37-.11-3.66-.15-1.29-.05-2.54-.05-3.44.04-.2-1.39.12-1.69.34-2.26.21-.58.3-1.45.57-1.76,1.37.56,2.54-.41,4.78-.04,1.81.08,3.57.2,4.45.24.01-.13-.04-.38,0-.68.04-.28.18-.58.57-.83.1-.18.17-.31.18-.41.01-.11-.04-.21-.15-.34-.75-.28-1.7-.36-2.66-.35-.97,0-1.96.1-2.78.17-.88-.16-1.52-.03-2.05-.01-.54.02-.98-.1-1.46-.75-.12-.26-.05-.54.06-.83.1-.28.24-.56.24-.81.2-.24.4-.43.51-.61.12-.18.16-.38.04-.63-.12-.24-.28-.62-.46-.96-.19-.32-.4-.62-.62-.72-.22-.11-.56-.18-.91-.21-.36,0-.73.02-.99.13M67.25,25.24c-.5-.27-.48-.59-.34-1.14.13-.57.35-1,.92-.98.89-.23,1.14-.09,1.71,0,.99.14,1.33-.02,1.54,1.37-.76-.02-.38.24-1.29.85-.77.1-1.77-.06-2.53-.09M67.01,28.4c-.23-.64-.12-2.27-.33-1.4.08-.32-.11-.38.14-.38,1.27.04,2.41-.04,3.55-.07,1.15-.02,2.29.02,3.54.31,1.01.29,1.15.8.9,1.3-.24.5-.85.98-1.37,1.21-1.26-.04-2.81-.26-4.3-.14-.36-.26-1.4.33-2.12-.84M66.67,31.05c.36-.49,1.44-.55,2.33-.49.89.07,1.6.24,1.23.24.5.27.61.65.59,1.1-.01.44-.16.95-.17,1.44-.46.38-.98.48-1.53.47-.55-.03-.91.22-1.54.06-.48-.11-.83-.79-.86-1.21-.02-.42.05-.97-.06-1.61M78.46,23.23c.34,1.28.6,2.43,1.15,3.7.54,1.29,1.19,2.07,2.16,3.5.22.77-1.36,2.43-2.01,3.35-1.41,1.99-1.77,1.72-2.06.94-.63-.15-.88-.29-.62-.65-.81-.21-2.27-.09-3.29-.12-.25,0-.75-.21-1-.54-.24-.32-.36-.39-.6-.65-.22-1.02-.21-1.41.49-1.63.71-.24,1.59-.2,2.1-.19.52-.48.92-1.23,1.33-1.99.4-.74.81-1.48,1.34-1.97.27-.23.27-.5.15-.69-.35-.85-.37-.33-.63-.34-.99-.66-2.52-.21-3.6-.37-1.07-.17-1.69-.56-.89-1.81.28-.75,1.35-.65,2.44-.69,1.08-.01,3.06-.39,3.54.13M73.05,11c.24.52.31,1.84.17,2.54-.15.69.22,1.02-.55,1.25-.76-.03-1.38-.3-2.02-.33-.63-.02-1.78.07-2.54.04-.74-.27-.37-.45-.46-1.15-.1-.71.06-1.78.33-2.27,1.39-.08,1.47-.52,2.68-.55,1.13.17,1.89.2,2.39.47"/>
      <path class="cls-1" d="M120.03,7.91c-1.42.84-5.57-.06-8.52.6-2.78-.03-6.09.3-7.95-.77-.25-.02-1.05,1.1-1.13,1.4-.07.32.15,1.47.14,1.72.97,1.29.93,2.32,1.44,3.91.52,1.6.71,3.63.39,5.4-.26.25-.88-.4-.78.67-.27.44-.41.94-.17,1.45.99.79,2.13.71,3.28.5,1.14-.22,2.15-.18,3.3-.27.25.26.62.27.94.35.31.07.56.21.55.71-.02.5-.19,1.95-.33,2.52-.16.56-.89-.15-1.4.08-1.28.21-2.78-.22-3.92-.38-.63-.03-.77.47-1.62,3.11,1.02-.22,2.17-.44,3.31-.52,1.14-.09,2.28-.05,3.28.24.75.28,1.11,1.05,1.14,1.88.04.82.12,2.09-.4,2.57-2.17.31-4.69-.02-6.98.27-2.28.06-2.16.06-2.54,3.97,3.66.13,6.3-.67,9.4-.95,3.12-.28,6.97-.01,9.72.85.51.02,1.04-.86.88-1.75.46-.62,1.65-1.97,2.43-2.44-1.75-.83-3.42-.11-5.58-.07-1.65.2-2.14-.08-4.3-.14-.74-.53-.54-.84-.45-1.53.09-.7-.32-1.66.21-2.39,1.15-.35,1.27.04,2.02.19.75.15,1.27-.09,2.16-.05.51-.24.39-.49.94-1.61-.11-.57-.59-1.55-1.08-1.56-.51,0-1.54.39-2.18.56-.64.17-1.27.08-1.77-.18-.5-.28-.37-.21-.47-.78-.11-.57.17-1.39.19-1.89.01-.25-.05-.32.15-.49.2-.19.01-.38.27-.38.76.03,1.64.19,2.34.27.69.09,2.2.14,2.21-.11.09-2.4.06-5.57.9-7.7.46-2.28.13-3.8,2.2-5.13.01-.25-.45-1.28-.83-1.55-.37-.26-.85-.79-1.37-.55M110.75,19.89c-.76.23-1.76.59-2.79.15-1.03-.43-.86-.78-1.33-1.81.8-.99,1.51-1.35,2.45-1.19.94.16,2.03-.06,2.51.47.24.52.33,1.53.13,1.97-.21.44-.45.18-.97.42M116.48,17.29c.57.14.99.07,1.23.59-.11.75-.19,1.39-.9,1.5-.7.09-1.43-.05-2.19-.09-.26,0-.45.09-.51-.1-.05-.19-.07-.42-.06-.68,0-.25,0-.7.2-1,.2-.31.43-.07.52-.41.51.02,1.15.05,1.71.19M107.26,14.7c-.5-.28-1.13-.24-1.11-.68.01-.44.03-1,.05-1.52,0-.25-.12-.44.02-.63.13-.18.16-.62.16-.62,1.01.02,3.8-.19,4.93.03,1.13.23,0,0,.19,1.78-.03,1.14-.88,1.5-1.82,1.47-.9.47-1.65.19-2.41.17M117.52,10.87c.76.28.89-.12,1,.46.11.57-.22,1.43-.32,2.01-.29.88-.05.38-.45,1-.7.23-1.95.19-2.88.23-.5-.26-1.16-.16-1.24-.71-.08-.55.31-1.85.43-2.6.1-.59,1.22-.45,1.79-.61.85.03,1.26.05,1.68.22"/>
      <path class="cls-1" d="M136.66,7.4c-.97.62-1.04.29-2.73.23-.7.13-1.39.12-1.69.12-.31-.01-1.78-.06-1.78-.06-.37,0-.99.14-1.46.3-.46.16-.94.3-1.39.25-.44-.05-.98-.21-1.43-.32-.46-.12-.83-.2-.97-.08-.21,1.35-.43,2.69.39,3.39.17,1.18.04,2.64.98,3.11.64.91,1.78,1.7,2.55,2.58.77.88,1.37,1.82,1.83,3.11-.52.57-1.53.37-2.63.41-1.03.15-2.26.16-3.21.06-.33,0-2.27-.25-2.27-.25-.41.29-.04,1.1-.44,3.19-.01.14,1.09-.06,1.35-.12.26-.06.45.06.87-.06.41-.11.88-.21,1.33-.27.45-.04.89-.04,1.27.12.75.36.14.79.55,1.2.65.52,1.32,1.14,1.71,1.57.4.43.9.52,1.24.98.34.46.46,1.19.7,1.71.34,1.03.38,1.83.58,2.88.26,1.43.32,2.26.31,3.22,0,1.08.08,2.62-.45,3.37-.25,1.05.19,1.87-.35,2.86-.28.75-.92,2.09-1.76,2.05-.92-.2-2.06,1.02-2.57,1.01-.76.45-1.14.91-1.99,1.29-.83.38-2.06,1.03-2.82,1.26-.39.12-.55.12-.94.21-.39.11-.51-.02-.93.06-.42.08-.74.18-1.2.21-.45.04-.85.32-1.36.3-.13.12-.59.07-.77.14-.18.08-.41.39-.6.48-.19.09-.01.44-.19.59-.18.14-.76-.11-.7.57.66.37,1.59.4,2.27.33.74.08,1.89-.2,2.62-.08,1.26.13,1.48.65,2.17.67.7.01,1.74-.28,2.39-.51.89-.35,1.08-.78,2.13-1.1,1.03-.34,2.07-1.1,3.03-1.51.97-.41,2.08-.75,2.75-1.34.85.11,1.77-.91,1.92-1.79.33-1.93-.59-2.29-.19-4.06-.02-1.18.07-1.83.02-3.04-.05-1.2.17-2.68.21-3.87-.13-1.19-.25-2.46-.21-3.72.28-.74,1.15-.72,1.9-1.12.75-.4,1.62-.44,2.12-1.1.94-.29,2.16-.78,3.1-.99.81-.4,1.62-.79,2.41-1.52.13-.12-.49-.69-.56-.95-.08-.26-.18-.57-.39-.86-.21-.3-1.27-1.62-1.54-1.83-.49-.35-.43.4-.69.39-.63-.01-.76-.1-1.34-.13-.59-.03-1.03-.09-1.6-.13-.57-.06-1.03.2-1.61.11-.58-.09-.47.11-1.09-.03-.13-.01-.22-.12-.3-.18-.08-.06-.64-.27-.7-.36-.06-.1-.16-.31-.24-.43-.08-.12-.21-.21-.32-.35.35-.58.29-.59.66-.77.36-.18.62-.3.56-.62-.31-.78-.66-1.13-.9-1.34-.23-.23-.35-.31-.23-.57.14-.5.51-.91.97-1.3.45-.39.99-.75,1.49-1.14.48-.4,1.05-.86,1.62-1.32.58-.46,1.15-.9,1.68-1.27.26-.25.37-.63.41-1.02.04-.38.02-.82,0-1.17-.03-.35-.15-.7-.38-1.02-.23-.32-.55-.32-.92-.46-.66-.27-.83-.45-2.26-.14M134.26,22.7c.54.1,1.08.17,1.6.19.25,0,.51.02.75.04.24.02.48.06.7.13.22.08.42.17.59.32.17.16.51-.07.63.19-.52.36-1.23.98-1.65,1.46-.43.48-.83.8-1.23,1.23-.4.43-.54.93-.97,1.15-.42.23-.78.7-1.29.56-.37-.14-.55-.62-.9-.97-.33-.35-.31-.92-.54-1.37-.23-.45-.3-1.19-.8-1.37-.08-.47-.69-.92-.55-1.29.14-.37.77-.02,1.11-.12.34-.12.71-.1,1.18-.05.47.05.83-.18,1.35-.1M132.9,10.88c.5.03.74.37.47.7.07.51-.27.75-.54,1.24-.27.5-.29.84-.81,1.33-.6.23-.7.57-1.8.7-.5-.28-.69-.9-1.05-1.47-.37-.58-.79-1.8-1.35-2.32,1.1-.31,1.2-.17,2.03-.27.83-.11,2.28.07,3.04.09"/>
      <path class="cls-1" d="M179.59,5.89c-.19.84-.45,1.08-.66,1.92-.27.66-.21,1.18.55,1.46,3.19.36,2.58.36,4.3.22,1.72-.42,3.47-.29,5.08-.49,1.09.2.38,1.98.41,2.63.05.63-.38,1.33-.89,1.32-1.79.45-3.65-.29-5.55-.61-1.9-.31-3.94-.81-5.48-.52-.25-.09-.81,1.49-1.09,2.41-1.49,1.72-1.04,2.57-1.18,2.41,1.64,1.32.52,1.88,4.61,3.37,2.04,1.34,6.16,4.93,7.27,4.81,1.73,1.08,4.2.86,6.29,1.06,2.67.94,4.79.5,5.46.86.86,1.64.97,1.13-4.59,3.16-2.82,1.07-4.82.41-5.31-.03-.68.05-4.62-3.54-6.18-4.78-.55-1.12-6.3-5.79-12.68-7.11-2.86,2.18-5.8,4.28-9.14,6.16-3.04,2.04-5.9,3.89-9.33,5.63-.73-.11-1.69-.26-2.6-.51-.6-.97-2.1-2.78-2.58-3.55,6-.13,8.33-1.57,11.85-3.39,3.81-1.97,7.58-4.05,11.16-7.73.48.77,1.18,1.05,1.99,1.34.81.28,1.75.48,2.52.25,1.36-.37,1.21-.56,1.09-2.33.3-1.13.33-2.1.37-3.28-.25-.02-1.01-.05-1.26-.11-.25-.07-.4-.71-.64-.97.26,0,1.13.21,1.51.22.38,0,.68-.32.93-.31.95-.38.58-1.99.55-3.51-.03-1.53.58-2.28,3.91-3.25-.02.5.46.9.38,1.28-.07.38-.02.5-1.08,1.99"/>
      <path class="cls-1" d="M162.6,8.86c.38,1.27.52.98,1.4,1.14.88.15,2.03-.11,2.95.18.26,0,.61.19.66.44.06.26-.7.74-.7.74-1.02-.04-1.78.27-3.06.32-.53.57-.8,1.23-.09,2.78,0,.25-.66.86-1.12,1.1-.45.25-1.29.17-1.53-.09-1.12-1.81-.36-2.04-1.18-2.74-5.07,0-5.18.83-6.95.95-.26,0-2.13.52-2.45-.17-.26,0-.41-.52-.14-.76.52-.49.67-1.12.82-1.69.14-.56.39-1.4.9-1.63,1.53-.2,3.13-.15,4.72.07,2.17.75,2.43.84,3.29.02.2-.92.18-1.63.15-2.4-.04-.76-.31-2.58.2-2.82,1.42.38,1.92.61,2.15,1.25.24.64,0,2.53-.03,3.3"/>
      <path class="cls-1" d="M171.72,23.86c-.02.51-.03.8-.05,1.43-.02.63-.45.83.06.85,1.51.31,3.08-.02,4.73-.1,1.65-.07,4.14-.36,5.66-.06.76-.14.47,1.2-.58,2.26-1.04.56-.29,1.18-1.31,1.32-1.27-.05-3.41-.46-4.86-.58-1.38.36-2.74.22-3.66.28-.51,2.69-.54,5.54-.46,8.52.08,2.98-.45,5.98-.4,9.19l-.68-.03-.57-.35c-.17-2.53-.31-4.7-.35-7.11-.04-2.41.15-4.3-.01-6.84.01-.5-.06-1.9-.1-2.65-.04-.77-.11-1.15-.86-1.18-1.02-.03-2.08,0-3.22.15-1.51-.22-1.62.37-2.56.68-.59-.11-1.41.46-1.78.19-.37-.26-.99-.8-.98-1.04.02-.51.17-1.26.7-1.82,1.17-.66,1.61-1.49,2.11-1.22.6.03,1.89.2,2.78.1.9-.1,1.61-.11,2.63-.08.75.28,1.27-.12,1.15-1.57-.1-1.01-.43-2.21-.31-3.39.25.01.83.2,1.59.23.93.2,1.1.2,1.35.47-.02.25.05.76.04,1.01,0,.25-.03,1.1-.04,1.35"/>
      <path class="cls-1" d="M165.61,34.63c-2.07,1.36-2.22,3.3-3.69,4.09-1.25,1.14-1.25,1.9-1.97,3.23-.86.39-2.69-.34-3.59.14-1.02-.03-2.14-.59-2.12-1.09.32-2.02,1.62-2.82,3.88-4.05,2.06-1.58,4.8-2.4,6.52-3.79.26-.24.65.19.83.45.18.26.15.77.13,1.02"/>
      <path class="cls-1" d="M178.81,33.98c1.8,1.58,3.74,1.48,6.4,2.92,2.15.8,1.73,1.16,3.76,1.22-.28,1.1-2.94,2.02-4.13,2.32-1.04.81-2.83,1.08-4.07.53-1.24-.72-2.38-2.49-3.41-3.91-.96-1.81-2.76-3.39-3.05-5.01.26.02,1.1.07,1.34.14.25.06,2.91,1.54,3.15,1.8"/>
      <path class="cls-1" d="M224.89,1.34c-3.3.27-5.93.18-7.99.23-1.96-.2-3.6-.18-5.26-.21-1.67-.03-2.34.21-5.36-.4,0,.25-.09.63-.16,1-.08.38-.15.76-.16,1.01-.01.26.14.86.21,1.15.07.29,2.09.33,2.26.71,2.48-.29,1.42-.84,4.45-.46,1.94,0,3.74.05,5.7.05,1.79-.31,3.13-.2,4.83-.21,1.69-.03,3.28.11,5.43.44.13-.12.83-.71,1.15-.95.32-.23.65-.48.81-.62.44-.18.4-.39.53-.88.13-.49.29-.88.29-.88-1.39-.17-3.04-.1-6.72.03"/>
      <path class="cls-1" d="M203.03,7.45c-1.28.21-1.73,2.22-.73,2.88.6.9.95,2.06,2.19,2.49.49,4.32.96,9.15-.26,13.29-2.73,7.76-6.79,8.14-8.58,8.46.48.77,1.06,2.44,1.66,3.22.61.78,2.49,1.22,3.53.49,2.76-3.07,3.62-5.95,4.52-9.85.89-3.89,1.43-8.43,1.56-12.49,1.81-.95,3.07-.84,4.85-.98,1.78-.13,3.05.11,5.95.21-.29,1.13.32,1.28.75,1.99.42.71.66.97,1.41,1.5-1.31,1.23-1.75,1.21-3.33,1.16-1.58-.05-2.7,1.18-4.43-.15,0,.26-1.08,1.61-.42,2.97.17.45,1.42,1.12,1.67,1.13,1.44-1.6,2.7-1.11,4.86-1.36,2.42-.55,4.82-.09,7.47.13-2.17,4.23-5.47,8.18-8.51,12-3.29,3.56-6.95,6.85-10.61,10.03-.26.25-.14.5.1.76.24.26.61.53.87.79,1.68-.95,2.78-1.93,4.28-3.15,1.73-2.34,2.99-2.05,4.55-3.27,1.06-1.48,3.69-4.05,5.79-6.65,1.6-2.22,3.57-4.31,5.29-6.53.76-.23,2.54-.03,3.15.49.68.27.99.55.96,1.3-.16,1.13-.82,3.78-1.09,5.92-.26,2.15-.41,4.54-1.49,6.54-.78.73-1.93,1.02-3.57.77-1.78.19-3.52-.88-4.77-1.43-.28.75-.31,1.63.12,2.03.43.39,1.06.67,1.55.94,2.78.35,3,1.12,4.44,1.55,2.22.08,3.33.75,4.15-.74,1.44-1.35.82-1.63,1.04-2.5.22-.88.88-1.49,1.16-2.24.7-1.88,1.02-3.89,1.08-5.79.06-1.89.49-3.41.05-5.19-.23-.77.62-1.37-.2-1.65-.81-.28-.48-.53-2.12-.96-.5-.02-.74-.66-2.64-.6-.49-.39-.1-.88-.09-1.14,1.32-1.47,1.81-.82,3.33-.9,1.58.24,5.92.84,5.46-.33-1.88-.57-4.71-1.16-7.17-1.51-2.46-.33-4.68-.28-7.19-.88-.75-.28-1.85-1.45-1.44-2.45-.54-.97-1.59-1.95-2.05-2.98,2.92-.28,4.94.04,7.48-.13,2.66.22,5.55.44,8.32,1.3.05-1.26.11-3.05.52-4.16.49-3.15,1.48-2.48,1.62-3.11,0-.26-.72-1.16-.84-1.36-.12-.19-.24-.32-.24-.32-5.57.06-11.4.11-17.05.31-5.64.19-11.22.49-16.91.18M232.42,10.72c.51.02.22,1.03.07,1.72-.14.68-.56,1.31-1.05,1.03-3.8-.12-7.72-.13-11.66,0-3.93.12-6.97.26-10.79.65-.5-.02-1.89-.2-2.19-.65-.3-.46-.02-1.2.25-1.96.79-.98,2.13-1.13,3.2-1.15,1.07-.03,5.84-.43,7.1-.14,3.32-.65,5.97-.11,9.12.18,3.9.64,2.55-.42,5.94.33"/>
      <path class="cls-1" d="M46.77,74.75c-1.54-1.9-1.73-3.69-.89-13.62,0,0-.24,0-.75-.15-.55,1.25-1.4,3.02-2.26,4.45-.85,1.43-1.97,2.67-2.54,2.52-1.32-.89-1.97-1.84-2.91-3.09-.6-1.35-.94-2.91-1.66-4.2-.26.31-.08.22-.68.44-.27.52-1.05.81-1.82,1.12-.16.19.77-.07.73.5.32.23.68.49.68.82-.09,2.29-.37,5.13-.49,7.7-.13,2.57-.08,4.88.51,6.11,0,0,.5-.33,1.05-.74.54-.41,1.31-1.18,1.48-1.5.13-.24-.83-.36-.68-.84-.79-.56-.75-1.62-.74-1.83.03-1.07,0-1.39-.03-2.55-.01-1.15.02-2.38.32-3.77.85,1.24,1.38,2.05,1.9,2.65.51.62,1.01,1.05,1.76,1.53.43.27,1.16-.63,1.97-1.71.82-1.08,1.71-2.34,2.49-2.83.25.01.29-.38.35-.28.06.1-.12,1.18-.14,1.43-.06,1.94-.25,3.25-.51,5.14-.25,1.88.24,5.15.91,5.51.76-.14.77-.6,1.16-1.03.4-.43,1.39-2.25.79-1.77"/>
      <path class="cls-1" d="M55.36,75.64c1.33-1.64.52-.32,1.85-2.39.46-.99.51,1.2.55,2.03.03.83.23,2.23.99,2.26.25.26.98-.71,1.31-1.14.63-.99.47-1.25.65-1.58-1.45.11-1.26-3.95-1.05-6.29.21-2.33.53-5.55.35-7.83-.6.48-1.21.63-1.71.78-.45.05-.44.5-1.37.72,1.42.56,1.5.48,1.48,3.5-.04,1.19-.36,3.05-.66,4.3-.29,1.26-.93,2.59-1.9,3.74-1.06,1.24-2.01,1.96-3.17,1.08-1.3-1.4-.67-2.56-.66-5.43.28-2.71.73-6.47.3-8.78-.01.52-.51.25-1.13.82-.37-.02-.51.23-1.54.62.85-.13,1.59.64,1.64,1.58.11.13-.13,1.53-.06,1.77-.07,2.45-.23,3.14-.69,5.47-.46,2.33-.85,5.12.88,6.45,2.26.66,2.82-.92,3.94-1.64"/>
      <path class="cls-1" d="M71.13,74.41c1.85-4.91-3.09-6.1-5.49-9.97-.84-1.37-.5-2.9,1.04-3.35,1.01.03,2.53.08,2.98,1.62.53-.5,1.66-1.48,1.66-1.48-.48-1.02-3.24-1.56-4.7-.84-2.06,1.04-2.54,2.62-2.61,4.65.89,3.57,6.32,5.71,6.32,7.82.01,1.35-.38,3.87-3.32,3.52-1.13-.14-2.41-1.18-2.34-3.2-1.46.79-1.41,1.81-2.05,2.97,3.85,3.67,7.6.67,8.51-1.74"/>
      <path class="cls-1" d="M79.68,60.76c-.52.49-1.38.72-2.64.84.49.53,1.61.98,1.2,1.91-3.85,8.82-6.6,12.87-4.18,13.79,0,0,1.35-.04,2.71-2.78.12-.22-3.46.05-.47-3.56.47-.56,3.15-.57,4.14-.03,1.46,1.56,1.55,7.09,2.9,6.59.85-.3,2.21-2.79,1.69-2.72-1.47.19-2.49-3.47-5.35-14.04M76.76,69.61c.27-.57,1.21-3.24,2.09-4.4.32.77.42,1.61.76,2.55.15.43.39,1.11.62,1.79-1.69.02-3.6.34-3.47.05"/>
      <path class="cls-1" d="M100.57,74.73c-.68-.1-1.54.2-.82-5.85.06-.5-.16-2.55.34-2.52,2.03.07,4.14.06,4.89.42,1.08.52-1.37,10.73.91,10.25,1.03-.22,2.1-1.96,2.1-1.96-.58-.44-1-1-1-2.82,0-4.73.91-9.26-.28-11.83-.53.91-3.67,1.31-2.32,1.44,1.1.11,1.08.37.97,3.74-.03.59-.77.31-2.04.27-1.52-.05-1.52-.21-3.04-.11-.76.06-.36-1.61-.32-3.13.02-.5.13-1.35.15-1.85-1.04.47-2.22.52-3.24.9.68.44,1.38-.7,1.5,3.18.11,4.05-1.91,11.34.34,12.42.85.41,2.74-2.42,1.86-2.56"/>
      <path class="cls-1" d="M113.67,74.67c-2.08,1.2-1.23-8.57-.87-14.21-1.05.89-1.9,1.11-2.83,1.34.49.52,1.16.63,1.19,2.15.11,4.81-.92,7.32-.49,12.07.07.7.71,1.54,1.21,1.55.52-.49,2.23-3.15,1.79-2.89"/>
      <path class="cls-1" d="M127.08,60.71c.28.85-.03-.9-.59-.56-.56.35-1.82,1.38-2.08,1.87,1.11-.55,1.18-.13,1.7,2.88.11,1.83-.12,3.88-.43,4.26-.33.39-.84.1-1.35-.35-.49-.46-.97-1.08-1.21-1.34-1.22-1.3-2.35-3.05-3.17-4.47-.81-1.42-1.32-2.52-1.32-2.52-.6.37-1.03.54-1.4.66-.37.13-1.04.36-1.42.51.59.06,1.22-.04,1.34.63.35,1.61.08,1.99,0,4.56-.06,1.77-.12,4.16-.12,6.17,0,2.01.08,3.66.28,3.97.54.15.98-.1,1.37-.64.39-.55.73-1.4,1.11-2.49,0,0-.45.22-.85-.39-.38-.62-.72-2.07-.48-5.39.02-.26.02-1.08.09-1.77.07-.7.18-1.26.42-1,2.23,1.6,3.24,3.52,4.72,5.39,1.49,1.89,2.52,2.88,2.24,6.07.84.42.93.03.93.03.41-7.26.34-15.5.23-16.09"/>
      <path class="cls-1" d="M133.25,62.33c-3.46,2.55-4.56,7.45-2.67,11.57,1.43,2.59,5.53,3.65,6.92,2.69,4.89-3.41,5.44-12.81-1.71-16.69-1.5-.57-.89,1.23-2.53,2.44M137.99,64.51c1.88,4.37,2.5,11.68-2.08,11.33-4.04-.31-5.64-10.47-2.34-13.17,1.55-.96,3.69.16,4.42,1.84"/>
      <path class="cls-1" d="M186.81,74.29c1.11-3.01,1.29-5.53-2.28-7.35,1.05-.98,2.19-2.71,1.32-4.17-.74-1.23-2.02-2.69-3.55-2.23-1.03.47-1.49,1.55-2.02,2.05-1.61-2.67-.53-2.03-3.53-.3.49.53,1.45-.45,1.33,2.92-.15,4.39-.3,11.39-.76,12.39,3.7.46,7.85.18,9.49-3.31M179.46,66.94c-.5.04.12-3.38.12-3.38,1.4-1.38,4.35-1.28,4.67-.67.62,1.15.6,2.46-.2,3.53-.95,1.29-2.21.35-4.58.52M179.81,76.67c-1.48-1.06-.35-2.13-.71-4.07.13.72.24-4.39.24-4.39,4.76-.85,5.82.53,6.32,3.17.67,3.51-2.33,6.43-5.84,5.29"/>
      <path class="cls-1" d="M94.6,74.77c1.86-4.92-3.08-6.1-5.49-9.99-.84-1.36-.49-2.88,1.05-3.33,1,.03,2.53.09,2.99,1.62.52-.49,1.65-1.48,1.65-1.48-.47-1.02-3.24-1.55-4.69-.83-2.07,1.04-2.54,2.61-2.61,4.65.9,3.57,6.31,5.7,6.32,7.81.01,1.35-.38,3.87-3.33,3.52-1.12-.14-2.41-1.19-2.34-3.21-1.47.8-1.41,1.81-2.04,2.97,3.85,3.69,7.6.67,8.51-1.73"/>
      <path class="cls-1" d="M159.92,74.31c1.86-4.92-3.09-6.1-5.49-9.98-.84-1.36-.49-2.89,1.05-3.35,1.01.04,2.53.09,2.98,1.62.53-.49,1.66-1.46,1.66-1.46-.47-1.02-3.24-1.56-4.7-.83-2.05,1.03-2.53,2.61-2.6,4.64.89,3.58,6.31,5.71,6.33,7.82,0,1.35-.39,3.87-3.34,3.52-1.12-.13-2.4-1.19-2.34-3.21-1.47.81-1.42,1.82-2.04,2.98,3.84,3.68,7.59.67,8.5-1.74"/>
      <path class="cls-1" d="M173.13,77.53c.85-.31,2.21-2.8,1.69-2.72-1.49.19-2.5-3.46-5.36-14.04-.52.48-1.37.72-2.64.84.49.53,1.61.97,1.2,1.89-3.84,8.83-6.6,12.87-4.18,13.8,0,0,1.36-.04,2.71-2.79.12-.23-3.46.05-.46-3.56.46-.56,3.15-.57,4.14-.03,1.47,1.57,1.54,7.09,2.9,6.6M166.55,69.62c.28-.58,1.21-3.25,2.09-4.4.31.76.41,1.61.75,2.56.16.44.39,1.11.61,1.8-1.68.03-3.59.33-3.46.05"/>
      <path class="cls-1" d="M191.76,55.62s-.59.15-1.31,1.06c1.29-.72,6.35-.42,7.86-.24,1.51.17-.16-.1,1.13-.82-2.03.18-5.89-.1-7.68,0"/>
      <path class="cls-1" d="M193.55,62.7c-3.47,2.56-4.57,7.45-2.68,11.57,1.43,2.58,5.54,3.65,6.92,2.68,4.89-3.41,5.44-12.8-1.71-16.7-1.5-.55-.89,1.25-2.53,2.45M198.29,64.9c1.88,4.36,2.5,11.68-2.08,11.32-4.04-.31-5.64-10.47-2.33-13.17,1.55-.96,3.69.16,4.42,1.85"/>
    </g>
  </g>
</svg>