<?xml version="1.0" encoding="UTF-8"?>
<svg id="_レイヤー_2" data-name="レイヤー 2" xmlns="http://www.w3.org/2000/svg" viewBox="0 0 686.64 100.64">
  <defs>
    <style>
      .cls-1 {
        stroke-width: .64px;
      }

      .cls-1, .cls-2 {
        fill: none;
        stroke: #1a1a1a;
        stroke-miterlimit: 10;
      }

      .cls-3 {
        fill: #1a1a1a;
      }
    </style>
  </defs>
  <g id="_テキストデータ" data-name="テキストデータ">
    <g>
      <polyline class="cls-2" points="625.14 37 642.97 50.32 625.14 63.64"/>
      <path class="cls-3" d="M44.19,43.4c.09-.09.21-.13.35-.11,1.82.19,3.17.63,4.06,1.33.89.7,1.33,1.45,1.33,2.24,0,.42-.12.77-.37,1.05s-.57.42-.96.42c-.28,0-.54-.06-.77-.17-.09-.05-.18-.14-.25-.28-.23-.7-.66-1.42-1.28-2.17-.62-.75-1.29-1.4-2.01-1.96-.16-.09-.2-.21-.1-.35ZM45.1,57.22h1.26c.23,0,.4-.04.49-.11.09-.07.22-.28.38-.63.33-.63.95-2,1.87-4.09.92-2.1,2.57-5.92,4.95-11.45.07-.21.19-.28.35-.21l.07.04c.19.05.25.16.17.35-.47,1.47-1.03,3.15-1.68,5.04-1.73,5.16-2.73,8.25-3.01,9.28-.4,1.45-.59,2.51-.59,3.18.02.42.16,1.06.42,1.92.21.75.37,1.42.47,2.01s.15,1.28.12,2.05c-.05.79-.26,1.42-.63,1.87-.37.46-.88.68-1.5.68-.33,0-.6-.13-.82-.4-.22-.27-.37-.66-.44-1.17-.02-.12-.02-.23,0-.35.16-1.56.24-2.75.24-3.57s-.06-1.54-.17-2.1c-.12-.56-.29-.91-.52-1.05-.4-.28-.88-.44-1.44-.49-.19-.05-.28-.15-.28-.32v-.21c0-.19.09-.28.28-.28ZM46.81,35.56c.09-.09.21-.13.35-.1,1.89.26,3.3.76,4.22,1.5.92.75,1.38,1.53,1.38,2.35,0,.44-.13.81-.39,1.1-.26.29-.58.44-.98.44-.3,0-.57-.06-.8-.17-.09-.05-.18-.14-.25-.28-.23-.72-.68-1.49-1.35-2.31-.67-.82-1.37-1.54-2.12-2.17-.16-.12-.19-.23-.07-.35ZM71.31,49.63c.07-.09.19-.26.35-.49.16-.23.3-.41.4-.52.1-.12.2-.17.3-.17.19,0,.69.36,1.52,1.07.83.71,1.34,1.24,1.52,1.59.02.12.01.23-.04.35-.14.26-.41.38-.81.38h-9.94c-.86,1.87-1.87,3.76-3.01,5.69-1.14,1.92-2.27,3.58-3.4,4.95l9.13-.63,2.91-.21c-1.14-1.91-2.47-3.84-3.99-5.77-.12-.14-.1-.26.04-.35.14-.07.28-.07.42,0,1.94,1.1,3.52,2.24,4.76,3.41,1.24,1.18,2.13,2.29,2.68,3.34.55,1.05.82,1.97.82,2.77,0,.56-.12,1-.35,1.31-.23.31-.55.47-.95.47-.33,0-.69-.14-1.08-.42-.09-.05-.17-.14-.24-.28-.3-1-.85-2.24-1.65-3.71-4.13,1.03-9.4,2.17-15.82,3.43-.16.3-.37.51-.63.63-.02.02-.06.04-.1.04-.12,0-.2-.06-.25-.17l-1.36-3.25-.04-.14c0-.12.08-.18.25-.18,1.21-.05,2.65-.12,4.3-.21.7-1.45,1.41-3.16,2.12-5.13.71-1.97,1.3-3.83,1.77-5.58h-2.66c-1.38.02-2.9.17-4.58.46h-.1c-.09,0-.17-.06-.25-.17l-.63-1.23s-.04-.07-.04-.14c0-.12.08-.17.25-.17,1.28.12,2.71.2,4.27.25h4.79v-7.04h-2.45c-1.47.02-2.86.17-4.17.46h-.1c-.09,0-.18-.06-.25-.17l-.6-1.23s-.03-.07-.03-.14c0-.12.08-.17.24-.17,1.28.12,2.71.2,4.27.25h3.08v-.56c0-2.57-.13-4.84-.38-6.83v-.07c0-.19.1-.25.31-.18,1.38.35,2.34.64,2.89.86.55.22.82.42.82.58,0,.12-.09.23-.28.35l-.6.38v5.46h4.65l.81-1.16c.09-.12.22-.29.37-.51.15-.22.28-.38.38-.49.1-.11.2-.16.3-.16.19,0,.69.34,1.51,1.03.82.69,1.32,1.21,1.5,1.56l.04.14c0,.19-.09.33-.26.44-.17.1-.39.16-.65.16h-8.65v7.04h5.74l.81-1.19Z"/>
      <path class="cls-3" d="M96.34,35.45l2.17.35c1.21.02,1.82.15,1.82.38,0,.12-.12.26-.35.42l-.6.38c.26,4.64.86,8.63,1.8,11.95s2.47,6.24,4.58,8.75c2.11,2.51,5.01,4.61,8.7,6.32.14.07.21.15.21.25,0,.16-.09.26-.28.28-1.21.26-2.03.99-2.45,2.21-.05.21-.16.26-.35.14-2.8-1.63-5.06-3.6-6.77-5.9-1.72-2.3-3-4.89-3.87-7.79-.86-2.89-1.47-6.22-1.82-9.97-.23,3.29-.79,6.29-1.66,9.01-.88,2.72-2.37,5.36-4.48,7.91-2.11,2.55-5.03,4.84-8.77,6.84-.14.09-.28.07-.42-.07l-.1-.14c-.12-.14-.09-.27.07-.38,3.2-2.19,5.69-4.58,7.49-7.16,1.8-2.58,3.06-5.22,3.78-7.93.72-2.71,1.17-5.69,1.33-8.96.02-.35.04-.88.04-1.58,0-1.98-.12-3.67-.35-5.08,0-.21.09-.29.28-.25Z"/>
      <path class="cls-3" d="M136.26,53.14c-.59-.59-.89-1.3-.89-2.12s.3-1.56.89-2.15c.6-.6,1.3-.89,2.12-.89s1.56.3,2.15.89c.6.59.89,1.31.89,2.15s-.3,1.52-.89,2.12c-.59.6-1.31.89-2.15.89s-1.52-.3-2.12-.89Z"/>
      <path class="cls-3" d="M179.74,43.96c.09-.14.23-.33.42-.58.19-.25.34-.43.46-.54s.22-.17.31-.17c.21,0,.79.39,1.75,1.17.96.78,1.54,1.36,1.75,1.73l.07.14c0,.16-.09.3-.26.4-.18.11-.38.16-.61.16h-13.37c1.42,8.1,6.23,14.06,14.42,17.88.14.07.21.17.21.31-.02.14-.12.22-.28.25-1.24.21-2.04.93-2.42,2.17-.02.09-.06.15-.12.17s-.13.01-.23-.03c-3.92-2.36-6.78-5.3-8.59-8.82-1.81-3.52-3.02-7.4-3.62-11.62-.35,2.99-1.03,5.68-2.05,8.08s-2.61,4.66-4.78,6.75c-2.17,2.1-5.08,3.98-8.72,5.63-.16.07-.29.04-.38-.1l-.07-.1c-.09-.16-.07-.29.07-.39,3.03-1.77,5.47-3.72,7.3-5.83,1.83-2.11,3.18-4.33,4.04-6.65.86-2.32,1.45-4.89,1.75-7.72h-7.14c-1.49.02-3.16.17-5,.46h-.1c-.09,0-.17-.06-.25-.18l-.59-1.22s-.04-.07-.04-.14c0-.12.08-.17.25-.17,1.28.12,2.71.2,4.27.25h8.71l.07-.98c.02-.3.05-.75.07-1.35.02-.59.04-1.11.04-1.56,0-2.38-.13-4.47-.39-6.27,0-.09.02-.17.07-.23s.12-.08.21-.05l3.99.56c.23.05.31.15.25.32-.14.4-.49.63-1.05.7,0,.47-.01.82-.03,1.05-.05,3.24-.16,5.84-.35,7.8h9.06l.91-1.29Z"/>
      <path class="cls-3" d="M199.2,63.07l.1,1.58c.02.12.01.23-.04.35-.16.26-.47.49-.93.7s-.93.31-1.42.31c-.23,0-.44-.07-.61-.21-.17-.14-.26-.3-.26-.49.09-1.38.17-2.71.24-4.01.07-1.29.12-2.99.14-5.09v-9.76c0-2.75-.13-5.02-.38-6.79v-.07c0-.09.02-.15.07-.17.05-.02.12-.01.21.04l3.12,1.4h17.64l1.37-1.71c.09-.14.23-.15.42-.04,1.03.77,1.75,1.36,2.17,1.77s.63.72.63.93c0,.19-.17.34-.52.46l-.91.35v13.76c.05,2.92.14,5.59.28,8.01,0,.14-.05.26-.14.35-.26.23-.63.44-1.12.63-.49.19-.94.28-1.36.28-.37,0-.56-.23-.56-.7.05-.42.07-.72.07-.91.02-.12.04-.23.04-.35s.01-.25.04-.38v-1.19h-18.27v.98ZM199.2,41.82v19.21h18.27v-19.21h-18.27Z"/>
      <path class="cls-3" d="M235.78,47.88c-.23-.7-.66-1.42-1.29-2.17-.63-.75-1.31-1.4-2.03-1.96-.16-.12-.19-.23-.07-.35.09-.09.21-.13.35-.11,1.82.19,3.17.63,4.06,1.33s1.33,1.45,1.33,2.24c0,.42-.12.77-.37,1.05-.24.28-.57.42-.96.42-.28,0-.54-.06-.77-.17-.05-.02-.13-.12-.25-.28ZM261.99,63.52c.82.72,1.32,1.26,1.5,1.61.02.12.01.23-.04.35-.14.26-.41.38-.8.38h-16.45c-1.49.02-3.16.17-5,.46h-.1c-.09,0-.18-.06-.25-.17l-.6-1.26s-.03-.07-.03-.14c0-.12.08-.17.25-.17,1.28.12,2.71.2,4.27.25h5.63v-11.09h-2.59c-1.38.02-2.91.17-4.58.46h-.1c-.09,0-.18-.06-.25-.18l-.63-1.22s-.04-.07-.04-.14c0-.12.08-.17.25-.17,1.28.12,2.71.2,4.27.25h3.67v-9.1h-2.66c-1.38.02-2.9.17-4.58.46h-.1c-.09,0-.17-.06-.25-.18l-.63-1.29c-2.43,7.4-3.78,11.68-4.06,12.85-.37,1.33-.56,2.39-.56,3.18,0,.37.06.78.19,1.21.13.43.2.69.23.79.21.7.37,1.35.47,1.94s.15,1.28.12,2.05c-.05.79-.26,1.42-.63,1.87-.37.46-.88.68-1.5.68-.7,0-1.12-.53-1.26-1.58-.02-.12-.02-.23,0-.35.16-1.47.25-2.62.25-3.46,0-.89-.06-1.62-.17-2.19-.12-.57-.29-.93-.53-1.07-.4-.3-.88-.47-1.44-.49-.19-.05-.28-.15-.28-.32v-.21c0-.19.09-.28.28-.28h1.26c.21,0,.37-.04.47-.11s.24-.28.4-.63c.33-.63.94-2,1.84-4.09.9-2.1,2.5-5.92,4.81-11.45.07-.19.19-.26.35-.21h.04c.19.07.26.2.21.38l-.42,1.23c1.31.12,2.79.2,4.44.24h11.58l.77-1.15c.09-.14.22-.32.37-.54.15-.22.27-.38.37-.49.09-.1.19-.16.28-.16.19,0,.69.35,1.5,1.05.82.7,1.32,1.23,1.5,1.58.02.12.01.23-.04.35-.14.26-.41.38-.8.38h-9.1v9.1h4.41l.77-1.12c.09-.12.22-.28.37-.49.15-.21.27-.37.37-.47.09-.11.19-.16.28-.16.21,0,.71.33,1.49,1,.78.67,1.25,1.17,1.42,1.52.02.05.04.1.04.17,0,.16-.09.3-.26.4-.17.11-.39.16-.65.16h-8.23v11.09h5.53l.77-1.19c.07-.09.19-.26.35-.49.16-.23.3-.41.4-.52.1-.12.2-.17.3-.17.21,0,.72.36,1.54,1.08ZM238.42,40.68c-.03-.06-.06-.1-.09-.12-.28-.75-.75-1.53-1.4-2.36-.65-.83-1.34-1.54-2.06-2.15-.07-.05-.12-.1-.14-.16-.02-.06-.01-.11.04-.16.09-.09.21-.13.35-.11,1.91.23,3.33.73,4.25,1.49.92.76,1.38,1.54,1.38,2.36,0,.42-.13.78-.4,1.07-.27.29-.6.44-1,.44-.28,0-.54-.06-.77-.18-.07-.02-.12-.06-.16-.12ZM250.86,41.19c-.26-.96-.76-1.96-1.51-3.01-.75-1.05-1.56-1.97-2.45-2.76-.09-.07-.14-.13-.14-.19s.02-.11.07-.16c.12-.12.25-.15.39-.11,1.45.33,2.63.78,3.55,1.35.92.57,1.59,1.18,2.01,1.84s.63,1.27.63,1.85c0,.51-.13.93-.4,1.26-.27.33-.62.49-1.07.49-.28,0-.57-.08-.88-.25-.09-.05-.16-.15-.21-.31Z"/>
      <path class="cls-3" d="M298.08,40.32c.09-.14.23-.33.4-.58.18-.25.31-.43.42-.54s.2-.17.3-.17c.21,0,.76.38,1.66,1.16.9.77,1.44,1.33,1.63,1.68.07.12.07.23,0,.35-.14.26-.42.38-.84.38h-5.35c-1.47,5.97-3.98,10.88-7.52,14.74,1.91,1.61,4.05,3,6.42,4.18,2.37,1.18,4.88,2.12,7.54,2.82.16.05.25.13.25.25,0,.14-.09.23-.28.28-1.14.21-1.97.91-2.49,2.1-.09.16-.21.21-.35.14-5.16-1.84-9.39-4.56-12.71-8.15-3.9,3.62-8.89,6.31-14.98,8.08h-.1c-.09,0-.18-.06-.25-.17-.07-.16-.02-.28.14-.35,5.74-2.31,10.32-5.39,13.75-9.24-2.43-3.03-4.22-6.61-5.39-10.75-1.12,2.22-1.94,3.79-2.45,4.73.12.19.18.36.18.52,0,.12-.04.23-.1.35-.05.09-.12.13-.21.12-.09-.01-.16-.05-.21-.12l-2-2.28c-.12-.16-.1-.29.04-.38.7-.56,1.48-1.23,2.34-2s1.56-1.45,2.1-2.03l.38-1.79c.02-.19.14-.25.35-.18l.95.35c.21.07.26.2.14.38l-1.05,1.43c1.26,3.85,3.33,7.21,6.19,10.08,2.92-3.73,4.9-8.11,5.95-13.12h-15.23c-1.49.02-3.16.18-5,.46h-.07c-.12,0-.21-.06-.28-.17l-.63-1.19-.04-.14c0-.12.08-.17.25-.17,1.26.12,2.67.2,4.23.25h9.59c0-2.43-.13-4.6-.38-6.51,0-.23.1-.31.31-.24,1.38.33,2.34.6,2.89.82.55.22.82.41.82.58,0,.12-.1.23-.31.35l-.59.38v4.62h8.71l.88-1.29Z"/>
      <path class="cls-3" d="M333.08,41.09c1.98.82,3.64,2.12,4.97,3.92,1.33,1.8,2,4.08,2,6.86,0,3.38-1.02,6.04-3.04,7.96-2.03,1.92-4.33,3.23-6.91,3.92-2.58.69-4.92,1.03-7.02,1.03-.16,0-.31-.02-.45-.05-.14-.04-.21-.08-.21-.12,0-.09.15-.18.46-.26s.61-.15.91-.19c3.92-.65,7.12-2,9.61-4.04,2.48-2.04,3.73-4.85,3.73-8.42,0-2.59-.55-4.68-1.65-6.28-1.1-1.6-2.44-2.74-4.02-3.41-1.59-.68-3.16-1.01-4.73-1.01-.37,0-.64.01-.81.04.28.61.51,1.35.7,2.24.19.89.28,1.7.28,2.45,0,.89-.1,1.87-.31,2.96-.21,1.09-.52,2.17-.94,3.24-.75,1.98-1.62,3.72-2.61,5.21-.99,1.49-1.95,2.64-2.89,3.43-.93.79-1.69,1.19-2.27,1.19-.86,0-1.67-.43-2.43-1.29s-1.36-1.98-1.82-3.36-.68-2.78-.68-4.2c0-2.57.68-4.84,2.05-6.83,1.37-1.98,3.14-3.51,5.32-4.58,2.18-1.07,4.45-1.61,6.81-1.61,2.01,0,4,.41,5.98,1.22ZM325.31,41.05c-1.82.23-3.5.86-5.04,1.89s-2.77,2.35-3.67,3.97c-.91,1.62-1.37,3.41-1.37,5.37,0,1.33.17,2.46.51,3.38.34.92.72,1.61,1.16,2.05.43.44.78.67,1.03.67.56,0,1.23-.42,2.01-1.26.78-.84,1.53-1.82,2.26-2.94,1.26-1.96,2.16-3.76,2.7-5.41.54-1.64.8-3.33.8-5.06,0-.93-.13-1.82-.38-2.66Z"/>
      <path class="cls-3" d="M376.04,51.24c.76.63,1.14,1.62,1.14,2.97,0,1.26-.46,2.56-1.37,3.89s-2.05,2.44-3.43,3.32-2.71,1.33-3.99,1.33c-.91,0-1.65-.26-2.22-.77s-.86-1.24-.86-2.17c0-1.28.58-2.81,1.75-4.59.21-.28.36-.42.46-.42s.14.06.14.18-.12.42-.35.91c-.16.37-.31.83-.46,1.38-.14.55-.21,1.06-.21,1.52,0,1.1.38,1.65,1.16,1.65.84,0,1.81-.37,2.9-1.1,1.1-.74,2.04-1.63,2.82-2.68.78-1.05,1.17-2.01,1.17-2.87,0-1.52-.85-2.27-2.55-2.27-1.56,0-3.59.57-6.09,1.71-1.14.51-2.37,1.19-3.68,2.03l.11,1.96c.07,1.12.11,1.88.11,2.27,0,.65-.05,1.29-.16,1.92-.11.63-.22,1.05-.33,1.26-.14.26-.36.5-.67.74-.3.23-.53.35-.67.35-.44,0-.76-.27-.95-.81-.33-.84-.72-1.56-1.19-2.17-.19-.26-.43-.49-.74-.7-.3-.21-.7-.46-1.19-.73l-.95.7c-.35.26-.62.44-.82.56-.2.12-.4.17-.61.17-.58,0-1.1-.27-1.56-.82s-.68-1.14-.68-1.77c0-.47.13-.82.4-1.05.27-.23.52-.35.75-.35.14,0,.38.07.72.21.34.14.55.21.65.21l.28-.04c1.05-.35,2.99-1.27,5.81-2.77,0-2.5-.01-4.28-.04-5.35-.96.35-1.82.63-2.59.84-.49.07-.78.1-.88.1-.77,0-1.42-.19-1.96-.56-.89-.61-1.6-1.27-2.13-2-.19-.19-.28-.34-.28-.46,0-.09.06-.14.18-.14.09,0,.24.04.44.12.2.08.34.15.44.19l.28.14c.77.3,1.66.46,2.66.46.33,0,.56-.01.7-.04.61-.07,1.66-.35,3.15-.84-.07-2.52-.27-4.12-.59-4.8-.16-.37-.4-.66-.72-.88-.31-.21-.62-.37-.91-.49-.29-.12-.48-.2-.58-.25-.07-.02-.18-.06-.33-.11-.15-.05-.23-.1-.23-.17,0-.16.22-.34.66-.52.49-.16.9-.25,1.23-.25.54,0,1.08.1,1.63.31.55.21.97.46,1.28.74.35.3.53.77.53,1.4,0,.19-.02.4-.07.63s-.08.41-.11.52c0,.09-.01.16-.04.21.35.4.69.7,1.02.91.61.42,1.17.69,1.68.81.44.09.78.22,1.02.37.23.15.35.37.35.65,0,.35-.07.61-.21.79-.14.17-.37.33-.7.47l-1.86.74c-.28.09-.54.19-.79.28-.25.09-.46.18-.65.25v1.89c0,.72.02,1.78.07,3.18,1.63-.82,2.73-1.33,3.29-1.54,3.01-1.17,5.45-1.75,7.31-1.75,1.31,0,2.34.32,3.1.95ZM360.69,56.38c-.75.51-1.87,1.33-3.36,2.45.4.23.94.51,1.64.82.7.32,1.12.47,1.26.47.23,0,.36-.16.38-.49.05-.33.07-1.41.07-3.25ZM362.3,45.46l-.04.77c.19-.07.32-.14.38-.21.07-.05.18-.12.33-.23.15-.11.23-.23.23-.37s-.07-.32-.21-.53c-.05-.09-.26-.42-.63-.98-.05.65-.07,1.17-.07,1.54ZM379.56,45.06c.61.32,1.08.72,1.42,1.21.34.49.51.98.51,1.47s-.14.87-.42,1.14c-.28.27-.62.4-1.01.4-.51,0-.91-.2-1.19-.6-1.14-1.45-2.24-2.17-3.29-2.17-.47,0-.97.2-1.5.6-.21.12-.44.28-.7.49-.26.21-.42.31-.49.31-.14,0-.21-.07-.21-.21,0-.09.06-.22.17-.38.77-1.03,1.53-1.74,2.28-2.14.75-.4,1.55-.59,2.42-.59.75,0,1.42.16,2.03.47Z"/>
      <path class="cls-3" d="M414.94,56.84c.14.12.14.25,0,.39-.26.21-.57.35-.95.42v2.83c.07,2.31.14,4.07.21,5.29,0,.14-.04.26-.11.35-.21.21-.56.41-1.05.59-.49.19-.93.28-1.33.28-.28,0-.47-.17-.56-.53,0-.14.01-.26.04-.35l.1-.63v-.77h-11.9v1.58c0,.14-.22.31-.65.53-.43.21-.94.31-1.52.31-.21,0-.38-.07-.51-.21-.13-.14-.19-.3-.19-.49.14-2.05.23-4.13.28-6.23v-3.46c-2.05.77-4.26,1.4-6.61,1.89h-.11c-.09,0-.18-.06-.25-.17l-.04-.04s-.04-.07-.04-.14c0-.14.07-.22.21-.25,2.64-.82,5.15-1.84,7.54-3.08,2.39-1.24,4.54-2.61,6.46-4.13-1.47-1.28-2.74-2.73-3.81-4.34-2.43,2.4-5.16,4.28-8.19,5.64-.16.07-.29.05-.38-.07-.12-.14-.09-.27.07-.38,2.19-1.47,4.22-3.31,6.09-5.53.72-.84,1.37-1.75,1.93-2.73.56-.98.99-1.94,1.29-2.87.05-.16.16-.22.35-.18,2.45.65,3.68,1.12,3.68,1.4,0,.09-.12.18-.35.25l-.74.21c-.72.96-1.21,1.58-1.47,1.86h7.21l.8-.81c.07-.07.22-.23.46-.47.23-.25.43-.37.6-.37.19,0,.61.32,1.26.95.65.63,1.06,1.13,1.22,1.5.07.14.04.26-.1.35-.21.16-.67.26-1.37.28-1.4,1.98-3.13,3.79-5.18,5.42,1.94.98,4.05,1.82,6.33,2.52s4.62,1.24,7,1.61c.19.05.28.13.28.24-.02.14-.12.22-.28.25-.44.09-.83.32-1.16.68-.33.36-.58.81-.77,1.35-.05.19-.16.26-.35.21-1.42-.37-2.62-.74-3.6-1.08l.14.14ZM416.87,38.22c.09-.09.24-.26.44-.49.2-.23.37-.35.51-.35.19,0,.64.34,1.35,1.03.71.69,1.15,1.22,1.31,1.59.07.14.03.26-.1.35-.19.09-.56.16-1.12.21-.49.58-1.12,1.24-1.91,1.98-.78.74-1.52,1.37-2.22,1.91-.12.09-.25.09-.39,0-.14-.07-.17-.2-.1-.38.61-1.31,1.13-2.64,1.57-3.99h-21.42c0,1.14-.17,2.13-.53,2.97-.35.84-.78,1.47-1.29,1.89-.44.35-.93.52-1.47.52-.61,0-1.02-.22-1.23-.67-.07-.21-.1-.41-.1-.59,0-.3.09-.59.26-.88.18-.28.41-.51.72-.7.7-.44,1.31-1.14,1.84-2.1.53-.96.81-1.98.86-3.08,0-.19.09-.28.28-.28h.03c.19,0,.29.08.32.25.16.63.26,1.17.28,1.61h9.03c0-1.52-.07-2.85-.21-3.99,0-.23.11-.32.31-.25,1.33.33,2.26.6,2.78.82.53.22.79.42.79.58,0,.12-.1.23-.31.35l-.6.38v2.1h9.62l.7-.81ZM399.82,56.24h11.16l.67-.74c-2.29-1-4.27-2.12-5.95-3.36-2.05,1.47-4.3,2.72-6.75,3.75l.88.35ZM399.4,57.26v6.44h11.9v-6.44h-11.9ZM400.73,45.95c1.26,1.45,2.78,2.71,4.55,3.78,1.63-1.45,3.01-3,4.13-4.66h-7.88l-.81.88Z"/>
      <path class="cls-3" d="M438.08,42.14c.09-.14.21-.31.33-.51s.24-.34.33-.44c.09-.09.19-.14.28-.14.19,0,.63.32,1.33.96s1.13,1.14,1.29,1.49c.02.05.04.11.04.18,0,.16-.08.3-.25.4-.16.1-.36.16-.59.16h-4.27v3.92c1.45.72,2.51,1.51,3.18,2.36.68.85,1.02,1.65,1.02,2.4,0,.44-.12.81-.35,1.08-.23.28-.51.42-.84.42-.3,0-.61-.12-.91-.35-.07-.07-.13-.17-.18-.32-.21-1.33-.85-2.93-1.92-4.79v8.82c.05,2.89.14,5.58.28,8.05,0,.12-.04.22-.11.32-.21.23-.53.45-.96.65-.43.2-.86.3-1.28.3-.26,0-.47-.07-.65-.21-.18-.14-.26-.3-.26-.49.09-1.38.17-2.71.25-4.01s.12-2.99.14-5.09v-5.46c-1.26,2.71-2.76,5.05-4.51,7.04-.14.14-.28.14-.42,0l-.07-.07c-.12-.12-.13-.24-.04-.38,2.15-3.55,3.71-8.27,4.69-14.17h-1.43c-.72.02-1.46.16-2.21.42h-.11c-.09,0-.18-.06-.25-.17l-.59-1.16s-.04-.1-.04-.17c0-.12.08-.16.24-.14,1.03.12,2.05.19,3.08.21h1.65v-1.33c0-2.54-.13-4.82-.38-6.83v-.07c0-.19.1-.25.32-.17,1.33.35,2.25.64,2.76.86.51.22.77.41.77.58,0,.12-.09.23-.28.35l-.59.42v6.2h.8l.7-1.09ZM456.38,48.82c.07-.12.18-.27.33-.47s.27-.35.37-.46c.09-.11.19-.16.28-.16.21,0,.7.33,1.47.98.77.65,1.24,1.16,1.4,1.51.02.12.01.23-.03.35-.14.26-.41.38-.81.38h-8.5v1.16c.42,1.8,1.08,3.42,1.99,4.86.63-.75,1.24-1.59,1.82-2.54.58-.95,1.03-1.8,1.33-2.57.07-.21.2-.26.38-.14,1.87,1.26,2.8,2.03,2.8,2.31,0,.12-.11.17-.32.17l-.63.04c-1.26,1.05-2.9,2.17-4.94,3.36,1.61,2.19,3.99,3.84,7.14,4.93.16.02.25.11.25.25-.02.12-.1.21-.25.28-.84.3-1.42,1.04-1.75,2.21-.02.09-.06.15-.12.17s-.13.01-.23-.04c-1.96-1.21-3.54-2.68-4.74-4.41-1.2-1.73-2.12-4.04-2.75-6.93v9.45c0,1.07-.22,1.9-.65,2.47-.43.57-1.31.94-2.64,1.1h-.07c-.12,0-.2-.08-.25-.24-.07-.7-.26-1.21-.56-1.54-.42-.42-1.16-.72-2.21-.91-.19-.05-.28-.14-.28-.28s.07-.21.21-.21c.51,0,1.12.04,1.82.1l1.33.07c.28,0,.47-.05.58-.16.11-.11.16-.27.16-.51v-5l-1.96,1.68c-1.84,1.61-3.43,2.94-4.76,3.99-.05.37-.16.64-.35.8-.05.07-.11.1-.19.09s-.15-.05-.19-.12l-1.71-2.31c-.09-.16-.06-.28.1-.35,1.12-.49,3.34-1.55,6.65-3.19l2.14-1.05c.07-.05.13-.08.17-.11.05-.02.08-.02.11,0v.04-6.93h-2.62c-1.33.02-2.84.17-4.52.46h-.11c-.09,0-.17-.06-.24-.17l-.63-1.26s-.03-.07-.03-.14c0-.12.08-.17.25-.17,1.28.12,2.71.2,4.27.25h3.64v-3.75h-2.13c-1.19.02-2.37.16-3.54.42-.19.05-.3,0-.35-.14l-.63-1.26s-.04-.07-.04-.14c0-.12.08-.17.25-.17,1.28.12,2.69.2,4.24.25h2.21v-3.4h-2.45c-1.49.05-2.9.2-4.23.46h-.11c-.09,0-.17-.06-.24-.17l-.6-1.19s-.04-.07-.04-.14c0-.12.08-.17.25-.17,1.28.12,2.71.2,4.27.25h5.92c.37-.96.71-1.98,1.01-3.06s.5-2.02.6-2.82c.02-.21.14-.28.35-.21,1.28.4,2.18.71,2.68.94.5.23.75.42.75.56,0,.07-.11.15-.31.25l-.6.25c-1.21,1.49-2.43,2.86-3.64,4.09h3.18l.77-1.05c.09-.12.22-.27.37-.47.15-.2.27-.34.37-.44.09-.09.19-.14.28-.14.19,0,.66.32,1.42.95.76.63,1.22,1.11,1.38,1.44.02.12.01.23-.04.35-.14.23-.4.35-.77.35h-8.01v3.4h3.43l.74-1.01c.09-.12.22-.27.37-.47s.27-.34.37-.44c.09-.09.19-.14.28-.14.19,0,.66.32,1.42.95.76.63,1.22,1.11,1.38,1.44.02.12.01.23-.04.35-.14.26-.41.38-.81.38h-7.14v3.75h4.76l.73-1.08ZM441.93,52.32c.09-.07.22-.08.38-.04,1.42.47,2.47,1.06,3.13,1.77.67.71,1,1.41,1,2.08,0,.44-.12.81-.37,1.1-.25.29-.54.44-.89.44-.3,0-.6-.11-.88-.32-.09-.05-.16-.15-.21-.32-.09-.7-.34-1.45-.75-2.24-.41-.79-.88-1.5-1.42-2.13-.14-.14-.14-.26,0-.35ZM443.64,35.1c.09-.07.22-.08.38-.03,1.38.49,2.4,1.11,3.06,1.85.67.75,1,1.47,1,2.17,0,.47-.13.85-.38,1.14-.26.29-.57.44-.95.44-.3,0-.61-.1-.91-.32-.09-.07-.16-.19-.21-.35-.09-.72-.33-1.49-.7-2.31-.37-.82-.81-1.56-1.29-2.24-.09-.16-.09-.28,0-.35Z"/>
      <path class="cls-3" d="M495.06,57.33c-2.36-1.17-4.39-2.42-6.11-3.75s-3.84-3.28-6.39-5.84c-.56-.56-1.06-.84-1.5-.84s-.96.29-1.54.88c-.4.4-.69.71-.88.94-1.31,1.31-2.21,2.29-2.69,2.94-.75.96-1.41,1.65-1.98,2.08s-1.17.65-1.8.65c-.56,0-1.1-.16-1.61-.49-.51-.33-.93-.71-1.24-1.14-.32-.43-.47-.79-.47-1.07,0-.09.04-.17.11-.25.07-.07.16-.11.28-.11s.31.02.6.05c.28.04.56.05.84.05.44,0,.89-.07,1.33-.21.44-.14,1.01-.46,1.71-.95.72-.51,1.59-1.16,2.59-1.94,1-.78,1.92-1.52,2.76-2.22.68-.56,1.32-.84,1.92-.84s1.29.28,2,.84c1.33,1.12,2.5,2.07,3.5,2.83,1,.77,2.42,1.67,4.24,2.7s3.83,1.89,6.02,2.59c.77.23,1.32.55,1.66.95s.51.82.51,1.26-.15.77-.46,1.05c-.3.28-.72.42-1.26.42-.58,0-1.29-.2-2.13-.59Z"/>
      <rect class="cls-1" x=".32" y=".32" width="686" height="100" rx="5" ry="5"/>
    </g>
  </g>
</svg>