<?xml version="1.0" encoding="UTF-8"?>
<svg id="_レイヤー_2" data-name="レイヤー 2" xmlns="http://www.w3.org/2000/svg" viewBox="0 0 51.48 51.48">
  <defs>
    <style>
      .cls-1 {
        fill: #1a1a1a;
      }
    </style>
  </defs>
  <g id="_テキストデータ" data-name="テキストデータ">
    <path class="cls-1" d="M15.08.18c-2.74.13-4.61.57-6.25,1.21-1.69.66-3.13,1.55-4.55,2.98-1.43,1.43-2.3,2.87-2.96,4.57-.63,1.64-1.06,3.51-1.18,6.25C.02,17.92-.01,18.8,0,25.79c.01,6.99.04,7.87.17,10.61.13,2.74.57,4.61,1.21,6.24.66,1.69,1.54,3.12,2.98,4.55,1.43,1.43,2.87,2.3,4.56,2.96,1.64.63,3.51,1.07,6.25,1.18,2.74.12,3.62.15,10.61.13,6.99-.02,7.87-.04,10.61-.17,2.74-.13,4.61-.57,6.24-1.21,1.69-.66,3.13-1.54,4.55-2.98,1.43-1.43,2.31-2.87,2.96-4.56.63-1.64,1.06-3.51,1.18-6.25.12-2.75.15-3.62.14-10.61-.01-6.99-.04-7.86-.17-10.61-.13-2.74-.57-4.61-1.21-6.24-.66-1.7-1.55-3.13-2.98-4.56-1.43-1.43-2.87-2.3-4.56-2.96-1.64-.63-3.51-1.07-6.25-1.19C33.56.02,32.68,0,25.69,0c-6.99.02-7.87.04-10.61.18M15.38,46.71c-2.51-.11-3.87-.53-4.78-.88-1.2-.47-2.06-1.03-2.96-1.92-.9-.9-1.46-1.75-1.93-2.96-.35-.91-.78-2.27-.9-4.78-.13-2.71-.16-3.53-.17-10.4-.01-6.87.01-7.69.13-10.4.11-2.51.53-3.87.88-4.78.46-1.2,1.02-2.06,1.92-2.96.9-.9,1.76-1.46,2.96-1.93.91-.35,2.27-.78,4.77-.9,2.71-.13,3.53-.16,10.4-.17,6.87-.01,7.69,0,10.4.13,2.51.11,3.87.53,4.78.88,1.2.47,2.06,1.02,2.96,1.92.9.9,1.46,1.76,1.93,2.96.35.9.77,2.27.89,4.77.13,2.71.16,3.53.17,10.4.01,6.87-.01,7.69-.13,10.4-.11,2.51-.53,3.87-.88,4.78-.46,1.2-1.02,2.06-1.92,2.96-.9.9-1.75,1.46-2.96,1.93-.9.35-2.27.78-4.77.89-2.71.13-3.53.16-10.4.17-6.87.01-7.68-.01-10.4-.13M36.36,11.98c0,1.71,1.39,3.09,3.09,3.08,1.71,0,3.09-1.39,3.08-3.09,0-1.71-1.39-3.09-3.09-3.08-1.71,0-3.09,1.39-3.08,3.09M12.52,25.76c.01,7.3,5.94,13.2,13.24,13.19,7.3-.01,13.21-5.94,13.19-13.24-.02-7.3-5.94-13.2-13.24-13.19-7.3.01-13.2,5.95-13.19,13.24M17.16,25.75c0-4.74,3.83-8.59,8.56-8.6,4.74,0,8.59,3.82,8.6,8.56,0,4.74-3.82,8.59-8.56,8.6-4.74,0-8.59-3.82-8.6-8.56"/>
  </g>
</svg>