<?xml version="1.0" encoding="UTF-8"?>
<svg id="_レイヤー_2" data-name="レイヤー 2" xmlns="http://www.w3.org/2000/svg" viewBox="0 0 686.64 100.64">
  <defs>
    <style>
      .cls-1 {
        stroke-width: .64px;
      }

      .cls-1, .cls-2 {
        fill: none;
        stroke: #1a1a1a;
        stroke-miterlimit: 10;
      }

      .cls-3 {
        fill: #1a1a1a;
      }
    </style>
  </defs>
  <g id="_テキストデータ" data-name="テキストデータ">
    <g>
      <polyline class="cls-2" points="625.14 37 642.97 50.32 625.14 63.64"/>
      <path class="cls-3" d="M53.8,44.18c-3,2.37-6.11,4.23-9.33,5.58-.16.07-.28.02-.35-.14-.09-.16-.06-.29.1-.38,1.84-1.05,3.7-2.4,5.56-4.06,1.87-1.66,3.51-3.39,4.94-5.21,1.42-1.82,2.42-3.49,2.98-5,.07-.16.19-.22.35-.17l4.2,1.05c.09.02.16.06.21.12.05.06.04.13-.04.23-.19.21-.63.35-1.33.42,1.42,1.96,3.41,3.77,5.97,5.42,2.56,1.66,5.24,2.97,8.07,3.96.19.05.26.15.21.32v.03c-.02.14-.1.25-.24.32-.51.19-.96.5-1.33.93-.37.43-.64.9-.81,1.42-.07.21-.2.26-.38.14-2.61-1.33-5.01-3.07-7.18-5.23-2.17-2.16-3.79-4.45-4.86-6.88-1.49,2.4-3.74,4.79-6.74,7.16ZM67.18,62.05c-1.19-1.8-2.53-3.42-4.02-4.87-.12-.12-.12-.23,0-.35.09-.09.22-.1.38-.03,2.01.84,3.65,1.78,4.94,2.82,1.28,1.04,2.21,2.05,2.77,3.03.56.98.84,1.87.84,2.66,0,.56-.13,1.01-.38,1.35-.26.34-.58.51-.98.51-.3,0-.65-.13-1.05-.38-.09-.05-.17-.14-.25-.28-.35-1.17-.94-2.39-1.78-3.67-4.48.93-10.68,2.02-18.58,3.25-.12.26-.34.48-.67.67l-.1.04c-.07,0-.15-.07-.25-.21l-1.4-3.01-.04-.14c0-.12.08-.17.25-.17,1.7-.05,3.42-.13,5.15-.25.56-1.24,1.13-2.66,1.71-4.27.58-1.61,1.06-3.1,1.44-4.48h-3.54c-1.49.02-3.16.17-5,.46h-.1c-.09,0-.17-.06-.25-.17l-.63-1.22s-.04-.07-.04-.14c0-.12.08-.17.25-.17,1.28.12,2.71.2,4.27.25h18.31l.88-1.19c.09-.12.23-.29.4-.52s.31-.41.42-.53c.1-.12.2-.17.3-.17.21,0,.76.37,1.66,1.1.9.73,1.44,1.27,1.63,1.59.07.12.07.23,0,.35-.14.26-.43.38-.88.38h-14.03c-.79,1.49-1.67,3.02-2.62,4.58-.96,1.56-1.88,2.93-2.77,4.1,3.22-.16,7.82-.46,13.79-.88ZM56.68,47.98c-1.56.05-3.07.2-4.52.46h-.1c-.09,0-.17-.06-.25-.18l-.59-1.22s-.04-.07-.04-.14c0-.12.08-.17.25-.17,1.28.12,2.71.2,4.27.24h7.07l.84-1.15c.12-.14.24-.3.37-.47.13-.18.26-.33.39-.47.13-.14.24-.21.33-.21.21,0,.74.34,1.59,1.03.85.69,1.37,1.21,1.56,1.56.02.05.03.1.03.17,0,.19-.09.33-.26.42-.18.09-.39.14-.65.14h-10.29Z"/>
      <path class="cls-3" d="M94.26,60.35c.08-.01.16,0,.23.05l1.85,1.26c1.07.42,1.61.74,1.61.95,0,.14-.18.25-.53.32l-.84.14c-1.52.91-3.35,1.73-5.5,2.47-2.15.73-4.41,1.26-6.79,1.59h-.1c-.09,0-.17-.06-.24-.17-.02-.02-.04-.07-.04-.14,0-.09.07-.16.21-.21,1.56-.51,3.24-1.24,5.04-2.17,2.24-1.21,3.87-2.53,4.9-3.96.05-.07.11-.11.19-.12ZM107.99,45.01c.07-.09.17-.23.3-.4.13-.17.24-.31.33-.4s.19-.14.28-.14c.19,0,.67.33,1.45.98s1.27,1.16,1.45,1.5c.07.12.05.23-.07.35-.3.28-.72.47-1.26.56v4.55c.05,2.92.14,5.59.28,8.02,0,.14-.05.26-.14.35-.23.21-.61.41-1.12.59-.51.19-.97.28-1.37.28h-.14c-.19,0-.28-.09-.28-.28v-1.08h-17.22v1.05c0,.19-.25.4-.75.63-.5.23-1.01.35-1.52.35-.21,0-.39-.07-.53-.21-.14-.14-.21-.3-.21-.49.14-2.03.23-4.08.28-6.16v-3.43c0-2.75-.13-5.02-.39-6.79v-.07c0-.16.09-.21.28-.14l3.04,1.29h16.66l.63-.91ZM106.63,35.84c.07-.09.17-.23.3-.4.13-.17.23-.3.31-.38.08-.08.17-.12.26-.12.21,0,.69.32,1.45.96.76.64,1.23,1.14,1.42,1.49.07.09.05.2-.07.32-.3.3-.72.49-1.26.56v1.75l.07,1.44c0,.37.02.93.07,1.68v.11c0,.21-.28.44-.84.68-.56.25-1.07.37-1.54.37h-.18c-.19,0-.28-.09-.28-.28v-.91h-14.6v.74c0,.14-.26.32-.79.54-.52.22-1.03.33-1.52.33-.16,0-.29-.07-.38-.21-.09-.14-.14-.3-.14-.49.07-.51.12-1.05.14-1.61,0-.3.01-.56.04-.77v-1.54c0-1.66-.07-3.13-.21-4.41v-.07c0-.09.02-.15.07-.17.05-.02.12-.01.21.04l2.77,1.29h14.1l.59-.91ZM107.71,50.12v-3.19h-17.22v3.19h17.22ZM90.49,54.49h17.22v-3.33h-17.22v3.33ZM90.49,55.51v3.36h17.22v-3.36h-17.22ZM106.35,42.07v-4.31h-14.6v4.31h14.6ZM101.47,61.86c-.03-.08-.03-.16.02-.23v-.03c.05-.14.16-.21.35-.21,2.59.12,4.74.44,6.46.96s2.96,1.14,3.75,1.84c.78.7,1.17,1.35,1.17,1.96,0,.33-.12.58-.35.77-.23.19-.54.28-.91.28-.21,0-.35-.04-.42-.11-1.1-.86-2.61-1.79-4.55-2.78-1.94-.99-3.71-1.75-5.32-2.29-.09-.02-.16-.08-.19-.16Z"/>
      <path class="cls-3" d="M129.31,54.18c0-1.87-.09-3.55-.28-5.04-1.84,1.42-3.87,2.59-6.09,3.5-.16.07-.29.04-.38-.1l-.04-.04c-.12-.19-.09-.32.07-.38,2.8-1.7,5.26-3.87,7.39-6.51-.07.02-.19.04-.35.04-.33,0-.63-.09-.91-.28-.09-.05-.16-.14-.21-.28-.21-.72-.61-1.47-1.21-2.24-.59-.77-1.23-1.4-1.91-1.89-.14-.12-.18-.23-.1-.35.09-.09.21-.13.35-.11,1.89.28,3.27.79,4.15,1.52s1.28,1.49,1.21,2.26c1.35-1.94,2.41-3.91,3.18-5.92h-2.52c-1.49.05-2.93.2-4.3.46h-.07c-.12,0-.21-.06-.28-.18l-.63-1.19-.04-.14c0-.12.08-.17.25-.17,1.26.12,2.67.2,4.23.25h3.33l.77-.8c.09-.09.25-.26.47-.49.22-.23.4-.35.54-.35.19,0,.63.3,1.33.91.7.61,1.13,1.08,1.29,1.43.07.12.05.23-.07.35-.23.19-.67.29-1.29.31-1.19,2.68-2.74,5.08-4.66,7.17,1.24.12,2.67.2,4.31.25h3.12l.7-1.01c.07-.09.18-.24.31-.44.14-.2.26-.35.37-.46.1-.11.2-.16.3-.16.19,0,.66.31,1.42.93s1.22,1.09,1.38,1.42l.03.14c0,.19-.09.33-.26.44-.18.11-.39.16-.65.16h-7.25c-1,.02-2,.16-2.98.42-.19.05-.3,0-.35-.14l-.67-1.33c-.93,1-1.99,1.97-3.19,2.91l3.05,1.37h12.15l.63-.84c.09-.12.23-.29.4-.52.18-.23.33-.35.47-.35.19,0,.65.3,1.38.91.73.61,1.2,1.09,1.38,1.44.07.09.05.2-.07.31-.3.26-.68.43-1.12.53v2.06l.04,1.23c.02.96.07,1.8.14,2.52,0,.09-.04.2-.1.31-.21.21-.56.4-1.05.58-.49.17-.93.26-1.33.26h-.14c-.19,0-.28-.09-.28-.28v-1.16h-12.67v1.01c0,.14-.26.31-.77.53-.51.21-1.03.31-1.54.31-.19,0-.33-.07-.42-.21s-.14-.3-.14-.49c.07-.61.12-1.2.14-1.79,0-.35.01-.64.04-.88v-1.71ZM151.94,63.85c.88.76,1.41,1.31,1.59,1.66.07.12.07.23,0,.35-.14.23-.41.35-.8.35h-23.45c-1.49.02-3.16.18-5,.46h-.1c-.09,0-.17-.06-.25-.17l-.59-1.19s-.04-.07-.04-.14c0-.12.08-.17.25-.17,1.28.12,2.71.2,4.27.25h12.42c.4-1.03.74-2.14,1.03-3.33.29-1.19.48-2.25.58-3.19.05-.21.16-.28.35-.21,2.45.84,3.68,1.41,3.68,1.71,0,.07-.11.15-.32.24l-.63.21c-1.21,1.66-2.47,3.17-3.78,4.55h7.21l.84-1.26c.07-.12.19-.3.37-.54.17-.25.32-.42.44-.54.12-.12.22-.18.31-.18.21,0,.75.38,1.63,1.14ZM131.48,58.9c.09-.05.22-.05.39,0,1.4.51,2.43,1.15,3.1,1.92s1,1.53,1,2.27c0,.51-.15.95-.44,1.3-.29.35-.65.52-1.07.52-.35,0-.69-.13-1.02-.38-.12-.09-.17-.21-.17-.35-.05-.82-.25-1.67-.6-2.56-.35-.89-.76-1.68-1.23-2.38-.12-.14-.1-.26.04-.35ZM144.67,51.41h-12.67v4.97h12.67v-4.97ZM154.19,49.66c.14.07.21.15.21.25,0,.14-.09.23-.28.28-1,.21-1.74.85-2.21,1.92-.05.09-.1.15-.16.17-.06.02-.12.01-.19-.04-3.03-1.73-5.59-4-7.67-6.81-2.08-2.81-3.6-6.17-4.58-10.06v-.1c0-.09.05-.18.14-.25l.07-.04c.09-.05.15-.07.18-.07.12,0,.19.07.21.21.65,2.05,1.68,4.04,3.08,5.95.72-.72,1.42-1.54,2.1-2.47.68-.92,1.19-1.77,1.54-2.54.07-.19.2-.22.39-.11,1.84,1.24,2.77,2,2.77,2.28,0,.12-.1.18-.31.18l-.6.03c-1.56,1.19-3.34,2.31-5.32,3.36.7.89,1.63,1.88,2.8,2.97.77-.7,1.51-1.5,2.22-2.4.71-.9,1.25-1.73,1.63-2.5.12-.19.26-.22.42-.11,1.84,1.26,2.77,2.05,2.77,2.38,0,.07-.1.13-.31.18l-.6.03c-1.7,1.17-3.5,2.18-5.39,3.05,2.03,1.7,4.4,3.11,7.1,4.23Z"/>
      <path class="cls-3" d="M175.02,59.81c.14,0,.23.06.28.17v.1c0,.12-.05.21-.14.28-3.48,1.98-6.94,3.85-10.4,5.6-.07.35-.21.61-.42.77-.02.02-.07.04-.14.04-.14,0-.22-.05-.25-.14l-1.65-2.62c-.05-.09-.06-.17-.04-.23.02-.06.08-.1.18-.12,1.03-.28,2.71-.77,5.04-1.47v-10.64h-1.61c-.84.02-1.67.16-2.48.42h-.1c-.09,0-.17-.06-.25-.18l-.59-1.15s-.04-.11-.04-.18c0-.12.08-.16.25-.14,1.05.09,2.1.16,3.15.21h1.68v-4.45h-.91c-.4.05-.76.16-1.08.35-.19.07-.31.03-.38-.11l-.6-1.19c-.72.82-1.53,1.6-2.42,2.34-.09.09-.22.09-.38,0-.16-.12-.19-.25-.07-.38,1.12-1.49,2.22-3.37,3.29-5.63.47-1.03.88-2.14,1.24-3.33.36-1.19.59-2.25.68-3.19.02-.09.06-.16.12-.19s.13-.04.23-.02l3.54,1.37c.09.05.15.1.17.16.02.06.01.12-.03.19-.21.26-.57.4-1.08.42,1.91.72,3.3,1.52,4.17,2.38.86.86,1.29,1.67,1.29,2.41,0,.42-.12.77-.37,1.03-.25.27-.54.4-.89.4-.28,0-.55-.08-.8-.25-.12-.07-.19-.16-.21-.28-.3-.75-.77-1.57-1.4-2.47-.63-.9-1.35-1.77-2.17-2.61-.54,1.24-1.21,2.5-2.01,3.78-.81,1.28-1.69,2.47-2.64,3.57,1.05.12,2.25.2,3.6.25h1.85l.67-1.01c.07-.09.17-.24.3-.44.13-.2.24-.34.33-.44.09-.09.19-.14.28-.14.19,0,.62.3,1.3.89.68.59,1.1,1.06,1.26,1.38.02.12.01.23-.04.35-.14.26-.42.38-.84.38h-3.64v4.45h1.51l.63-1.05c.07-.09.17-.24.3-.44.13-.2.24-.35.33-.46.09-.1.19-.16.28-.16.19,0,.62.31,1.3.94.68.63,1.1,1.11,1.26,1.44.02.05.04.1.04.17,0,.16-.09.3-.26.4-.17.11-.38.16-.61.16h-4.76v9.9c1.47-.44,3.17-.99,5.11-1.64h.07ZM164.27,60.55c-.07-.07-.1-.15-.1-.24l.04-1.16c0-1.73-.28-3.54-.84-5.42v-.07c0-.14.06-.23.17-.28h.04l.14-.04c.07,0,.15.05.25.14.86.91,1.49,1.82,1.87,2.73.38.91.58,1.76.58,2.55,0,.65-.13,1.19-.39,1.59-.26.41-.56.61-.91.61-.28,0-.56-.14-.84-.42ZM171.1,60.2l-.07-.04-.28-.14s.01-.04.04-.04c.23-1.07.41-2.23.52-3.48.12-1.25.16-2.35.14-3.31,0-.09.03-.17.09-.23.06-.06.13-.06.23-.02l1.78.63c.98.19,1.47.4,1.47.63,0,.12-.13.23-.39.35l-.59.28c-1.03,2.45-1.88,4.19-2.56,5.21-.09.14-.22.19-.38.14ZM193.39,61.98c.12.07.17.15.17.24s-.03.16-.09.21c-.06.05-.12.08-.19.1-.4.14-.75.39-1.05.75-.3.36-.54.81-.7,1.35-.07.21-.2.24-.39.1-1.59-1.54-2.86-3.29-3.83-5.25s-1.71-4.48-2.22-7.56v11.41c0,1.12-.21,1.98-.63,2.57-.42.59-1.27.99-2.56,1.17h-.07c-.16,0-.25-.08-.25-.24-.07-.82-.25-1.38-.52-1.68-.37-.44-1.03-.75-1.96-.91-.19-.05-.28-.14-.28-.28,0-.16.07-.24.21-.24l1.61.07,1.19.07c.26,0,.43-.05.51-.14.08-.09.12-.26.12-.49v-6.44c-2.1,2.47-4.14,4.76-6.12,6.86,0,.35-.08.64-.25.88-.02.07-.08.11-.17.11s-.16-.04-.21-.11l-2-2.13c-.07-.07-.1-.15-.09-.23.01-.08.05-.15.12-.19.91-.56,2.18-1.39,3.82-2.49,1.63-1.1,3.27-2.24,4.9-3.43v-7.7h-2.42c-1.49.05-2.91.2-4.23.46h-.1c-.09,0-.18-.06-.25-.17l-.63-1.23s-.04-.07-.04-.14c0-.12.08-.17.25-.17,1.28.12,2.71.2,4.27.24h7.67v-4.23h-3.5c-1.49.02-3.16.17-5.01.46h-.07c-.12,0-.21-.06-.28-.17l-.63-1.23-.03-.14c0-.12.08-.17.24-.17,1.26.12,2.67.2,4.24.24h5.04v-3.95h-4.31c-1.49.02-3.16.17-5,.45h-.1c-.09,0-.18-.06-.25-.17l-.67-1.26s-.04-.07-.04-.14c0-.12.09-.18.28-.18,1.26.12,2.67.2,4.23.25h5.5l.63-.74c.09-.09.23-.24.4-.44.18-.2.33-.3.47-.3.21,0,.65.26,1.31.79.67.53,1.08.95,1.24,1.28.07.09.05.2-.07.31-.28.19-.65.34-1.12.46v8.89h.21l.59-1.05c.05-.09.13-.24.25-.44.12-.2.22-.35.31-.46.09-.11.19-.16.28-.16.19,0,.58.32,1.17.95.59.63.96,1.11,1.1,1.43.02.12.02.23,0,.35-.14.26-.4.38-.77.38h-7.56v.77c.4,2.26,1.03,4.31,1.89,6.12.56-.82,1.1-1.73,1.61-2.75.51-1.01.89-1.94,1.12-2.78.07-.21.2-.26.38-.14,1.91,1.19,2.87,1.91,2.87,2.17,0,.09-.1.16-.31.21l-.6.07c-.54.54-1.25,1.17-2.13,1.89-.89.72-1.75,1.39-2.59,2,1.45,2.57,3.47,4.58,6.06,6.05ZM180.37,55.58c-.23.28-.51.42-.84.42-.28,0-.58-.1-.91-.32-.07-.07-.13-.17-.17-.31-.14-.75-.43-1.55-.88-2.42-.44-.86-.93-1.66-1.47-2.38-.12-.16-.12-.28,0-.35.02-.02.07-.04.14-.04.16,0,.35.05.56.14,1.35.61,2.34,1.29,2.97,2.05.63.76.95,1.48.95,2.15,0,.42-.12.77-.35,1.05Z"/>
      <path class="cls-3" d="M207.85,63.91c-.44-.42-.78-.91-1.02-1.47-.91-2.29-1.36-5.06-1.36-8.33,0-1.54.12-2.91.35-4.11.23-1.2.55-2.48.95-3.83.26-.91.44-1.63.56-2.15.12-.53.17-1.04.17-1.56s-.09-.99-.26-1.49c-.17-.5-.41-.9-.72-1.21-.05-.05-.12-.12-.21-.23-.09-.1-.14-.2-.14-.3s.07-.14.21-.14.33.06.56.18c.93.47,1.69,1.06,2.27,1.77.58.71.88,1.64.88,2.78,0,.56-.1,1.13-.31,1.71s-.52,1.26-.94,2.03c-.23.47-.47.96-.7,1.49-.23.52-.41,1.02-.52,1.49-.23.84-.35,1.74-.35,2.7,0,.58.06,1.13.18,1.63.12.5.27.75.45.75.09,0,.2-.1.33-.3.13-.2.22-.33.26-.4l1.92-3.96c.16-.26.29-.38.39-.38.07,0,.1.05.1.14l-.1.42c-.35.93-.72,2.08-1.1,3.45-.38,1.36-.58,2.48-.58,3.34,0,.61.06,1.21.18,1.82.12.61.28,1.35.49,2.24.21.79.31,1.28.31,1.47,0,.35-.1.62-.3.8-.2.19-.44.28-.72.28-.37,0-.78-.21-1.23-.63ZM217.95,62.17c-1.36-.57-2.34-1.62-2.92-3.13-.16-.4-.25-.67-.25-.8,0-.09.05-.14.14-.14.07,0,.16.05.28.14.12.09.21.16.28.21.91.72,1.96,1.22,3.15,1.5.56.14,1.35.21,2.38.21,1.12,0,2.58-.13,4.38-.38.89-.09,1.37-.14,1.44-.14.63,0,1.13.16,1.51.49.37.33.56.69.56,1.08,0,.75-.57,1.24-1.7,1.47-1.13.23-2.57.35-4.32.35-1.91,0-3.55-.29-4.92-.86ZM218.7,44.45c-.75-.26-1.39-.6-1.93-1.03-.54-.43-.91-.86-1.12-1.28-.09-.19-.14-.34-.14-.46,0-.09.03-.14.1-.14.05,0,.16.06.35.17.19.12.35.21.49.28.79.33,1.69.49,2.69.49.65,0,1.51-.07,2.56-.21,1.05-.14,1.95-.3,2.69-.49.35-.12.64-.17.88-.17.54,0,1.02.15,1.44.44s.63.64.63,1.03c0,.63-.6,1.09-1.79,1.38s-2.45.44-3.78.44c-1.21,0-2.24-.15-3.08-.46Z"/>
      <path class="cls-3" d="M251.32,62.58c0-.19.16-.3.49-.35,2.82-.28,5.39-1,7.7-2.15,2.31-1.15,4.13-2.59,5.46-4.3,1.33-1.71,1.99-3.49,1.99-5.34,0-1.31-.29-2.42-.86-3.34s-1.31-1.62-2.22-2.08c-.91-.47-1.87-.7-2.87-.7-1.38,0-2.82.37-4.34,1.12-1.52.75-2.73,1.46-3.64,2.13-.91.68-1.88,1.43-2.91,2.27-.12.09-.43.35-.94.77-.51.42-1.04.78-1.59,1.07s-1.04.44-1.49.44c-.68,0-1.36-.24-2.06-.72-.7-.48-1.27-.97-1.71-1.49-.35-.33-.53-.58-.53-.77,0-.12.03-.19.09-.23.06-.04.17-.05.33-.05.14,0,.45.04.94.1.49.07.89.11,1.19.11.7,0,1.4-.17,2.1-.51.7-.34,1.66-.88,2.87-1.63,1.31-.79,2.45-1.45,3.43-1.96.98-.51,2.14-.96,3.47-1.33,1.33-.37,2.78-.56,4.34-.56s3.16.36,4.57,1.08c1.41.72,2.54,1.74,3.38,3.04.84,1.31,1.26,2.79,1.26,4.45,0,1.26-.39,2.66-1.17,4.2s-2.5,3.02-5.15,4.43-6.52,2.27-11.6,2.57c-.35,0-.53-.09-.53-.28Z"/>
      <path class="cls-3" d="M290.24,62.82c-.77-.37-1.6-.95-2.49-1.71-2.33-2.05-3.5-5.15-3.5-9.28,0-.93.1-2.18.31-3.75.14-1.03.21-1.73.21-2.1,0-.68-.1-1.28-.31-1.8-.21-.52-.56-1-1.05-1.42-.19-.16-.28-.27-.28-.32,0-.07.07-.13.21-.17.14-.05.29-.07.45-.07.58,0,1.18.15,1.79.44.61.29,1.1.69,1.49,1.19.39.5.58,1.03.58,1.59,0,.42-.14,1.19-.42,2.31-.26,1.14-.44,2.05-.56,2.73-.12.68-.17,1.38-.17,2.1,0,1.17.22,2.26.65,3.29.43,1.03.94,1.85,1.54,2.47.59.62,1.13.93,1.59.93.3,0,.5-.22.6-.67.49-1.91.91-3.33,1.26-4.24l.14-.28c.07-.14.15-.26.23-.37.08-.11.16-.16.23-.16s.1.07.1.21c0,.23-.04.46-.1.67-.26,1.33-.39,2.42-.39,3.26,0,.72.07,1.36.21,1.92.07.33.22.75.46,1.26.26.51.39.94.39,1.29,0,.37-.11.67-.33.89-.22.22-.52.33-.89.33-.51,0-1.16-.19-1.92-.56ZM305.94,54.04c-.25-.26-.43-.61-.54-1.05-.77-2.96-1.79-4.77-3.04-5.42-.54-.28-1.28-.42-2.24-.42h-.59c-.21,0-.31-.06-.31-.18s.13-.22.38-.31c.7-.23,1.45-.35,2.24-.35,1.66,0,3.11.55,4.38,1.64.86.77,1.48,1.58,1.84,2.42.36.84.54,1.52.54,2.03,0,.56-.15,1.04-.44,1.43-.29.4-.67.59-1.14.59s-.82-.13-1.07-.38Z"/>
      <path class="cls-3" d="M346.05,39.39c.74.48,1.1,1.03,1.1,1.66,0,.3-.1.55-.3.73-.2.19-.44.28-.72.28-.35,0-.94-.07-1.78-.21-.98-.19-1.73-.28-2.24-.28-.61,0-1.2.07-1.77.21-.57.14-1.02.27-1.35.38-1,.44-1.89,1.42-2.66,2.92s-1.37,3.18-1.8,5.04c-.43,1.86-.65,3.49-.65,4.92,0,2.31.36,3.92,1.07,4.83.71.91,1.87,1.37,3.48,1.37l.94-.07c.7-.09,1.25-.14,1.65-.14.84,0,1.5.13,2,.38.49.26.74.63.74,1.12,0,.7-.47,1.16-1.42,1.37-.94.21-1.93.32-2.96.32-2.89,0-4.94-.72-6.12-2.15-1.19-1.43-1.78-3.7-1.78-6.81,0-2.8.6-5.37,1.8-7.72,1.2-2.35,2.71-4.25,4.53-5.72-.07,0-.22.02-.46.07-.82.14-2.05.54-3.69,1.21s-3.3,1.39-4.95,2.19c-.28.16-.52.31-.73.44-.21.13-.4.24-.56.33-.49.35-.91.61-1.26.77s-.73.25-1.15.25c-.68,0-1.38-.33-2.1-1-.72-.66-1.23-1.3-1.5-1.91-.09-.16-.14-.32-.14-.46,0-.21.1-.31.31-.31.14,0,.29.05.46.14.33.19.62.33.89.44.27.11.58.16.93.16.14,0,.35-.02.63-.07.19-.05.96-.29,2.31-.74,2.4-.84,4.69-1.58,6.86-2.22s4.15-1.08,5.95-1.31c.54-.07,1.2-.27,2-.59.44-.19.82-.32,1.12-.4.3-.08.63-.12.98-.12.84,0,1.63.24,2.36.72Z"/>
      <rect class="cls-1" x=".32" y=".32" width="686" height="100" rx="5" ry="5"/>
    </g>
  </g>
</svg>