<?xml version="1.0" encoding="UTF-8"?>
<svg id="_レイヤー_2" data-name="レイヤー 2" xmlns="http://www.w3.org/2000/svg" viewBox="0 0 409 64">
  <defs>
    <style>
      .cls-1 {
        fill: none;
        stroke: #dcb259;
        stroke-miterlimit: 10;
        stroke-width: 1.79px;
      }

      .cls-2 {
        fill: #dcb259;
      }

      .cls-3 {
        fill: #fff;
      }
    </style>
  </defs>
  <g id="_テキストデータ" data-name="テキストデータ">
    <g>
      <rect class="cls-2" y="0" width="409" height="64" rx="28" ry="28"/>
      <g>
        <path class="cls-3" d="M84.25,40.18c-1.48.87-6.21.87-7.74.87-2.87,0-5.8-.12-7.95-1.36-1.28-.73-2.93-2.2-2.93-4.38,0-.84.46-2.96,1.86-3.71-.35,1.22-.35,2.12-.35,2.26,0,1.97,1.45,4.82,7.11,4.82,2.32,0,5.22-.2,7.4-.9.2-.06.35-.09.61-.09.96,0,2.58.58,2.58,1.51,0,.52-.38.87-.58.99ZM80.51,25.5c-.29,0-1.65-.06-1.91-.06-2.12,0-3.45.52-6.79,1.91l-.12-.17c.46-.46,3.19-2.52,3.19-2.64s-2.23-.46-2.61-.55c-.26-.06-3.86-.84-3.77-3.83,1.51,1.6,3.22,2.15,7.19,2.15.49,0,2.61-.03,3.02,0,1.02.06,3.22.7,3.22,2.06,0,1.02-.99,1.13-1.42,1.13Z"/>
        <path class="cls-3" d="M110.15,24.69c-1.57.96-3.97,1.62-5.25,1.94-2.12,5.8-3.6,9.92-5.57,14.24-.29.61-.61,1.28-1.42,1.28-.32,0-1.28-.32-1.28-1.48,0-.55.15-.78,1.42-2.9,1.31-2.15,2.61-4.32,4.79-10.67-.55.12-2.26.49-3.45.49-1.8,0-2.87-1.25-3.1-2.32,1.04.35,1.68.55,2.67.55,1.65,0,3.54-.49,4.52-.75.12-.38.78-2.84.78-3.68,0-1.02-.35-1.19-2.03-2,.49-.35,1.1-.55,1.71-.55,1.36,0,3.22,1.31,3.22,2.38,0,.26-.46,1.16-.78,1.77-.26.55-.46.99-.61,1.33,1.33-.52,1.45-.61,2.32-1.22.32-.23.55-.35.93-.35.61,0,1.57.49,1.57,1.22,0,.32-.15.55-.44.73ZM118.5,41.89c-.78.35-3.74.44-4.64.44-3.71,0-7.31-1.36-7.31-4.26,0-.17,0-1.54.84-2.67.26,3.34,1.33,4.41,5.95,4.41.93,0,1.62-.03,3.02-.2.75-.12.84-.12,1.02-.12.78,0,1.8.64,1.8,1.48,0,.49-.44.84-.67.93ZM118.41,30.17c-.38,0-2.18-.26-2.26-.26-.32,0-2.49.49-4.09,1.31l-.09-.12c.49-.46.67-.61,2.12-1.71.55-.41.61-.44.61-.67,0-.84-2.18-.87-4.96-.93,1.19-1.13,3.86-1.39,4.73-1.39,2.76,0,4.93,1.6,4.93,2.81,0,.96-.75.96-.99.96ZM117.11,24.72c-.49,0-.58-.09-1.54-1.31-.61-.78-1.74-1.74-2.9-2.58,1.31.15,5.42.64,5.42,2.76,0,.58-.38,1.13-.99,1.13ZM119.75,22.4c-.41,0-.44-.03-1.6-1.28-.23-.23-1.65-1.62-3.16-2.32,1.36-.12,5.66.2,5.66,2.44,0,.52-.26,1.16-.9,1.16Z"/>
        <path class="cls-3" d="M139.9,40.41v-.2c6.9-1.42,9.77-5.22,9.77-8.53,0-3.1-2.87-4.24-4.44-4.24-2.15,0-5.42,1.13-8.82,4.21-.03.38-.03,1.02,0,1.97.03.9.49,5.51.49,5.6,0,.58-.17,3.34-1.39,3.34-.81,0-.87-.67-.99-2-.06-.52-.73-2.76-.84-3.22l.09-.03c.2.15,1.02.7,1.19.7.15,0,.2-.17.2-.35,0-.52-.09-2.81-.09-3.28v-1.39c-.64.73-1.86,2.12-3.31,5.08-.35.67-.78,1.54-1.39,1.54-.87,0-.96-.9-.96-1.28,0-.87.32-1.22,1.48-2.49.9-.99,2.93-3.68,4.29-7.02.03-.2.09-1.25.12-1.45-.29-.06-2,1.02-2.09,1.07-1.07.78-1.19.87-1.6.87-1.16,0-2.06-1.39-2.06-2.76,0-.49.09-.64.2-.84.44.61.9,1.19,2.12,1.19.96,0,2.87-.87,3.54-1.19.03-.61.26-3.51.26-3.92,0-.46-.06-1.1-.41-1.39-.15-.12-1.02-.64-1.51-.96.29-.15.78-.44,1.54-.44,1.42,0,3.25,1.22,3.25,2.06,0,.41-.29.87-.7,1.62-.64,1.16-.73,1.6-.84,2.15.06,0,2.29.41,2.29,1.07,0,.44-.7,1.31-1.1,1.74-.87,1.02-1.48,1.97-1.74,2.47,0,.12-.03.29-.03.44,4.29-3.54,7.28-4.35,9.69-4.35,1.83,0,6.03,1.04,6.03,5.77,0,6.44-6.9,8.82-12.27,8.44Z"/>
        <path class="cls-3" d="M175.19,41.6c-1.48,1.39-3.54,2.73-4.81,2.99l-.12-.12c6.03-4.41,6.58-11.05,6.58-14.68,0-1.97-.17-6.79-2.35-6.79-1.02,0-1.83.93-2.9,3.05-1.36,2.7-1.91,5.37-1.91,6.87,0,.46.32,2.49.32,2.93,0,.29,0,1.1-.96,1.1-1.16,0-2.38-2.06-2.38-5.57,0-1.86.2-4.06.49-6,.09-.61.58-3.42.58-3.95,0-.32-.06-1.71-1.6-2.58.55-.2,1.19-.41,1.65-.41.87,0,2.55,1.04,2.55,2.26,0,.44-.12.75-.38,1.28-1.19,2.44-1.74,4.5-1.74,7.43,0,.35,0,1.89.2,1.89.15,0,.2-.17.26-.29,1.48-4.5,3.57-9.51,6.53-9.51,3.83,0,4.18,6.03,4.18,8.79,0,5.51-1.28,8.56-4.21,11.31Z"/>
        <path class="cls-3" d="M200.13,35.37c-.41,2.12-.58,3.13-.58,3.8,0,.32.17,1.68.17,1.97,0,.9-.12,1.48-.93,1.48-1.71,0-3.34-3.51-3.34-8.59,0-1.86.26-4.24,1.16-9.02.15-.84.2-1.62.2-1.94,0-.93-.23-1.65-1.13-2.78.2-.12.41-.23.75-.23,1.04,0,3.22,1.77,3.22,2.84,0,.52-.29,1.19-.41,1.45-1.22,2.76-2.23,5.05-2.23,8.47,0,1.86.49,4.15,1.02,4.15.2,0,.35-.35.44-.58.26-.81,1.71-4.61,2.55-6.18h.2c-.15.81-.96,4.44-1.1,5.16ZM214.03,40.12c-6.99,0-9.8-1.25-9.8-4.9,0-.96.23-1.25.41-1.51.49,2.06.96,3.92,6.32,3.92.61,0,3.31-.2,3.86-.2,2.06,0,2.44.99,2.44,1.45,0,1.25-1.59,1.25-3.22,1.25ZM214,24.92c-3.08.52-5.19,1.65-5.71,2.09l-.2-.17c.38-.44,2.5-2.38,2.5-2.61,0-.41-.93-.41-1.16-.41-1.77,0-4.32,1.04-5.08,1.33.99-2.32,5.05-3.19,7.83-3.19,1.28,0,3.66.41,3.66,1.74,0,.61-.38.99-1.83,1.22Z"/>
        <path class="cls-3" d="M235.83,39.31c-2.09,0-3.25-.17-3.89-.29v-.23c7.46-.17,15.17-3.19,15.17-8.76,0-2.7-2.46-5.25-5.92-5.25s-6.67,1.6-10.76,5.37c-.15.12-.67.73-.78.84-.29.29-.52.44-.9.44-1.36,0-3.1-1.74-3.1-3.65,0-.61.17-1.31.26-1.68.9,1.28,1.36,1.94,2.12,1.94.52,0,.96-.2,2.15-.78,4.09-2,7.28-3.54,11.2-3.54s8.44,2.26,8.44,6.87c0,4.84-5.02,8.73-13.98,8.73Z"/>
        <path class="cls-3" d="M269.06,33.42c-.26.64-1.65,3.6-1.65,4.09,0,.26.29,1.51.29,1.77,0,.87-.55,1.28-1.1,1.28-.78,0-5.28-1.45-5.74-10.15-.03-.64-.12-3.42-.2-3.97-.2-1.54-.55-2.23-1.19-3.51,1.45.09,4.06,1.04,4.06,3.48,0,.17-.03.35-.09.67-.06.41-.58,3.36-.58,4.7,0,3.02,1.71,4.87,2.32,4.87.26,0,.52-.38.7-.61,1.57-2.26,3.16-4.53,4.64-6.9l.2.09c-.15.35-.29.75-1.65,4.21ZM281.3,35.8c-.49,0-.93-.46-1.74-1.42-.17-.17-.99-.84-2.96-1.25v-.15c.17-.03,2.44-.15,2.52-.17.26-.06.52-.32.52-.75,0-.49-.46-2.18-1.57-3.8-1.16-1.68-2.61-2.78-3.31-3.28,2.96-.32,7.8,3.74,7.8,8.44,0,1.33-.64,2.38-1.28,2.38Z"/>
        <path class="cls-3" d="M313.09,23.62c-1.68,0-3.8.03-5.19.44-3.04.93-6.29,4.73-6.29,9.02,0,1.39.61,4.35,4.58,5.54.64.17,3.48.7,3.97,1.02.67.41.99.9.99,1.48,0,1.13-.93,1.13-1.48,1.13-.7,0-2.96-.38-5.11-1.42-4.26-2.03-4.47-5.66-4.47-7.08,0-4.47,2.67-7.28,5.86-9.95-1.54-.15-6.82,1.94-9.4,3.1-1.45.67-1.59.75-2.03.75-.78,0-2.26-.93-2.26-2.76,0-.99.38-1.51.64-1.83.61,1.31,1.3,1.71,2.29,1.71s14.36-3.22,15-3.42c1.19-.41,1.74-.58,2.26-.58,1.36,0,2.7.87,2.7,1.77,0,1.07-.87,1.07-2.06,1.07Z"/>
      </g>
      <g>
        <circle class="cls-3" cx="346" cy="32" r="16"/>
        <polyline class="cls-1" points="340.08 23.15 351.92 32 340.08 40.85"/>
      </g>
    </g>
  </g>
</svg>