<?xml version="1.0" encoding="UTF-8"?>
<svg id="_レイヤー_2" data-name="レイヤー 2" xmlns="http://www.w3.org/2000/svg" viewBox="0 0 686.64 100.64">
  <defs>
    <style>
      .cls-1 {
        stroke-width: .64px;
      }

      .cls-1, .cls-2 {
        fill: none;
        stroke: #1a1a1a;
        stroke-miterlimit: 10;
      }

      .cls-3 {
        fill: #1a1a1a;
      }
    </style>
  </defs>
  <g id="_テキストデータ" data-name="テキストデータ">
    <g>
      <polyline class="cls-2" points="625.64 38.5 643.47 51.82 625.64 65.14"/>
      <path class="cls-3" d="M67.48,41.44c.71.7,1.07,1.31,1.07,1.82,0,.16-.05.3-.14.4-.09.1-.25.23-.46.37-.56.44-.97.91-1.23,1.4-.98,1.91-2.01,3.63-3.08,5.14,1.07.91,1.92,1.84,2.54,2.8.62.96.93,1.87.93,2.73,0,.56-.16.99-.47,1.28s-.66.44-1.03.44c-.82,0-1.61-.9-2.38-2.7-.3-.72-.71-1.49-1.23-2.31-2.12,2.64-4.5,4.89-7.14,6.75-2.64,1.87-5.57,3.44-8.79,4.72-.12.07-.26.11-.42.11s-.25-.07-.25-.21.16-.3.49-.49c3.15-1.63,5.91-3.58,8.28-5.85,2.37-2.26,4.4-4.63,6.11-7.1-1.33-1.38-3.07-2.65-5.21-3.82-.58-.3-.88-.54-.88-.7,0-.12.09-.18.28-.18.21,0,.51.06.91.18,2.08.58,4.08,1.48,6.02,2.7.91-1.52,1.63-2.91,2.15-4.18.52-1.27.79-2.11.79-2.5,0-.37-.13-.68-.4-.93s-.58-.44-.93-.58c-.37-.16-.56-.32-.56-.46,0-.12.15-.21.44-.28.29-.07.62-.1,1-.1.51,0,.97.06,1.36.17.77.21,1.51.67,2.22,1.37Z"/>
      <path class="cls-3" d="M108.12,44.55c.71.19,1.32.45,1.84.79.51.34.77.71.77,1.1,0,.58-.41.88-1.23.88l-1.23-.07c-1.31-.09-2.47-.14-3.5-.14-1.26,0-2.51.04-3.75.1.56.28,1.03.61,1.4.98.37.37.56.7.56.98,0,.12-.05.23-.14.35-.09.12-.2.22-.31.31-.35.3-.57.58-.67.84-2.94,7.77-7.88,13.02-14.81,15.75-.19.07-.36.1-.52.1-.14,0-.21-.04-.21-.1,0-.09.17-.25.52-.46,6.23-4.13,10.3-9.59,12.21-16.38.07-.33.1-.61.1-.84,0-.49-.28-.92-.84-1.29-1.05.12-1.92.27-2.62.46-.7.19-1.48.43-2.34.74-.4.14-.79.26-1.17.37-.38.1-.74.16-1.07.16-.49,0-1.02-.19-1.58-.58-.56-.38-1.03-.83-1.42-1.35-.38-.51-.58-.93-.58-1.26,0-.09.02-.16.07-.21.05-.05.09-.07.14-.07.09,0,.24.05.46.16.21.1.38.18.52.23.63.3,1.57.46,2.83.46.72,0,2.61-.15,5.67-.46,3.06-.3,5.11-.58,6.16-.84.84-.21,1.54-.47,2.1-.77.26-.14.51-.21.77-.21.51,0,1.13.09,1.84.28ZM93.64,41.26c-.54-.21-.96-.48-1.26-.8-.4-.49-.59-.83-.59-1.01,0-.12.07-.17.21-.17.09,0,.26.03.49.09.23.06.47.11.7.16.23.05.51.07.84.07.58,0,1.17-.04,1.75-.11,1.19-.09,2.16-.23,2.92-.42.76-.19,1.5-.42,2.22-.7.3-.12.6-.22.89-.3.29-.08.58-.12.86-.12.7,0,1.36.2,1.98.59.62.4.93.82.93,1.26,0,.61-.6.93-1.79.98l-1.57-.04c-.89.02-1.85.12-2.89.28-1.04.16-1.66.26-1.87.28-1,.19-1.69.28-2.06.28-.63,0-1.21-.1-1.75-.32ZM108.85,39.04c.92.25,1.78.65,2.57,1.21.79.56,1.19,1.28,1.19,2.17,0,.44-.13.78-.4,1-.27.22-.58.33-.93.33-.3,0-.59-.08-.86-.25-.27-.16-.47-.43-.61-.8-.26-.7-.57-1.3-.93-1.8-.36-.5-.85-.95-1.45-1.35-.07-.05-.19-.12-.35-.21-.16-.09-.28-.17-.35-.25-.07-.07-.1-.14-.1-.21,0-.14.13-.21.39-.21.3,0,.92.12,1.84.37ZM112.44,36.71c.86.26,1.62.64,2.26,1.14s.96,1.1.96,1.8c0,.42-.12.73-.37.95-.25.21-.51.31-.79.31-.54,0-.99-.3-1.36-.91-.37-.68-.74-1.21-1.08-1.61-.35-.4-.81-.77-1.37-1.12-.16-.09-.33-.18-.49-.26-.16-.08-.3-.16-.4-.25-.1-.08-.16-.16-.16-.23,0-.14.19-.21.56-.21.63,0,1.38.13,2.24.38Z"/>
      <path class="cls-3" d="M143.19,45.39c.25.3.37.57.37.8,0,.12-.05.23-.16.33-.1.11-.25.22-.44.33-.19.12-.33.23-.42.35-1.05,1.42-2.21,2.8-3.46,4.13.4.14.77.3,1.12.49.35.16.53.41.53.74,0,.09-.05.33-.14.7-.14.47-.22.92-.25,1.36l-.04,3.08c0,3.27.06,5.24.18,5.92.07.42.1.79.1,1.12,0,1.07-.35,1.61-1.05,1.61-.47,0-.84-.16-1.12-.47-.28-.32-.42-.79-.42-1.42l.03-1.19c.12-2.22.18-4,.18-5.36l-.04-3.54c0-.82-.13-1.4-.39-1.75-2.82,2.71-5.81,4.81-8.96,6.3-.23.12-.42.17-.56.17-.16,0-.24-.05-.24-.14,0-.16.19-.39.56-.67,2.33-1.73,4.38-3.48,6.14-5.27,1.76-1.78,3.12-3.35,4.06-4.71.95-1.35,1.42-2.28,1.42-2.76,0-.4-.16-.74-.49-1.01-.19-.14-.28-.25-.28-.32,0-.21.23-.32.7-.32.84,0,1.59.23,2.24.7.3.21.58.47.82.77Z"/>
      <path class="cls-3" d="M188.93,40.3c.76.76,1.14,1.27,1.14,1.52,0,.14-.08.28-.24.42-.23.19-.65.41-1.26.67l-1.02.49c-.98.56-2.23,1.23-3.74,2.01-1.52.78-2.92,1.44-4.2,1.98-.33,1.21-.6,2.12-.81,2.73-1.05,2.8-2.46,5.6-4.23,8.4-1.77,2.8-4.29,5.07-7.56,6.82-.23.14-.41.21-.52.21s-.17-.06-.17-.18c0-.07.15-.23.45-.49,2.19-1.68,4.04-3.77,5.55-6.26,1.5-2.5,2.62-4.88,3.36-7.16s1.1-3.87,1.1-4.78c0-.75-.2-1.32-.6-1.73-.4-.41-.96-.71-1.68-.89-.14-.05-.21-.12-.21-.21,0-.16.22-.3.67-.4.44-.1.92-.16,1.43-.16.7,0,1.36.13,1.98.39.62.26,1.11.58,1.47.96.36.38.54.74.54,1.07,0,.07-.05.22-.14.46,2.05-1.38,3.64-2.87,4.76-4.48.3-.44.46-.79.46-1.05,0-.4-.39-.59-1.16-.59-.56,0-1.73.16-3.52.47-1.78.31-3.31.61-4.57.89-.89.21-1.92.5-3.11.88-1.07.33-1.91.57-2.5.72-.59.15-1.09.23-1.49.23-.54,0-1.16-.26-1.87-.77-.71-.51-1.22-1.08-1.52-1.71-.09-.26-.14-.47-.14-.63,0-.28.08-.42.25-.42.07,0,.22.06.46.17.23.12.44.21.63.28.56.16,1.28.24,2.17.24.82,0,1.56-.05,2.24-.14,1.17-.12,3.28-.4,6.35-.84,3.07-.44,4.95-.76,5.65-.95.12-.05.48-.17,1.1-.37.62-.2,1.08-.3,1.38-.3.19,0,.46.14.81.42.79.63,1.57,1.33,2.33,2.08Z"/>
      <path class="cls-3" d="M210.4,41.47c.07-.12.17-.27.3-.47.13-.2.24-.35.33-.46.09-.11.19-.16.28-.16.19,0,.61.32,1.26.96.65.64,1.06,1.13,1.22,1.45.02.05.04.1.04.17,0,.16-.08.3-.25.4-.16.1-.36.16-.59.16h-4.17v6.72l4.2-1.22.14-.04c.12,0,.19.07.21.21v.07c0,.12-.06.21-.17.28-1.47.89-2.93,1.72-4.38,2.49v11.38c0,.79-.08,1.42-.23,1.89-.15.47-.47.85-.94,1.16-.48.3-1.2.51-2.15.63h-.07c-.12,0-.2-.08-.25-.24-.12-.82-.31-1.38-.59-1.68-.49-.44-1.23-.76-2.21-.94-.16-.02-.25-.12-.25-.28s.07-.25.21-.25c.51,0,1.12.04,1.82.11l1.37.07c.26,0,.44-.05.54-.14s.16-.27.16-.53v-9.76l-2.59,1.33c-.09.3-.27.55-.52.73-.02.02-.07.04-.14.04-.09,0-.16-.06-.21-.17l-1.12-2.97-.03-.14c0-.12.07-.19.21-.21.63-.12,2.1-.48,4.41-1.08v-7.42h-1.44c-.77.02-1.53.16-2.28.42h-.1c-.09,0-.17-.06-.24-.17l-.6-1.16s-.04-.1-.04-.17c0-.12.08-.16.25-.14.96.12,1.91.19,2.87.21h1.58v-.67c0-2.54-.13-4.82-.39-6.83v-.07c0-.19.1-.25.31-.17,1.33.35,2.25.64,2.77.86.51.22.77.41.77.58,0,.12-.09.23-.28.35l-.59.38v5.57h.91l.66-1.05ZM227.48,35.98c.07-.09.17-.23.3-.4.13-.17.23-.3.31-.38.08-.08.17-.12.26-.12.21,0,.68.32,1.42.96.74.64,1.2,1.14,1.38,1.49.07.09.05.2-.07.31-.26.26-.68.44-1.26.56v3.18c.07,2.64.15,4.61.25,5.92,0,.14-.05.26-.14.35-.23.21-.58.4-1.05.56s-.89.25-1.26.25h-.1c-.19,0-.28-.09-.28-.28v-1.19h-8.93c1.49.63,2.24,1.06,2.24,1.29,0,.12-.13.21-.39.28l-.67.14c-.51.96-1,1.77-1.47,2.45h10.6l.63-.77c.07-.07.17-.18.3-.33.13-.15.24-.26.33-.33.09-.07.19-.1.28-.1.21,0,.64.27,1.29.82.65.55,1.06,1,1.23,1.35.07.09.05.2-.07.31-.23.21-.62.35-1.15.42-.16,3.92-.44,6.95-.84,9.08-.4,2.14-.94,3.52-1.64,4.15-.77.75-1.86,1.15-3.26,1.22-.19,0-.28-.09-.28-.28-.02-.4-.06-.72-.12-.96-.06-.25-.18-.45-.37-.61-.44-.37-1.27-.68-2.48-.91-.16-.07-.25-.17-.25-.32v-.04c0-.21.09-.29.28-.24.65.07,1.31.13,1.96.17.65.05,1.19.07,1.61.07.3,0,.54-.02.7-.07.16-.05.33-.14.49-.28.84-.77,1.4-4.56,1.68-11.38h-11.62c-.7.89-1.12,1.4-1.26,1.54,1.05.44,1.57.79,1.57,1.05,0,.14-.09.27-.28.38l-.49.32v1.75c.91-.44,1.84-.98,2.8-1.61.96-.63,1.73-1.24,2.31-1.82.12-.14.24-.14.38,0,1.42,1.31,2.13,2.08,2.13,2.31,0,.07-.03.11-.09.12-.06.01-.12.02-.19.02l-.52-.07c-.79.3-1.83.62-3.1.94-1.27.33-2.51.59-3.73.81v2.52c0,.21.06.35.18.42.12.07.42.11.91.11h2.56c1.35,0,2.13-.01,2.35-.04.33,0,.55-.09.66-.28.12-.12.25-.38.4-.79.15-.41.29-.86.4-1.35.02-.16.12-.25.28-.25.12,0,.17.09.17.28l.14,2.13c.35.14.59.29.72.46.13.16.19.37.19.63,0,.37-.15.67-.46.88s-.85.36-1.64.46c-.79.09-1.94.14-3.43.14h-2.94c-.84,0-1.46-.07-1.87-.21-.41-.14-.68-.37-.82-.68-.14-.32-.21-.78-.21-1.38v-5.57c-1.07,1.05-2.24,1.96-3.5,2.73-.14.09-.27.08-.38-.04l-.07-.07c-.14-.14-.14-.28,0-.42,1.14-1.1,2.26-2.45,3.36-4.06,1.1-1.61,2.04-3.34,2.83-5.18-.56.28-1.11.42-1.65.42h-.1c-.19,0-.28-.09-.28-.28v-6.37c0-2.54-.12-4.68-.35-6.41v-.07c0-.16.09-.21.28-.14l2.8,1.22h9.49l.59-.91ZM227.24,41.58v-3.67h-10.01v3.67h10.01ZM217.23,42.59v3.54h10.01v-3.54h-10.01Z"/>
      <path class="cls-3" d="M254.96,37.97c.09-.12.19-.26.3-.42.1-.16.22-.3.33-.42.12-.12.22-.17.31-.17.19,0,.64.31,1.37.93.72.62,1.17,1.09,1.33,1.42.02.05.03.1.03.17,0,.16-.09.3-.26.4-.18.1-.38.16-.61.16h-6.12v3.43h8.3c-.14-2.59-.21-5.33-.21-8.22,0-.21.1-.29.31-.25,1.24.09,2.09.2,2.57.32.48.12.72.24.72.38,0,.09-.09.2-.28.31l-.59.39-.04,2.62c0,1.52.04,3,.1,4.44h4.44l1.65-2.21c-.07.02-.17.04-.31.04-.26,0-.49-.06-.7-.17-.09-.05-.18-.14-.25-.28-.26-.68-.71-1.38-1.35-2.1-.64-.72-1.32-1.37-2.05-1.92-.16-.12-.19-.23-.07-.35.09-.09.21-.13.35-.1,1.8.28,3.13.76,4.01,1.45.88.69,1.31,1.39,1.31,2.12,0,.3-.08.57-.23.81-.15.23-.34.4-.58.49.33.23.8.6,1.42,1.1.62.5,1.17.97,1.66,1.42.12.16.14.29.07.38-.14.23-.4.35-.77.35h-8.57c.28,4.62.86,8.34,1.75,11.17.37-.89.64-1.55.8-2,.4-1.03.73-2.15,1-3.38.27-1.22.43-2.3.47-3.24,0-.21.1-.29.31-.25,2.36.63,3.54,1.08,3.54,1.37,0,.07-.1.15-.31.25l-.63.21c-.98,3.64-2.37,6.85-4.17,9.62.91,1.98,2.08,3.51,3.5,4.58.28.23.47.35.56.35s.18-.05.25-.14c.07-.09.14-.22.21-.38.49-.96.97-2.23,1.44-3.82.05-.14.12-.21.21-.21.14,0,.21.1.21.32l-.49,5.14c.58.93.88,1.62.88,2.07,0,.19-.06.36-.18.52-.28.35-.65.53-1.12.53s-1-.15-1.59-.46c-.6-.3-1.16-.69-1.7-1.16-1.56-1.31-2.86-2.96-3.89-4.97-2.17,2.68-4.69,4.76-7.56,6.23-.16.07-.29.03-.38-.11-.12-.19-.09-.33.07-.42,2.73-1.84,5.06-4.39,7-7.63-1.47-3.62-2.38-8.35-2.73-14.21h-12.95c-1.49.02-3.16.17-5,.46h-.07c-.12,0-.21-.06-.28-.18l-.63-1.22-.04-.14c0-.12.08-.17.25-.17,1.26.12,2.67.2,4.23.24h3.5v-3.43h-1.89c-1.07.02-2.14.16-3.19.42-.19.05-.3,0-.35-.14l-.63-1.26s-.04-.07-.04-.14c0-.12.08-.17.25-.17,1.14.12,2.42.2,3.81.25h2.03c0-1.42-.07-2.7-.21-3.82,0-.23.1-.31.32-.24,1.26.33,2.14.6,2.64.82.5.22.75.41.75.58,0,.12-.09.23-.28.35l-.6.38v1.92h2.66l.67-1.01ZM256.22,60.41c.09-.12.19-.26.3-.42s.22-.3.33-.42c.12-.12.22-.17.31-.17.21,0,.68.3,1.4.89.72.59,1.17,1.06,1.33,1.38l.04.14c0,.19-.09.33-.26.44-.17.11-.39.16-.65.16h-7.46v1.26l.1,2.17c.02.12.01.23-.04.35-.16.21-.45.41-.88.6-.42.19-.83.28-1.22.28-.23,0-.4-.07-.51-.21-.1-.14-.16-.3-.16-.49.07-.51.12-1.05.14-1.61,0-.3.01-.56.04-.77v-1.57h-2.48c-1.49.05-2.91.2-4.23.46h-.1c-.09,0-.18-.06-.25-.18l-.6-1.22s-.03-.07-.03-.14c0-.12.08-.17.24-.17,1.28.12,2.71.2,4.27.24h3.19v-2.62h-3.25v.39c0,.12-.22.27-.67.47-.44.2-.89.3-1.33.3-.14,0-.26-.07-.35-.21-.09-.14-.14-.3-.14-.49.07-.58.12-1.17.14-1.75,0-.35.01-.63.04-.84v-1.64c0-1.84-.08-3.42-.25-4.73v-.07c0-.09.02-.15.07-.18.05-.02.12-.01.21.04l2.45,1.16h3.08v-2.31h-2.21c-1.33.05-2.6.2-3.81.46h-.1c-.09,0-.17-.06-.25-.18l-.63-1.19s-.04-.07-.04-.14c0-.12.09-.17.28-.17,1.26.12,2.67.2,4.23.25h2.52c0-1.12-.05-2.06-.14-2.83,0-.23.12-.32.35-.25,1.12.33,1.9.6,2.35.8.44.21.67.39.67.53,0,.09-.08.19-.25.28l-.46.31v1.16h3.29l.67-.91c.09-.12.19-.25.3-.38.1-.14.22-.27.33-.38s.22-.18.31-.18c.21,0,.67.28,1.38.82.71.55,1.15.99,1.31,1.31l.03.14c0,.19-.09.33-.26.42-.18.09-.38.14-.61.14h-6.75v2.31h3.04l.49-.63c.07-.07.18-.2.33-.38.15-.19.3-.28.44-.28.21,0,.61.23,1.19.68.58.46.96.82,1.12,1.1.07.12.05.23-.07.35-.26.16-.55.28-.88.35v2.13l.04,1.26c.02.96.07,1.82.14,2.59,0,.12-.04.23-.1.35-.21.21-.52.4-.93.56-.41.16-.79.25-1.14.25h-.11c-.19,0-.28-.09-.28-.28v-.49h-3.29v2.62h3.96l.7-.98ZM249.04,54.46v-2.28h-3.25v2.28h3.25ZM245.79,55.47v2.27h3.25v-2.27h-3.25ZM254.85,54.46v-2.28h-3.29v2.28h3.29ZM251.56,55.47v2.27h3.29v-2.27h-3.29Z"/>
      <path class="cls-3" d="M282.75,41.19h.07c.16,0,.27.09.31.28.3,1.24.46,2.43.46,3.57,0,.91-.09,1.72-.26,2.43-.18.71-.4,1.28-.68,1.7-.21.3-.46.54-.75.7-.29.16-.58.25-.86.25-.3,0-.56-.12-.77-.35-.14-.21-.21-.44-.21-.7,0-.49.22-.96.67-1.4.44-.58.85-1.46,1.21-2.62.36-1.17.54-2.31.54-3.43,0-.28.09-.42.28-.42ZM285.06,41.86c0-2.54-.13-4.82-.39-6.83v-.07c0-.19.1-.25.32-.17,1.31.37,2.22.67,2.73.89.51.22.77.41.77.58,0,.12-.09.23-.28.35l-.59.38v20.83c.05,2.89.14,5.58.28,8.05,0,.12-.04.22-.1.31-.21.26-.53.48-.96.68-.43.2-.86.3-1.28.3-.23,0-.44-.07-.61-.21s-.26-.3-.26-.49c.09-1.38.18-2.71.25-4.01.07-1.29.12-2.99.14-5.09v-15.5ZM288.21,40.25c.14-.07.28-.07.42,0,1.05.68,1.83,1.38,2.33,2.1.5.72.75,1.41.75,2.06,0,.47-.12.85-.35,1.16-.23.3-.51.46-.84.46-.28,0-.55-.12-.81-.35-.09-.09-.14-.21-.14-.35-.05-.72-.21-1.52-.49-2.38-.28-.86-.61-1.65-.98-2.34-.07-.16-.04-.28.1-.35ZM306.48,41.54c.09-.12.2-.27.33-.47.13-.2.24-.34.33-.44s.19-.14.28-.14c.19,0,.65.31,1.4.93.75.62,1.2,1.09,1.36,1.42l.04.14c0,.19-.09.33-.26.44-.17.11-.39.16-.65.16h-7.52v3.12h5.39l.73-1.05c.07-.12.18-.27.33-.47.15-.2.27-.35.37-.45.09-.11.19-.16.28-.16.21,0,.69.32,1.45.96.76.64,1.22,1.14,1.38,1.49.02.12.01.23-.04.35-.14.26-.42.39-.84.39h-14.84c-1.49.02-3.16.17-5.01.46h-.1c-.09,0-.17-.06-.24-.17l-.6-1.26s-.04-.07-.04-.14c0-.12.08-.17.25-.17,1.28.12,2.71.2,4.27.25h4.62v-3.12h-2.14c-1.28.05-2.51.2-3.67.46h-.1c-.09,0-.17-.06-.25-.18l-.63-1.22s-.04-.07-.04-.14c0-.12.08-.17.25-.17,1.28.12,2.71.2,4.27.24h2.31v-2.9h-2.66c-1.38.02-2.93.17-4.65.46h-.1c-.09,0-.18-.06-.25-.18l-.6-1.22s-.03-.07-.03-.14c0-.12.08-.17.25-.17,1.28.12,2.71.2,4.27.24h3.78c0-1.17-.06-2.31-.17-3.43,0-.23.1-.31.31-.25,1.26.35,2.13.63,2.61.84.48.21.72.4.72.56,0,.07-.09.17-.28.32l-.56.35v1.61h4.79l.73-1.05c.07-.12.18-.27.33-.47s.27-.35.37-.46c.09-.11.19-.16.28-.16.21,0,.69.32,1.45.95.76.63,1.23,1.12,1.42,1.47.02.12.01.23-.04.35-.14.26-.4.38-.77.38h-8.58v2.9h3.99l.7-1.01ZM295.8,61.81l.03,1.33c.02.98.07,1.87.14,2.66,0,.14-.04.26-.1.35-.16.23-.46.45-.89.65-.43.2-.88.3-1.35.3-.21,0-.39-.07-.54-.21-.15-.14-.23-.3-.23-.49.16-2.01.27-4.24.31-6.69v-3.71c0-2.75-.13-5.02-.39-6.79v-.07c0-.16.09-.21.28-.14l2.94,1.29h9.34l.56-.8c.07-.09.19-.25.35-.47.16-.22.31-.33.46-.33.21,0,.7.3,1.47.89.77.6,1.26,1.06,1.47,1.38.07.09.05.2-.07.32-.26.26-.69.44-1.3.56v11.69c0,.75-.08,1.35-.23,1.8s-.47.83-.94,1.12c-.48.29-1.18.5-2.12.61h-.07c-.16,0-.25-.08-.25-.24-.07-.79-.26-1.35-.56-1.68-.4-.44-1.11-.76-2.13-.94-.16-.05-.25-.14-.25-.28,0-.16.07-.25.21-.25.51,0,1.08.04,1.72.11l1.33.07c.26,0,.43-.05.53-.16.09-.11.14-.29.14-.54v-3.5h-9.87v2.17ZM305.67,54.42v-3.08h-9.87v3.08h9.87ZM295.8,55.44v3.18h9.87v-3.18h-9.87Z"/>
      <path class="cls-3" d="M334.27,51.12c.75.64,1.2,1.14,1.36,1.49l.04.14c0,.19-.09.33-.26.44-.18.11-.39.16-.65.16h-6.23v4.83h2.31l.74-1.12c.07-.09.17-.25.31-.47.14-.22.26-.38.37-.49.1-.11.2-.16.3-.16.19,0,.65.34,1.4,1.01.75.68,1.2,1.19,1.36,1.54l.04.14c0,.19-.09.33-.26.42-.17.09-.39.14-.65.14h-5.92v2.42c.07,1.98.14,3.45.21,4.41,0,.14-.04.26-.11.35-.21.21-.51.4-.89.56-.39.16-.83.25-1.35.25-.21,0-.37-.07-.49-.21s-.17-.3-.17-.49c.12-1.14.2-2.68.25-4.62v-2.66h-1.89c-1.05.02-2.09.16-3.11.42-.19.05-.3,0-.35-.14l-.6-1.22s-.03-.07-.03-.14c0-.12.08-.18.24-.18,1.12.12,2.37.2,3.75.25h2v-4.83h-2.03c-1.14.02-2.3.16-3.46.42-.19.05-.3,0-.35-.14l-.59-1.26s-.04-.07-.04-.14c0-.12.08-.17.25-.17,1.28.12,2.71.2,4.27.25h4.51c.28-.96.51-2.01.68-3.17.18-1.15.29-2.19.33-3.1h-4.06c-1.49.02-3.16.17-5,.45h-.1c-.09,0-.17-.06-.25-.17l-.59-1.19s-.04-.07-.04-.14c0-.12.08-.18.25-.18,1.24.12,2.6.2,4.09.25h2.14v-4.41h-1.75c-.98.02-1.95.16-2.91.42h-.1c-.09,0-.17-.06-.24-.18l-.6-1.19-.04-.14c0-.12.09-.17.28-.17,1.03.12,2.19.2,3.5.25h1.85c0-1.66-.09-3.2-.28-4.62,0-.23.12-.32.35-.25,1.24.35,2.1.63,2.59.84.49.21.74.38.74.53,0,.07-.04.13-.12.19-.08.06-.13.1-.16.12l-.56.35v2.83h2l.7-1.05c.09-.14.2-.31.33-.51.13-.2.24-.34.33-.44s.19-.14.28-.14c.14,0,.43.18.88.54.44.36.86.75,1.24,1.17.38.42.58.71.58.88-.02.19-.12.33-.28.42-.16.09-.36.14-.59.14h-5.46v4.41h2.62l.74-1.12c.12-.14.24-.31.38-.52s.26-.37.35-.47c.09-.11.19-.16.28-.16.14,0,.44.19.91.58.47.38.9.79,1.29,1.22.4.43.6.73.6.89-.02.37-.31.56-.88.56h-4.87c1.21.4,2.06.71,2.56.93.49.22.73.4.73.54,0,.07-.1.15-.31.25l-.63.25c-.12.19-.48.75-1.08,1.7-.61.95-1.24,1.81-1.89,2.61h1.82l.7-1.05c.07-.12.18-.27.33-.47.15-.2.27-.35.37-.46.09-.1.19-.16.28-.16.21,0,.69.32,1.44.96ZM323.49,51.83c-.09-.09-.14-.21-.14-.35,0-1.35-.39-2.92-1.16-4.69-.02-.09-.02-.17,0-.23.02-.06.06-.1.1-.12.12-.05.23-.04.35.03,1.1.61,1.9,1.27,2.4,2,.5.72.75,1.41.75,2.06,0,.49-.13.9-.38,1.22-.26.33-.57.49-.94.49-.3,0-.63-.14-.98-.42ZM351.17,64.29c.12.07.17.14.17.21,0,.09-.02.16-.05.19-.03.04-.11.06-.23.09-.44.09-.85.3-1.22.63-.37.33-.68.74-.91,1.22-.02.09-.07.15-.14.18-.07.02-.14,0-.21-.07-1.63-1.21-3.03-2.71-4.2-4.48-1.54,1.96-3.24,3.54-5.11,4.73-.16.09-.29.06-.38-.11l-.04-.03c-.12-.14-.09-.27.07-.39,1.7-1.52,3.19-3.49,4.45-5.92-1.42-2.71-2.44-6.16-3.05-10.36h-1.68v7.49c.05,2.89.14,5.58.28,8.05,0,.12-.03.22-.1.32-.19.3-.48.56-.89.77-.41.21-.87.31-1.38.31-.23,0-.43-.07-.59-.21-.16-.14-.25-.3-.25-.49.09-1.38.17-2.71.25-4.01.07-1.29.12-2.99.14-5.09v-14.38c0-2.75-.13-5.02-.38-6.79v-.07c0-.09.03-.15.09-.17.06-.02.13-.01.23.04l2.8,1.33h7.25l.56-.88c.07-.09.16-.22.28-.39.12-.16.22-.29.3-.37.08-.08.17-.12.26-.12.21,0,.69.31,1.44.93.75.62,1.21,1.1,1.4,1.45.07.12.05.23-.07.35-.37.28-.79.44-1.26.49v4.94c0,.68-.09,1.24-.26,1.68s-.52.81-1.05,1.1-1.3.5-2.33.61h-.07c-.12,0-.2-.08-.24-.25-.12-.72-.35-1.25-.7-1.58-.7-.44-1.57-.73-2.62-.88-.19-.05-.28-.15-.28-.31,0-.21.09-.29.28-.25,1.96.16,3.29.25,3.99.25.28,0,.47-.05.58-.16.11-.1.16-.29.16-.54v-5.11h-7.77v10.92h7.84l.67-.77c.09-.09.24-.25.44-.47s.37-.33.51-.33c.21,0,.63.29,1.28.86.64.57,1.04,1.03,1.21,1.38.07.09.05.2-.07.32-.19.19-.56.31-1.12.38-.75,3.66-1.94,6.86-3.57,9.59,1.56,1.73,3.35,3.12,5.36,4.17ZM340.99,50.19c.7,3.1,1.85,5.81,3.46,8.12,1.03-2.57,1.76-5.27,2.21-8.12h-5.67Z"/>
      <rect class="cls-1" x=".32" y=".32" width="686" height="100" rx="5" ry="5"/>
    </g>
  </g>
</svg>