<?xml version="1.0" encoding="UTF-8"?>
<svg id="_レイヤー_2" data-name="レイヤー 2" xmlns="http://www.w3.org/2000/svg" viewBox="0 0 55.78 54.43">
  <defs>
    <style>
      .cls-1 {
        fill: #fcf0c7;
        stroke: #000;
        stroke-linecap: round;
        stroke-linejoin: round;
        stroke-width: 1.54px;
      }
    </style>
  </defs>
  <g id="_ガイド" data-name="ガイド">
    <g>
      <g>
        <path d="M0,44.74h1.33l1.87,5.2c.23.68.46,1.35.69,2.03h.07c.23-.68.44-1.35.66-2.03l1.86-5.2h1.33v9.52h-1v-5.5c0-.81.08-1.92.13-2.76h-.05l-.75,2.16-1.86,5.12h-.74l-1.87-5.12-.75-2.16h-.05c.05.83.13,1.95.13,2.76v5.5h-.97v-9.52Z"/>
        <path d="M13.61,50.53l-2.86-5.79h1.14l1.27,2.76c.33.7.61,1.37.96,2.08h.05c.34-.71.66-1.38.96-2.08l1.29-2.76h1.1l-2.86,5.79v3.73h-1.07v-3.73Z"/>
        <path d="M20.5,44.74h2.64c2.15,0,3.54.71,3.54,2.76s-1.38,2.91-3.48,2.91h-1.61v3.85h-1.08v-9.52ZM23.04,49.53c1.74,0,2.57-.61,2.57-2.03s-.88-1.89-2.63-1.89h-1.4v3.91h1.46Z"/>
        <path d="M32.25,44.74h1.18l3.26,9.52h-1.14l-.95-3h-3.55l-.98,3h-1.08l3.25-9.52ZM31.33,50.41h3l-.49-1.55c-.36-1.08-.66-2.11-.99-3.22h-.05c-.31,1.13-.62,2.15-.98,3.22l-.49,1.55Z"/>
        <path d="M39.14,49.5c0-3.06,1.81-4.93,4.32-4.93,1.31,0,2.17.6,2.72,1.16l-.6.7c-.48-.51-1.1-.91-2.09-.91-1.98,0-3.24,1.51-3.24,3.95s1.17,4,3.24,4c.71,0,1.42-.22,1.81-.6v-2.6h-2.07v-.9h3.07v3.95c-.61.64-1.64,1.09-2.91,1.09-2.48,0-4.24-1.85-4.24-4.93Z"/>
        <path d="M50.22,44.74h5.42v.91h-4.34v3.13h3.65v.91h-3.65v3.65h4.49v.91h-5.56v-9.52Z"/>
      </g>
      <circle class="cls-1" cx="27.26" cy="7.42" r="6.65" transform="translate(15.57 33.15) rotate(-80.78)"/>
      <path class="cls-1" d="M27.26,17.36c-7.6,0-13.76,6.16-13.76,13.76h27.52c0-7.6-6.16-13.76-13.76-13.76Z"/>
    </g>
  </g>
</svg>