<?xml version="1.0" encoding="UTF-8"?>
<svg id="_レイヤー_2" data-name="レイヤー 2" xmlns="http://www.w3.org/2000/svg" viewBox="0 0 210.01 44.82">
  <defs>
    <style>
      .cls-1 {
        fill: #1a1a1a;
      }
    </style>
  </defs>
  <g id="_ベース" data-name="ベース">
    <g>
      <path class="cls-1" d="M36.96,22.57c1.17.97,1.75,2.5,1.75,4.59,0,1.94-.7,3.94-2.11,5.99-1.4,2.05-3.17,3.76-5.29,5.13-2.12,1.37-4.18,2.05-6.16,2.05-1.4,0-2.55-.4-3.43-1.19-.88-.79-1.32-1.91-1.32-3.35,0-1.98.9-4.34,2.7-7.07.32-.43.56-.65.7-.65s.22.09.22.27-.18.65-.54,1.4c-.25.58-.49,1.29-.7,2.13-.22.85-.32,1.63-.32,2.35,0,1.69.59,2.54,1.78,2.54,1.3,0,2.79-.57,4.48-1.7,1.69-1.13,3.14-2.51,4.35-4.13,1.21-1.62,1.81-3.1,1.81-4.43,0-2.34-1.31-3.51-3.94-3.51-2.41,0-5.54.88-9.4,2.65-1.76.79-3.65,1.84-5.67,3.13l.16,3.02c.11,1.73.16,2.9.16,3.51,0,1.01-.08,2-.24,2.97-.16.97-.33,1.62-.51,1.94-.22.4-.56.77-1.03,1.13-.47.36-.81.54-1.03.54-.68,0-1.17-.41-1.46-1.24-.5-1.3-1.12-2.41-1.84-3.35-.29-.4-.67-.76-1.13-1.08-.47-.32-1.08-.7-1.84-1.13l-1.46,1.08c-.54.4-.96.68-1.27.86-.31.18-.62.27-.94.27-.9,0-1.7-.42-2.4-1.27-.7-.85-1.05-1.76-1.05-2.73,0-.72.21-1.26.62-1.62.41-.36.8-.54,1.16-.54.22,0,.58.11,1.11.32.52.22.85.32,1,.32l.43-.05c1.62-.54,4.61-1.96,8.96-4.27,0-3.85-.02-6.61-.05-8.26-1.48.54-2.81.97-4,1.3-.76.11-1.21.16-1.35.16-1.19,0-2.2-.29-3.02-.86-1.37-.94-2.47-1.96-3.29-3.08-.29-.29-.43-.52-.43-.7,0-.14.09-.22.27-.22.14,0,.37.06.68.19.31.13.53.23.67.3l.43.22c1.19.47,2.56.7,4.1.7.5,0,.86-.02,1.08-.05.94-.11,2.56-.54,4.86-1.3-.11-3.89-.41-6.35-.92-7.4-.25-.58-.62-1.03-1.11-1.35-.49-.32-.95-.58-1.4-.76-.45-.18-.75-.31-.89-.38-.11-.04-.28-.09-.51-.16-.23-.07-.35-.16-.35-.27,0-.25.34-.52,1.03-.81.76-.25,1.39-.38,1.89-.38.83,0,1.66.16,2.51.49.85.32,1.5.7,1.97,1.13.54.47.81,1.19.81,2.16,0,.29-.04.61-.11.97-.07.36-.13.63-.16.81,0,.14-.02.25-.05.32.54.61,1.06,1.08,1.57,1.4.94.65,1.8,1.06,2.59,1.24.68.14,1.21.33,1.57.57.36.23.54.57.54,1,0,.54-.11.94-.32,1.21-.22.27-.58.51-1.08.73l-2.86,1.13c-.43.14-.84.29-1.21.43-.38.14-.71.27-1,.38v2.92c0,1.12.04,2.75.11,4.91,2.52-1.26,4.21-2.05,5.08-2.38,4.64-1.8,8.41-2.7,11.29-2.7,2.02,0,3.61.49,4.78,1.46ZM13.28,30.51c-1.15.79-2.88,2.05-5.18,3.78.61.36,1.46.78,2.54,1.27,1.08.49,1.73.73,1.94.73.36,0,.56-.25.59-.76.07-.5.11-2.18.11-5.02ZM15.77,13.66l-.05,1.19c.29-.11.49-.22.59-.32.11-.07.28-.19.51-.35.23-.16.35-.35.35-.57s-.11-.49-.32-.81c-.07-.14-.4-.65-.97-1.51-.07,1.01-.11,1.8-.11,2.38ZM42.39,13.04c.94.49,1.67,1.11,2.19,1.86.52.76.78,1.51.78,2.27s-.22,1.34-.65,1.75c-.43.41-.95.62-1.57.62-.79,0-1.4-.31-1.84-.92-1.76-2.23-3.46-3.35-5.08-3.35-.72,0-1.49.31-2.32.92-.32.18-.68.43-1.08.76-.4.32-.65.49-.76.49-.22,0-.32-.11-.32-.32,0-.14.09-.34.27-.59,1.19-1.58,2.36-2.68,3.51-3.29,1.15-.61,2.39-.92,3.73-.92,1.15,0,2.2.24,3.13.73Z"/>
      <path class="cls-1" d="M68.61,40.09c-1.78-2.54-2.67-6.38-2.67-11.53,0-3.28.23-7.25.7-11.93.32-2.84.49-4.97.49-6.37,0-1.66-.19-3.02-.57-4.1-.38-1.08-1.04-1.91-1.97-2.48-.32-.18-.49-.36-.49-.54,0-.25.24-.43.73-.54s1-.16,1.54-.16c1.94,0,3.31.53,4.1,1.59.79,1.06,1.19,2.53,1.19,4.4,0,1.01-.13,2.39-.38,4.13-.25,1.75-.4,2.78-.43,3.1-.07.25-.14.67-.22,1.24-.72,4.5-1.08,8.41-1.08,11.72,0,2.88.31,5.14.92,6.78.61,1.64,1.61,2.82,3,3.54,1.39.72,3.27,1.08,5.64,1.08,4.75,0,10.55-2.7,17.39-8.1.11-.07.28-.19.51-.35.23-.16.42-.24.57-.24.11,0,.16.07.16.22,0,.22-.22.58-.65,1.08-6.55,7.52-13,11.29-19.33,11.29-4.32,0-7.37-1.27-9.15-3.81Z"/>
      <path class="cls-1" d="M122.36,44.5c0-.18.08-.31.24-.38.16-.07.34-.13.54-.16.2-.04.33-.05.4-.05,5.69-.94,9.98-2.51,12.88-4.73,2.9-2.21,4.35-5.01,4.35-8.4,0-1.94-.44-3.5-1.32-4.67-.88-1.17-2.13-1.76-3.75-1.76s-3.19.66-4.48,1.97c-1.3,1.31-2.74,3.3-4.32,5.97-.32.61-.81,1.13-1.46,1.57-.65.43-1.21.65-1.67.65-1.73,0-3.05-.52-3.97-1.57-.92-1.04-1.38-2.54-1.38-4.48,0-1.15.08-2.86.24-5.13.16-2.27.28-3.87.35-4.81.22-2.02.32-3.42.32-4.21,0-.54-.05-1.06-.13-1.57-.09-.5-.14-.88-.14-1.13,0-.76.22-1.39.65-1.92.43-.52,1.12-1.12,2.05-1.81.76-.58,2.11-1.31,4.05-2.21,1.01-.43,1.72-.76,2.13-1,.41-.23.62-.49.62-.78,0-.4-.32-.88-.97-1.46-.65-.58-1.39-1.1-2.21-1.57-.11-.07-.26-.15-.46-.24-.2-.09-.3-.19-.3-.3s.22-.19.65-.24.79-.08,1.08-.08c1.55,0,2.92.3,4.1.89,1.19.59,2.21,1.63,3.08,3.1.36.61.54,1.24.54,1.89,0,.72-.22,1.33-.65,1.84-.43.5-.92.76-1.46.76-.29,0-.56-.06-.81-.19-.25-.13-.5-.28-.76-.46-.51-.32-.96-.58-1.35-.76-.4-.18-.9-.27-1.51-.27-1.44,0-2.95.52-4.54,1.57-.4.22-.7.53-.92.95-.22.41-.32.8-.32,1.16,0,.29.06.57.19.84.12.27.21.44.24.51.43.79.65,1.53.65,2.21,0,.47-.13,1.66-.38,3.56-.5,3.24-.76,5.67-.76,7.29,0,.97.14,1.9.41,2.78.27.88.64,1.32,1.11,1.32.5,0,1.57-.59,3.19-1.78,1.84-1.33,3.54-2.39,5.1-3.19,1.57-.79,3.23-1.19,5-1.19,1.58,0,3.06.42,4.43,1.27,1.37.85,2.45,1.98,3.24,3.4.79,1.42,1.19,2.94,1.19,4.56s-.41,3.25-1.24,4.78c-.83,1.53-2.8,3.03-5.91,4.51-3.12,1.48-7.77,2.59-13.96,3.35-.47.07-.86.11-1.19.11-.47,0-.7-.11-.7-.32Z"/>
      <path class="cls-1" d="M209.63,14.66c.25.34.38.68.38,1,0,.54-.2,1.02-.59,1.43-.4.41-.86.62-1.4.62-.25,0-.7-.05-1.35-.16-2.59-.43-4.73-.65-6.43-.65-1.01,0-2.34.04-4,.11-.32,3.6-.79,6.41-1.4,8.42-1.04,3.82-2.56,5.72-4.54,5.72-.61,0-1.01-.12-1.19-.35-.18-.23-.34-.64-.49-1.22-.14-1.01-.51-1.94-1.11-2.81-.59-.86-1.34-1.84-2.24-2.92-.25-.22-.38-.43-.38-.65,0-.11.05-.16.16-.16.18,0,.41.09.7.27.21.14.87.59,1.97,1.32,1.1.74,1.86,1.11,2.29,1.11.32,0,.59-.11.81-.32,1.04-1.22,1.76-3.94,2.16-8.15-4.9.61-9.42,1.78-13.55,3.51.14,6.52.5,11.16,1.08,13.93.29,1.4.89,2.32,1.81,2.75.92.43,2.13.65,3.64.65s3.07-.1,4.78-.3c1.71-.2,3.27-.49,4.67-.89.72-.14,1.22-.22,1.51-.22.83,0,1.54.21,2.13.62.59.41.89.93.89,1.54,0,.83-.34,1.41-1.03,1.75-.68.34-1.58.6-2.7.78-2.41.36-4.88.54-7.4.54-5.18,0-8.48-.9-9.88-2.7-.65-.65-1.12-1.69-1.43-3.13-.31-1.44-.57-3.26-.78-5.45-.25-2.66-.41-5.47-.49-8.42l-.32.16c-.07.04-.14.07-.22.11-.07.04-.16.07-.27.11l-2.59,1.3c-1.01.54-1.75.89-2.21,1.05-.47.16-1.03.24-1.67.24-1.48,0-2.67-.49-3.59-1.48-.92-.99-1.38-2.11-1.38-3.38,0-.36.04-.63.14-.81.09-.18.19-.27.3-.27.14,0,.41.2.81.59.86.79,1.91,1.19,3.13,1.19.79,0,1.87-.23,3.24-.7l4.43-1.46c-.07-1.62-.19-3.17-.35-4.64-.16-1.48-.35-2.47-.57-2.97-.29-.65-.6-1.14-.95-1.49-.34-.34-.76-.62-1.27-.84-.68-.29-1.03-.56-1.03-.81,0-.32.39-.6,1.16-.84.77-.23,1.49-.35,2.13-.35,1.62,0,2.95.52,4,1.57.47.47.7,1.01.7,1.62,0,.29-.02.55-.05.78-.04.23-.07.46-.11.68-.18.79-.27,2.9-.27,6.32,5.29-1.55,9.88-2.59,13.77-3.13l.05-2.16c.04-1.8,0-3.44-.11-4.91-.18-1.84-1.01-3.06-2.48-3.67-.36-.18-.54-.34-.54-.49,0-.29.23-.52.7-.7.47-.18.94-.27,1.4-.27.61,0,1.3.12,2.05.35.76.23,1.35.51,1.78.84.9.68,1.35,1.49,1.35,2.43,0,.18-.11.88-.32,2.11-.14.68-.23,1.13-.27,1.35,1.4.94,2.93,1.79,4.59,2.56,1.65.77,3.08,1.18,4.27,1.22.4.04.78.05,1.16.03.38-.02.73,0,1.05.03.32.04.59.14.81.32.36.22.67.5.92.84ZM200.34,13.88c0-.18-.38-.55-1.13-1.11-.76-.56-1.6-1.14-2.54-1.75l-.27,3.46,1.89-.05c1.37,0,2.05-.18,2.05-.54Z"/>
    </g>
  </g>
</svg>