<?xml version="1.0" encoding="UTF-8"?>
<svg id="_レイヤー_2" data-name="レイヤー 2" xmlns="http://www.w3.org/2000/svg" viewBox="0 0 325 58.89">
  <defs>
    <style>
      .cls-1 {
        fill: none;
        stroke: #dcb259;
        stroke-miterlimit: 10;
        stroke-width: 1.65px;
      }

      .cls-2 {
        fill: #dcb259;
      }

      .cls-3 {
        fill: #fff;
      }
    </style>
  </defs>
  <g id="_テキストデータ" data-name="テキストデータ">
    <g>
      <rect class="cls-2" width="325" height="58.89" rx="27.6" ry="27.6"/>
      <path class="cls-3" d="M40.5,25.26c0,.29.03,2.7.08,2.96.08.43.32.53,1.07.53,1.58,0,2.19-.08,2.64-2.05h.19c.32.93.4,1.31.99,1.68.24.16.27.19.27.4,0,.4-.32.88-.64,1.17-.45.43-.93.59-3.02.59-3.47,0-3.66,0-3.42-5.29h-2.67l1.07.53c.16.08.27.24.27.35,0,.27-.32.35-.88.45-1.39,2.08-3.63,4.3-5.92,5.5l-.16-.21c1.95-2.13,3.18-3.84,4.16-6.62h-4.32v3.74c0,3.1.03,4.32.05,6.54.03,1.07.05,2.8.05,3.23,0,.85-.16,1.55-1.52,1.55-.83,0-.99-.43-.99-.96,0-.24.11-1.44.13-1.73.08-1.5.13-3.1.13-6.54,0-5.55-.03-6.54-.45-8.06l2.91,1.6h8.99c.8-1.36,1.71-3.2,1.63-4.62h-11.5c-1.84,0-2.35.08-2.88.19l-.43-.99c1.2.11,2.56.16,3.79.16h6.64c-.05-1.68-.27-2.56-.85-3.39l3.52.99c.21.05.4.16.4.4,0,.21-.35.51-.85.88-.03.35-.03.59,0,1.12h6.54l1.25-1.33c.16-.16.29-.35.43-.35s.27.13.51.29l2,1.33c.19.11.29.24.29.4,0,.27-.21.29-.4.29h-7.63l1.79.96c.19.11.29.27.29.45,0,.29-.21.37-.83.51-.45.37-2.62,2.29-3.12,2.7h5.31l.8-.83c.16-.19.27-.24.4-.24s.29.08.43.19l1.39,1.07c.11.08.27.27.27.43,0,.27-.19.4-.77.77,0,1.52.03,8.89.03,10.57,0,1.25,0,3.79-3.34,3.76-.32-1.6-.75-2.56-1.95-2.99l.03-.27c.11.03,2.16.29,2.32.29.51,0,.72-.24.75-.75.05-.91.05-7.12.05-9.07,0-.83-.05-1.65-.08-2.29h-5.23ZM32.17,20.24c2.29.37,3.87,1.6,3.87,2.96,0,.67-.45,1.28-1.28,1.28-.96,0-1.15-.72-1.42-1.65-.43-1.6-.99-2.21-1.23-2.48l.05-.11ZM39.94,31.82l.69-.77c.16-.19.27-.24.45-.24.16,0,.29.05.45.19l1.25.96c.11.08.21.21.21.35,0,.24-.19.4-.69.72,0,.53.08,3.15.08,3.76,0,1.65-1.17,1.65-1.36,1.65-.91,0-.85-.64-.83-1.09h-4.94c.08.72-.45,1.41-1.31,1.41-.43,0-.93-.21-.93-.83,0-.32.16-3.07.16-3.63,0-1.17-.05-2.11-.21-3.66l2.67,1.17h4.3ZM35.24,32.46v4.24h4.96v-4.24h-4.96Z"/>
      <path class="cls-3" d="M62,29.9l.83-.91c.08-.11.29-.32.4-.32s.43.21.51.29l1.25.99c.21.16.29.27.29.4,0,.16-.08.24-.85.85.05,1.36.16,6.06.16,7.31,0,.75-.4,1.28-1.39,1.28s-.96-.59-.96-.91c0-.21,0-.32.03-.53h-4.16c-.05,1.2-.08,1.9-1.28,1.9-1.04,0-1.07-.72-1.07-1.12,0-1.01.13-5.55.13-6.46,0-2.67-.11-3.34-.24-4.24l2.8,1.47h3.55ZM58.13,30.54v7.18h4.16v-7.18h-4.16ZM70.33,17.89l.69-.83c.11-.13.24-.29.4-.29.13,0,.35.13.45.21l1.44,1.12c.08.05.21.19.21.37s-.72.72-.83.85c-.03.32-.05.48-.05.91,0,.83.11,4.54.11,5.28,0,.53,0,1.36-1.44,1.36-1.01,0-.93-.72-.85-1.33h-8.06c-.05.8-.11,1.52-1.31,1.52-1.04,0-1.09-.48-1.09-1.07,0-.35.08-1.84.11-2.13.08-1.5.08-2.64.08-3.66,0-1.82-.19-2.99-.32-3.76l2.78,1.44h7.69ZM62.4,18.53v6.38h8.09v-6.38h-8.09ZM74.01,29.93l.83-.91c.13-.13.29-.32.53-.32.13,0,.29.11.45.24l1.28,1.01c.19.13.27.24.27.37,0,.27-.53.61-.8.8,0,.37,0,.72.03,4,0,.61.13,3.55.13,3.82,0,.4,0,1.31-1.33,1.31-1.12,0-1.09-.53-1.09-1.9h-4.46c0,.21,0,1.04-.03,1.23-.11.56-.72.88-1.36.88-1.04,0-1.09-.64-1.09-1.01,0-1.04.27-5.6.27-6.57,0-3.12-.21-3.84-.45-4.62l2.99,1.66h3.84ZM69.85,30.57v7.15h4.48v-7.15h-4.48Z"/>
      <path class="cls-3" d="M102.03,27.13c-.13.11-.21.24-.77,1.47-1.2,2.56-2.4,5.26-5.71,7.9-1.33,1.09-4.35,3.18-7.26,3.26v-.19c2.7-1.07,6.49-4.86,7.21-5.68,1.15-1.31,2.8-3.66,3.98-7.47-1.6.16-8.17.83-9.69,1.47-.16.08-.85.45-1.01.45-.56,0-2.7-1.52-2.7-3.36,0-.29.05-.56.21-.96.21.29.48.69,1.17,1.23.61.45.8.51,1.55.51,1.76,0,10.25-.67,10.57-.83.21-.13.93-1.04,1.15-1.04.27,0,2.38,1.49,2.38,2.19,0,.35-.27.53-1.07,1.07ZM98.48,21.89c-1.25.05-5.2.29-6.32.51-1.2.21-1.33.27-1.71.27-1.25,0-2.46-1.87-2.32-3.2,1.25,1.28,2.72,1.28,3.79,1.28,3.02,0,5.1-.56,5.42-.67.24-.05,1.17-.53,1.39-.53s1.36.4,1.68.56c.37.16.72.43.72.96,0,.69-.43.75-2.64.83Z"/>
      <path class="cls-3" d="M123.72,21.09c-.75.53-1.07.88-1.74,1.6-.43.45-2.27,2.54-2.67,2.96.45.27,1.39.91,1.39,1.28,0,.19-.27.93-.29,1.09-.03.21-.08,1.63-.08,3.34,0,1.04.19,5.63.19,6.54,0,.67-.24,1.84-1.04,1.84s-1.47-1.39-1.47-2.11c0-.27.24-1.47.27-1.71.19-1.52.21-3.02.21-4.54,0-.53,0-3.44-.16-3.98q-.05-.16-.35-.37c-4.06,3.95-7.21,5.26-9.23,5.95l-.11-.16c5.44-3.34,12.57-12.33,12.57-13.42,0-.67-.72-1.28-1.33-1.79.35-.05.69-.11,1.17-.11,1.65,0,3.5,2.08,3.5,2.7,0,.32-.11.4-.83.88Z"/>
      <path class="cls-3" d="M140.21,24.56c-.45,0-.8-.37-1.71-1.28-2.19-2.21-3.5-2.8-4.46-3.26.48-.05.8-.08,1.31-.08.91,0,5.9.37,5.9,3.34,0,.83-.61,1.28-1.04,1.28ZM142.62,33.45c-.99.77-2.59,1.92-3.5,2.75-.16.13-.77.85-.93.93-.13.08-.27.11-.37.11-.96,0-2.86-2.43-2.86-3.74,0-.45.11-.91.19-1.25.85,1.44,1.66,1.82,2.11,1.82.75,0,5.2-3.26,6.17-4,4.35-3.39,6.91-6.27,8.35-7.93l.11.05c-.43,1.71-3.1,6.46-9.26,11.26Z"/>
      <path class="cls-3" d="M177.87,26.78c-.21,0-2.4-.29-2.75-.35-.8-.11-1.36-.11-2.19-.11-1.31,0-2.13.05-2.72.05-.13,2.88-.4,5.82-1.87,8.33-.77,1.31-2.94,4.43-6.7,5.29l-.08-.27c1.15-.8,4.48-3.23,5.95-8.91.45-1.81.56-3.31.59-4.27-1.55.13-4.67.53-5.84,1.31-.56.37-.61.4-.96.4-.61,0-2.99-1.31-2.99-3.52,0-.43.05-.64.11-.91.83,1.17,2.11,1.79,2.88,1.79.4,0,5.92-.51,6.86-.59,0-1.55-.05-3.92-.16-4.56-.13-.72-.88-1.01-2.16-1.42.72-.85,1.73-.88,1.95-.88,1.33,0,3.12.85,3.12,1.79,0,.29-.11.53-.24.75-.29.56-.43.77-.43,2.72v1.41c1.25-.05,3.23-.11,4.46-.24.27-.03,1.39-.43,1.6-.43.43,0,2.8.51,2.8,1.68,0,.88-.72.93-1.23.93Z"/>
      <path class="cls-3" d="M189.28,28.73c0,.69-.37,1.09-.85,1.09-.67,0-.93-.64-1.23-1.33-.43-1.01-1.17-2.11-1.95-2.94,2.11.29,4.03,1.68,4.03,3.18ZM187.26,38.84c7.93-3.79,10.36-12.52,10.36-12.84,0-.53-.83-1.07-1.42-1.39.32-.11.72-.19,1.2-.19,1.23,0,2.7,1.44,2.7,1.81,0,.16-.05.21-.59.83-.13.16-1.31,2.67-1.57,3.15-3.63,6.56-7.85,8.11-10.62,8.86l-.05-.24ZM193.9,27.5c0,.51-.27,1.12-.91,1.12s-.75-.32-1.17-1.49c-.27-.75-.72-1.68-1.6-2.8,2.43.67,3.68,2.05,3.68,3.18Z"/>
      <path class="cls-3" d="M209.88,38.84c2.94-1.63,6.25-4.88,7.71-6.88,1.39-1.92,3.36-5.76,4.11-8.83-4.3.24-10.03,1.09-11.21,1.79-.19.11-.53.32-.75.32-.27,0-2.43-1.28-2.43-3.23,0-.64.19-.99.35-1.31.16.27.45.8,1.33,1.52.43.32.77.45,1.49.45.61,0,9.98-.83,11.02-1.2.19-.08.91-.64,1.09-.64.21,0,.32.11,1.25,1.12.99,1.07,1.12,1.2,1.12,1.49s-.11.37-1.04.93c-.27.16-.29.24-.61,1.09-2.24,6-4.67,8.38-5.95,9.5-2,1.79-5.1,3.71-7.5,4.03v-.16ZM229.29,19.81c0,1.39-1.15,2.54-2.54,2.54s-2.54-1.15-2.54-2.54,1.15-2.54,2.54-2.54,2.54,1.12,2.54,2.54ZM225.31,19.81c0,.8.64,1.44,1.44,1.44s1.42-.67,1.42-1.44c0-.83-.67-1.44-1.42-1.44s-1.44.61-1.44,1.44Z"/>
      <path class="cls-3" d="M258.37,35.05c-1.01,0-5.58-2.86-7.77-4.91-.77-.72-4.91-4.59-5.68-5.34-.11-.11-.51-.43-1.04-.43-1.09,0-3.07,2.48-4.06,3.74-1.66,2.11-1.84,2.32-2.48,2.32-.48,0-2.67-.61-2.67-2.46,0-.24.05-.37.19-.64.27.19.75.51,1.49.51,1.12,0,3.47-2.27,4.51-3.28,1.52-1.49,2.32-1.87,3.1-1.87,1.01,0,1.65.53,2.59,1.47,4.38,4.3,6.75,5.5,10.57,7.39,1.23.61,2.22,1.28,2.22,2.43,0,.32,0,1.07-.96,1.07Z"/>
      <circle class="cls-3" cx="289.11" cy="29.44" r="14.72"/>
      <polyline class="cls-1" points="283.66 21.3 294.57 29.44 283.66 37.59"/>
    </g>
  </g>
</svg>