<?xml version="1.0" encoding="UTF-8"?>
<svg id="_レイヤー_2" data-name="レイヤー 2" xmlns="http://www.w3.org/2000/svg" viewBox="0 0 409 64">
  <defs>
    <style>
      .cls-1 {
        fill: none;
        stroke: #dcb259;
        stroke-miterlimit: 10;
        stroke-width: 1.79px;
      }

      .cls-2 {
        fill: #dcb259;
      }

      .cls-3 {
        fill: #fff;
      }
    </style>
  </defs>
  <g id="_テキストデータ" data-name="テキストデータ">
    <g>
      <rect class="cls-2" width="409" height="64" rx="28" ry="28"/>
      <path class="cls-3" d="M78.1,27.45c0,.32.03,2.93.09,3.22.09.46.35.58,1.16.58,1.71,0,2.38-.09,2.87-2.23h.2c.35,1.02.44,1.42,1.07,1.83.26.17.29.2.29.43,0,.43-.35.96-.7,1.28-.49.46-1.02.64-3.28.64-3.77,0-3.97,0-3.71-5.74h-2.9l1.16.58c.17.09.29.26.29.38,0,.29-.35.38-.96.49-1.51,2.26-3.94,4.67-6.44,5.97l-.17-.23c2.12-2.32,3.45-4.18,4.52-7.19h-4.7v4.06c0,3.37.03,4.7.06,7.11.03,1.16.06,3.05.06,3.51,0,.93-.17,1.68-1.65,1.68-.9,0-1.07-.46-1.07-1.04,0-.26.12-1.57.15-1.89.09-1.62.15-3.37.15-7.11,0-6.03-.03-7.11-.49-8.76l3.16,1.74h9.78c.87-1.48,1.86-3.48,1.77-5.02h-12.5c-2,0-2.55.09-3.13.2l-.46-1.07c1.31.12,2.78.17,4.12.17h7.22c-.06-1.83-.29-2.79-.93-3.68l3.83,1.07c.23.06.44.17.44.44,0,.23-.38.55-.93.96-.03.38-.03.64,0,1.22h7.11l1.36-1.45c.17-.17.32-.38.46-.38s.29.15.55.32l2.18,1.45c.2.12.32.26.32.44,0,.29-.23.32-.44.32h-8.3l1.94,1.04c.2.12.32.29.32.49,0,.32-.23.41-.9.55-.49.41-2.84,2.49-3.39,2.93h5.77l.87-.9c.17-.2.29-.26.44-.26s.32.09.46.2l1.51,1.16c.12.09.29.29.29.46,0,.29-.2.44-.84.84,0,1.65.03,9.66.03,11.49,0,1.36,0,4.12-3.63,4.09-.35-1.74-.81-2.78-2.12-3.25l.03-.29c.12.03,2.35.32,2.52.32.55,0,.78-.26.81-.81.06-.99.06-7.75.06-9.86,0-.9-.06-1.8-.09-2.49h-5.69ZM69.05,21.99c2.49.41,4.21,1.74,4.21,3.22,0,.73-.49,1.39-1.39,1.39-1.04,0-1.25-.78-1.54-1.8-.46-1.74-1.07-2.41-1.33-2.7l.06-.12ZM77.49,34.58l.75-.84c.17-.2.29-.26.49-.26.17,0,.32.06.49.2l1.36,1.04c.12.09.23.23.23.38,0,.26-.2.44-.75.78,0,.58.09,3.42.09,4.09,0,1.8-1.28,1.8-1.48,1.8-.99,0-.93-.7-.9-1.19h-5.37c.09.78-.49,1.54-1.42,1.54-.46,0-1.02-.23-1.02-.9,0-.35.17-3.33.17-3.94,0-1.28-.06-2.29-.23-3.97l2.9,1.28h4.67ZM72.39,35.28v4.61h5.4v-4.61h-5.4Z"/>
      <path class="cls-3" d="M103.21,32.49l.9-.99c.09-.12.32-.35.44-.35s.46.23.55.32l1.36,1.07c.23.17.32.29.32.44,0,.17-.09.26-.93.93.06,1.48.17,6.58.17,7.95,0,.81-.44,1.39-1.51,1.39s-1.04-.64-1.04-.99c0-.23,0-.35.03-.58h-4.53c-.06,1.31-.09,2.06-1.39,2.06-1.13,0-1.16-.78-1.16-1.22,0-1.1.15-6.03.15-7.02,0-2.9-.12-3.63-.26-4.61l3.05,1.59h3.86ZM99.01,33.19v7.8h4.52v-7.8h-4.52ZM112.26,19.44l.75-.9c.12-.15.26-.32.44-.32.15,0,.38.15.49.23l1.57,1.22c.09.06.23.2.23.41s-.78.78-.9.93c-.03.35-.06.52-.06.99,0,.9.12,4.93.12,5.74,0,.58,0,1.48-1.57,1.48-1.1,0-1.02-.78-.93-1.45h-8.76c-.06.87-.12,1.65-1.42,1.65-1.13,0-1.19-.52-1.19-1.16,0-.38.09-2,.12-2.32.09-1.62.09-2.87.09-3.97,0-1.97-.2-3.25-.35-4.09l3.02,1.57h8.35ZM103.65,20.14v6.93h8.79v-6.93h-8.79ZM116.27,32.52l.9-.99c.15-.14.32-.35.58-.35.15,0,.32.12.49.26l1.39,1.1c.2.14.29.26.29.41,0,.29-.58.67-.87.87,0,.41,0,.78.03,4.35,0,.67.15,3.86.15,4.15,0,.44,0,1.42-1.45,1.42-1.22,0-1.19-.58-1.19-2.06h-4.84c0,.23,0,1.13-.03,1.33-.12.61-.78.96-1.48.96-1.13,0-1.19-.7-1.19-1.1,0-1.13.29-6.09.29-7.13,0-3.39-.23-4.18-.49-5.02l3.25,1.8h4.18ZM111.74,33.22v7.77h4.87v-7.77h-4.87Z"/>
      <path class="cls-3" d="M147.9,30.49l1.6-2.06c.2-.26.32-.35.44-.35.2,0,.46.23.55.32l2.41,2.12c.17.17.35.29.35.49,0,.26-.23.35-.49.35h-21.23c-1.77,0-2.41.06-3.13.2l-.46-1.25c1.36.12,2.73.17,4.12.17h15.87Z"/>
      <path class="cls-3" d="M176.15,38.04c-.03.46-.06,2.58.15,2.87.2.29,1.04.29,1.25.29h4.61c.99,0,1.25-.2,1.65-.87.61-1.01,1.13-2.78,1.36-3.71h.17c.12.7.52,2.96.84,3.31.12.12.73.55.78.67.09.14.06.29.06.38,0,1.51-1.89,2.38-3.45,2.38h-6.32c-2.99,0-3.51-.09-3.51-2.99v-2.32h-2.67l1.04.52c.26.12.44.35.44.58,0,.38-.29.46-1.1.75-2.12,1.83-5.16,4.06-11.4,4.12v-.17c5.31-1.3,8.79-4.87,9.46-5.77h-2.2c-.26,1.13-1.6,1.13-1.77,1.13-.38,0-.87-.12-.87-.96,0-.06,0-.38.03-.9.2-2.32.23-3.19.23-4.12,0-.17,0-2.84-.32-4.44l2.87.93h11.17l.93-1.04c.12-.15.26-.2.38-.2.09,0,.2-.03.64.32l1.19.9c.15.12.38.29.38.7,0,.29-.12.35-.93,1.1,0,.96.2,5.25.2,6.12,0,1.42-1.54,1.45-1.71,1.45-.78,0-.84-.55-.87-1.02h-2.7ZM168.72,20.02v1.77h1.33l.87-.7c.09-.09.23-.15.35-.15.17,0,.29.09.49.23l1.16.96c.09.06.2.17.2.29,0,.14-.58.75-.67.84,0,.29.06,1.77.06,2.09,0,.2,0,.26-.12.38.06.06.12.09.15.14l1.13,1.07c.06.06.26.26.26.43,0,.29-.26.32-.44.32h-9.19v.72c0,.46,0,.72-.44.99-.32.2-.7.32-.99.32-.96,0-.96-.67-.96-1.02,0-.09.03-.23.03-.38.09-1.28.12-4.21.12-5.25,0-3.08-.09-3.42-.41-4.7l2.76.93h6.24l.7-.96c.23-.32.35-.38.46-.38.2,0,.49.29.52.32l.96.99c.09.12.29.29.29.43,0,.29-.29.29-.46.29h-4.41ZM164.31,20.02v1.77h2.2v-1.77h-2.2ZM164.31,22.49v1.86h5.89v-1.86h-5.89ZM164.31,25.04v1.97h2.2v-1.97h-2.2ZM178.85,32.21v-1.8h-11.54v1.8h11.54ZM178.85,34.7v-1.8h-11.54v1.8h11.54ZM178.85,37.34v-1.94h-11.54v1.94h11.54ZM171.48,26.08c-.17.06-.32.06-.49.06-.81,0-.81-.26-.78-1.1h-1.48v1.97h2.12l.64-.93ZM179.63,18.8c.17.09.29.2.29.41,0,.35-.23.44-.99.7-.46.64-.87,1.19-1.57,2.03h5.02l1.1-1.33c.26-.32.29-.35.44-.35.23,0,.49.26.52.29l1.36,1.33c.12.12.26.29.26.44,0,.29-.29.32-.44.32h-8.91c-1.04,1.01-2.06,1.8-3.8,2.78l-.09-.17c1.02-1.16,3.68-5.25,3.94-7.72l2.84,1.28ZM181.23,26.05l.96-1.13c.29-.35.32-.38.46-.38.09,0,.2.03.52.32l1.33,1.13c.15.12.29.23.29.43,0,.26-.23.32-.44.32h-6.9c-.15,0-.7,0-1.33.09l-.46-.87c1.07.06,2.12.09,2.32.09h3.25Z"/>
      <path class="cls-3" d="M198.88,38.44c-.03.29-.06.64-.06.96,0,.35.26,1.83.26,2.12,0,.35,0,1.1-1.02,1.1-2.58,0-2.78-6.18-2.78-7.57,0-2.84.46-5.71.78-7.51.35-1.8.67-3.54.67-3.97,0-.38,0-1.07-1.22-2.29.41-.29.73-.29.93-.29,1.45,0,3.1,1.25,3.1,2.61,0,.41-.12.67-.44,1.42-2.06,4.58-2.12,7.83-2.12,8.99,0,.38.06,2.93.49,2.93.12,0,.23-.06.44-.49.12-.32,1.19-2.81,2.15-5.42l.32.06c-.03.06-1.51,7.34-1.51,7.37ZM216.58,41.17c-.44,0-.81-.14-1.65-.78-1.42-1.13-1.97-1.48-2.46-1.77-.29.84-1.04,3.31-4.79,3.31-1.8,0-4.76-.78-4.76-3.22,0-2.09,1.97-3.13,4.9-3.13,1.19,0,2.06.15,2.87.26-.15-2-.23-3.8-.38-7.83-.99.15-1.71.17-2.35.17-2.79,0-4.44-1.07-4.96-2.26,2.29.49,2.93.61,3.89.61.35,0,1.71-.06,3.37-.32-.14-3.77-.17-4.21-.35-4.64-.2-.49-1.25-.84-1.92-1.04.49-.61,1.25-.96,2.03-.96.7,0,2.76.64,2.76,1.8,0,.2-.32,1.54-.38,1.77-.2.9-.26,1.77-.29,2.7.2-.03.55-.12.99-.26.2-.06,1.74-.52,2.47-.52.44,0,1.68.29,1.68,1.07,0,.46-.35.75-.72.87-.93.32-2.29.61-4.44.81.09,3.42.38,6.79.55,8.62,1.71.61,3.07,1.31,3.74,1.71.67.43,1.22.9,1.22,1.74,0,.99-.61,1.31-1.01,1.31ZM207.15,37.08c-1.6,0-3.28.38-3.28,1.39,0,.52.67,1.48,2.96,1.48,1.31,0,3.31-.32,3.57-2.38-.58-.23-1.36-.49-3.25-.49Z"/>
      <path class="cls-3" d="M247.38,40.18c-1.48.87-6.21.87-7.74.87-2.87,0-5.8-.12-7.95-1.36-1.28-.73-2.93-2.2-2.93-4.38,0-.84.46-2.96,1.86-3.71-.35,1.22-.35,2.12-.35,2.26,0,1.97,1.45,4.82,7.11,4.82,2.32,0,5.22-.2,7.4-.9.2-.06.35-.09.61-.09.96,0,2.58.58,2.58,1.51,0,.52-.38.87-.58.99ZM243.63,25.5c-.29,0-1.65-.06-1.91-.06-2.12,0-3.45.52-6.79,1.92l-.12-.17c.46-.46,3.19-2.52,3.19-2.64s-2.23-.46-2.61-.55c-.26-.06-3.86-.84-3.77-3.83,1.51,1.6,3.22,2.15,7.19,2.15.49,0,2.61-.03,3.02,0,1.02.06,3.22.7,3.22,2.06,0,1.02-.99,1.13-1.42,1.13Z"/>
      <path class="cls-3" d="M270.78,43.37c-1.33,0-2.2-.09-2.93-.15v-.2c4.5-.49,11.02-2.15,11.02-7.54,0-1.54-.7-3.57-3.6-3.57s-5.89,2.23-7.71,4.55c-.12.14-.55.78-.64.9-.17.23-.44.38-.72.38-.73,0-1.71-1.51-1.71-2.35,0-.32.58-1.71.67-2,.38-1.31.72-3.74,1.13-6.56-1.39.2-2.18.23-2.55.23-1.45,0-3.48-.46-3.45-2.46.81.58,2.03.72,3.04.72.55,0,1.36-.03,3.22-.44.14-1.1.38-3.02.38-3.31,0-.84-.23-1.91-2.47-2.49.29-.23.75-.61,1.68-.61.87,0,3.92.96,3.92,2.06,0,.32-.03.41-.49,1.19-.32.55-.35.64-.87,2.64.72-.2,2.06-.58,3.6-1.48.61-.35.78-.41,1.13-.41.78,0,2.15.49,2.15,1.19,0,.38-.32.55-.67.7-3.71,1.45-4.93,1.74-6.73,2.15-.46,2.06-1.07,4.7-1.13,6.93.78-.23,1.04-.32,3.34-1.25.75-.29,2.96-1.13,5.02-1.13s5.92,1.42,5.92,5.45c0,2.84-2.38,6.84-10.53,6.84Z"/>
      <path class="cls-3" d="M302.47,42.65c-.96,0-1.6-.06-2.12-.09v-.2c1.77-.29,5.19-1.04,8.12-3.02,1.62-1.07,2.64-2.41,2.64-4.38,0-1.39-.75-3.68-3.39-3.68-3.57,0-6.64,2.52-8.67,5.05-.12.17-.58.9-.7,1.04-.38.52-.64.55-.84.55-1.19,0-1.68-1.62-1.68-2.41s.14-1.33.2-1.6c.52-1.97.67-5.92.67-6.47,0-2.61,0-3.89,4-4.93.17-.06.93-.14,1.07-.23.03-.03.06-.09.06-.15,0-.14-.09-.23-.99-.87-.46-.32-1.36-1.36-1.36-2.84,1.8,1.36,2.03,1.45,4.09,2.12.93.29,2.64,1.04,2.64,2.99,0,.44-.09,1.1-.73,1.1-.26,0-.49-.03-1.33-.43-1.07-.55-2.29-.73-3.42-.73-.7,0-2.87.2-2.87,1.33,0,.49.2.87.67,1.62.23.38.41.81.41,1.31,0,.46-.12.81-.49,1.94-.23.67-.7,2.87-.7,3.6,0,.17.03.64.35.64.23,0,1.97-1.16,2.35-1.39,2.29-1.28,4.82-2.23,7.43-2.23,4.29,0,5.8,2.9,5.8,5.08,0,4.03-4.26,7.28-11.2,7.28Z"/>
      <circle class="cls-3" cx="346" cy="32" r="16"/>
      <polyline class="cls-1" points="340.08 23.15 351.92 32 340.08 40.85"/>
    </g>
  </g>
</svg>