<?xml version="1.0" encoding="UTF-8"?>
<svg id="_レイヤー_2" data-name="レイヤー 2" xmlns="http://www.w3.org/2000/svg" viewBox="0 0 231.17 50.04">
  <defs>
    <style>
      .cls-1 {
        fill: #1a1a1a;
      }
    </style>
  </defs>
  <g id="_ベース" data-name="ベース">
    <g>
      <path class="cls-1" d="M40.93,14.94c.11-.14.25-.35.43-.62.18-.27.33-.48.46-.62.13-.14.26-.22.41-.22.29,0,1.03.5,2.24,1.51,1.21,1.01,1.95,1.78,2.24,2.32.11.18.07.36-.11.54-.65.5-1.31.79-2,.86v25.54c0,1.15-.13,2.09-.38,2.81-.25.72-.78,1.32-1.59,1.81-.81.49-2.02.82-3.65,1h-.11c-.18,0-.31-.13-.38-.38-.11-.65-.23-1.17-.38-1.57-.14-.4-.36-.74-.65-1.03-.86-.72-2.18-1.22-3.94-1.51-.29-.07-.43-.22-.43-.43,0-.32.14-.45.43-.38,3.02.25,4.95.38,5.78.38.47,0,.78-.09.94-.27.16-.18.24-.47.24-.86v-25.92h-10.64v4.81c0,.58.04.92.14,1.03.09.11.37.16.84.16h4.64c.29,0,.49-.02.62-.05.13-.04.22-.14.3-.32.22-.29.5-1.21.86-2.75.04-.25.2-.38.49-.38.22,0,.32.14.32.43l.11,2.59c.58.29.94.5,1.08.65.14.14.22.36.22.65,0,.76-.32,1.33-.95,1.73-.63.4-1.67.59-3.1.59h-5.02c-1.19,0-2.06-.11-2.62-.32-.56-.22-.94-.63-1.13-1.24-.2-.61-.3-1.57-.3-2.86v-4.7h-5.08c-.65,3.1-1.94,5.58-3.86,7.45-1.93,1.87-4.56,3.38-7.91,4.54h-.11c-.18,0-.32-.09-.43-.27v-.05c-.11-.25-.04-.43.22-.54,2.45-1.3,4.28-2.83,5.51-4.62,1.22-1.78,2.05-3.95,2.48-6.51H7.78v17.66c.07,4.46.22,8.6.43,12.42,0,.18-.05.34-.16.49-.32.4-.83.76-1.51,1.08-.68.32-1.4.49-2.16.49-.32,0-.61-.11-.86-.32-.25-.22-.38-.47-.38-.76.14-2.12.27-4.19.38-6.18.11-2,.18-4.62.22-7.86v-9.83c0-4.25-.2-7.74-.59-10.48v-.11c0-.14.04-.23.11-.27.07-.04.18-.02.32.05l4.59,2.05h8.32c-.14-.04-.29-.13-.43-.27-.14-.07-.25-.23-.32-.49-.11-1.01-.4-2.05-.89-3.13-.49-1.08-1.04-2.09-1.65-3.02-.18-.25-.22-.41-.11-.49l.16-.11h-4.21c-2.23.04-4.7.27-7.4.7h-.16c-.14,0-.27-.09-.38-.27L.05,7.33s-.05-.11-.05-.22c0-.18.14-.27.43-.27,1.94.18,4.12.31,6.53.38h14.85c0-2.63-.13-4.82-.38-6.59,0-.36.16-.49.49-.38,2.05.5,3.48.93,4.29,1.27.81.34,1.22.64,1.22.89,0,.18-.16.36-.49.54l-.92.59v3.67h13.66l1.35-1.84c.14-.18.35-.45.62-.81.27-.36.49-.63.65-.81.16-.18.31-.27.46-.27.32,0,1.18.57,2.56,1.7,1.39,1.13,2.22,1.97,2.51,2.51.11.18.11.36,0,.54-.22.4-.63.59-1.24.59h-15.12c3.31.61,4.97,1.13,4.97,1.57,0,.14-.16.29-.49.43l-.92.38c-1.69,2.12-3.2,3.83-4.54,5.13h9.5l.92-1.4ZM13.77,8.84c2.02.61,3.5,1.41,4.46,2.4.95.99,1.43,1.97,1.43,2.94,0,.47-.11.9-.32,1.3-.22.4-.5.68-.86.86h10.1c1.01-2.81,1.75-5.31,2.21-7.51H13.77ZM29.81,28.87c.11-.14.3-.39.57-.73.27-.34.51-.51.73-.51.32,0,.96.41,1.92,1.24.95.83,1.56,1.49,1.81,2,.11.14.07.31-.11.49-.36.36-.88.59-1.57.7v3.83c.11,3.13.22,5.45.32,6.97,0,.22-.07.4-.22.54-.29.29-.77.55-1.46.78-.68.23-1.3.35-1.84.35-.4,0-.67-.27-.81-.81,0-.07.04-.25.11-.54l.11-.65v-1.03h-10.8v2.38c0,.22-.35.48-1.05.78-.7.31-1.41.46-2.13.46-.29,0-.5-.11-.65-.32-.14-.22-.22-.47-.22-.76.11-1.04.18-2.07.22-3.08l.05-1.46v-2.86c0-2.88-.14-5.58-.43-8.1v-.11c0-.14.04-.23.11-.27.07-.04.18-.02.32.05l4.05,1.84h10.1l.86-1.19ZM18.58,31.63v8.26h10.8v-8.26h-10.8Z"/>
      <path class="cls-1" d="M67.66,45.88c.04.47.05.85.05,1.13s.02.52.05.7l.05.22c0,.36-.37.74-1.11,1.13-.74.4-1.54.59-2.4.59-.32,0-.58-.11-.76-.32-.18-.22-.27-.47-.27-.76.14-1.94.27-4.57.38-7.88v-4.48c0-4.25-.2-7.74-.59-10.48v-.11c0-.25.14-.32.43-.22l4.43,1.89h9.23l.92-1.19c.14-.14.35-.39.62-.73.27-.34.51-.51.73-.51.32,0,1.06.44,2.21,1.32,1.15.88,1.87,1.58,2.16,2.08.11.14.07.31-.11.49-.47.43-1.12.72-1.94.86v5.94c.11,4.97.23,8.69.38,11.18,0,.22-.07.4-.22.54-.32.32-.86.64-1.59.94-.74.31-1.41.46-2.03.46-.22,0-.4-.08-.54-.24-.14-.16-.23-.35-.27-.57,0-.22.02-.4.05-.54l.16-1.3v-1.35h-10.04v1.19ZM67.66,28.87v14.26h10.04v-14.26h-10.04ZM94.23,2.2c.14-.18.29-.38.43-.59.14-.22.3-.41.46-.59.16-.18.31-.27.46-.27.29,0,1.02.51,2.19,1.54,1.17,1.03,1.9,1.81,2.19,2.35.11.14.07.31-.11.49-.4.4-1.04.68-1.94.86v5.35c.11,4.46.23,7.81.38,10.04,0,.22-.07.4-.22.54-.32.32-.86.64-1.59.94-.74.31-1.41.46-2.03.46-.47,0-.77-.27-.92-.81,0-.22.02-.4.05-.54l.16-1.3v-1.35h-17.66v.97l.11,1.4v.27c0,.11-.02.2-.05.27-.29.32-.78.64-1.49.94-.7.31-1.41.46-2.13.46-.29,0-.51-.11-.67-.32-.16-.22-.24-.47-.24-.76.14-1.66.25-3.78.32-6.37v-3.73c0-4.25-.2-7.74-.59-10.48v-.11c0-.25.14-.32.43-.22l4.64,2h16.85l.97-1.46ZM93.74,17.7V5.22h-17.66v12.47h17.66ZM91.8,45.94l.16,1.89.05.22c0,.36-.41.74-1.22,1.13-.81.4-1.63.59-2.46.59-.29,0-.52-.11-.7-.32-.18-.22-.27-.47-.27-.76.18-1.98.31-4.63.38-7.94v-4.54c0-4.25-.2-7.74-.59-10.48v-.11c0-.25.14-.32.43-.22l4.43,1.89h9.61l.92-1.19c.14-.14.35-.39.62-.73.27-.34.51-.51.73-.51.32,0,1.06.44,2.21,1.32,1.15.88,1.89,1.58,2.21,2.08.11.14.07.31-.11.49-.47.4-1.13.7-2,.92v6.05c.11,5.08.23,8.91.38,11.5,0,.22-.07.4-.22.54-.32.29-.86.57-1.59.84-.74.27-1.4.4-1.97.4-.43,0-.72-.27-.86-.81,0-.22.02-.4.05-.54l.16-1.51v-1.46h-10.37v1.24ZM91.8,28.87v14.26h10.37v-14.26h-10.37Z"/>
      <path class="cls-1" d="M125.33,9.97h.11c.25,0,.41.14.49.43.47,1.91.7,3.74.7,5.51,0,1.4-.13,2.66-.41,3.75-.27,1.1-.62,1.97-1.05,2.62-.32.47-.71.83-1.16,1.08s-.89.38-1.32.38c-.47,0-.86-.18-1.19-.54-.22-.32-.32-.68-.32-1.08,0-.76.34-1.48,1.03-2.16.68-.9,1.3-2.25,1.86-4.05.56-1.8.84-3.56.84-5.29,0-.43.14-.65.43-.65ZM128.9,11c0-3.92-.2-7.43-.59-10.53v-.11c0-.29.16-.38.49-.27,2.02.58,3.42,1.04,4.21,1.38.79.34,1.19.64,1.19.89,0,.18-.14.36-.43.54l-.92.59v32.13c.07,4.46.22,8.6.43,12.42,0,.18-.05.34-.16.49-.32.4-.82.75-1.48,1.05-.67.31-1.32.46-1.97.46-.36,0-.68-.11-.95-.32-.27-.22-.4-.47-.4-.76.14-2.12.27-4.19.38-6.18.11-2,.18-4.62.22-7.86V11ZM133.76,8.52c.22-.11.43-.11.65,0,1.62,1.04,2.82,2.12,3.59,3.24.77,1.12,1.16,2.18,1.16,3.19,0,.72-.18,1.31-.54,1.78-.36.47-.79.7-1.3.7-.43,0-.85-.18-1.24-.54-.14-.14-.22-.32-.22-.54-.07-1.12-.32-2.34-.76-3.67-.43-1.33-.94-2.54-1.51-3.62-.11-.25-.05-.43.16-.54ZM161.95,10.51c.14-.18.32-.42.51-.73.2-.31.37-.53.51-.68.14-.14.29-.22.43-.22.29,0,1.01.48,2.16,1.43,1.15.95,1.85,1.68,2.11,2.19l.05.22c0,.29-.14.51-.41.68-.27.16-.6.24-1,.24h-11.61v4.81h8.32l1.13-1.62c.11-.18.28-.42.51-.73.23-.31.42-.54.57-.7.14-.16.29-.24.43-.24.32,0,1.07.5,2.24,1.48,1.17.99,1.88,1.75,2.13,2.29.04.18.02.36-.05.54-.22.4-.65.59-1.3.59h-22.9c-2.3.04-4.88.27-7.72.7h-.16c-.14,0-.27-.09-.38-.27l-.92-1.94s-.05-.11-.05-.22c0-.18.12-.27.38-.27,1.98.18,4.18.31,6.59.38h7.13v-4.81h-3.29c-1.98.07-3.87.31-5.67.7h-.16c-.14,0-.27-.09-.38-.27l-.97-1.89s-.05-.11-.05-.22c0-.18.13-.27.38-.27,1.98.18,4.18.31,6.59.38h3.56v-4.48h-4.1c-2.12.04-4.52.27-7.18.7h-.16c-.14,0-.27-.09-.38-.27l-.92-1.89s-.05-.11-.05-.22c0-.18.13-.27.38-.27,1.98.18,4.18.31,6.59.38h5.83c0-1.8-.09-3.56-.27-5.29,0-.36.16-.49.49-.38,1.94.54,3.28.97,4.02,1.3.74.32,1.11.61,1.11.86,0,.11-.14.27-.43.49l-.86.54v2.48h7.4l1.13-1.62c.11-.18.28-.42.51-.73.23-.31.42-.54.57-.7.14-.16.29-.24.43-.24.32,0,1.07.49,2.24,1.46,1.17.97,1.9,1.73,2.19,2.27.04.18.02.36-.05.54-.22.4-.61.59-1.19.59h-13.23v4.48h6.16l1.08-1.57ZM145.48,41.78l.05,2.05c.04,1.51.11,2.88.22,4.1,0,.22-.05.4-.16.54-.25.36-.71.69-1.38,1s-1.36.46-2.08.46c-.32,0-.6-.11-.84-.32-.23-.22-.35-.47-.35-.76.25-3.1.41-6.53.49-10.31v-5.72c0-4.25-.2-7.74-.59-10.48v-.11c0-.25.14-.32.43-.22l4.54,2h14.42l.86-1.24c.11-.14.29-.39.54-.73.25-.34.49-.51.7-.51.32,0,1.08.46,2.27,1.38s1.94,1.63,2.27,2.13c.11.14.07.31-.11.49-.4.4-1.06.68-2,.86v18.04c0,1.15-.12,2.08-.35,2.78s-.72,1.28-1.46,1.73c-.74.45-1.83.76-3.27.94h-.11c-.25,0-.38-.13-.38-.38-.11-1.22-.4-2.09-.86-2.59-.61-.68-1.71-1.17-3.29-1.46-.25-.07-.38-.22-.38-.43,0-.25.11-.38.32-.38.79,0,1.67.05,2.65.16l2.05.11c.4,0,.67-.08.81-.24.14-.16.22-.44.22-.84v-5.4h-15.23v3.35ZM160.7,30.39v-4.75h-15.23v4.75h15.23ZM145.48,31.95v4.91h15.23v-4.91h-15.23Z"/>
      <path class="cls-1" d="M204.82,25.28c1.15.99,1.85,1.75,2.11,2.29l.05.22c0,.29-.13.51-.41.67s-.6.24-1,.24h-9.61v7.45h3.56l1.13-1.73c.11-.14.27-.39.49-.73.22-.34.4-.59.57-.76s.31-.24.46-.24c.29,0,1.01.52,2.16,1.57,1.15,1.04,1.85,1.84,2.11,2.38l.05.22c0,.29-.13.5-.41.65-.27.14-.6.22-1,.22h-9.13v3.73c.11,3.06.22,5.33.32,6.8,0,.22-.05.4-.16.54-.32.32-.78.61-1.38.86-.59.25-1.29.38-2.08.38-.32,0-.58-.11-.76-.32-.18-.22-.27-.47-.27-.76.18-1.76.3-4.14.38-7.13v-4.1h-2.92c-1.62.04-3.22.25-4.81.65-.29.07-.47,0-.54-.22l-.92-1.89s-.05-.11-.05-.22c0-.18.13-.27.38-.27,1.73.18,3.65.31,5.78.38h3.08v-7.45h-3.13c-1.76.04-3.55.25-5.35.65-.29.07-.47,0-.54-.22l-.92-1.94s-.05-.11-.05-.22c0-.18.13-.27.38-.27,1.98.18,4.18.31,6.59.38h6.97c.43-1.48.78-3.1,1.05-4.89.27-1.78.44-3.38.51-4.78h-6.26c-2.3.04-4.88.27-7.72.7h-.16c-.14,0-.27-.09-.38-.27l-.92-1.84s-.05-.11-.05-.22c0-.18.13-.27.38-.27,1.91.18,4.01.31,6.32.38h3.29v-6.8h-2.7c-1.51.04-3.01.25-4.48.65h-.16c-.14,0-.27-.09-.38-.27l-.92-1.84-.05-.22c0-.18.14-.27.43-.27,1.58.18,3.38.31,5.4.38h2.86c0-2.56-.14-4.93-.43-7.13,0-.36.18-.49.54-.38,1.91.54,3.24.97,4,1.3s1.13.59,1.13.81c0,.11-.06.21-.19.3-.13.09-.21.15-.24.19l-.86.54v4.37h3.08l1.08-1.62c.14-.22.31-.48.51-.78.2-.31.37-.53.51-.67.14-.14.29-.22.43-.22.22,0,.67.28,1.35.84.68.56,1.32,1.16,1.92,1.81.59.65.89,1.1.89,1.35-.04.29-.18.5-.43.65-.25.14-.56.22-.92.22h-8.42v6.8h4.05l1.13-1.73c.18-.22.38-.49.59-.81.22-.32.4-.57.54-.73.14-.16.29-.24.43-.24.22,0,.68.3,1.4.89.72.59,1.39,1.22,2,1.89.61.67.92,1.13.92,1.38-.04.58-.49.86-1.35.86h-7.51c1.87.61,3.19,1.09,3.94,1.43.76.34,1.13.62,1.13.84,0,.11-.16.23-.49.38l-.97.38c-.18.29-.74,1.16-1.67,2.62-.94,1.46-1.91,2.8-2.92,4.02h2.81l1.08-1.62c.11-.18.28-.42.51-.73.23-.31.42-.54.57-.7.14-.16.29-.24.43-.24.32,0,1.06.5,2.21,1.49ZM188.19,26.39c-.14-.14-.21-.32-.21-.54,0-2.09-.59-4.5-1.78-7.24-.04-.14-.04-.26,0-.35.04-.09.09-.15.16-.19.18-.07.36-.05.54.05,1.69.94,2.92,1.96,3.7,3.08.77,1.12,1.16,2.18,1.16,3.19,0,.76-.2,1.39-.59,1.89-.4.5-.88.76-1.46.76-.47,0-.97-.22-1.51-.65ZM230.9,45.61c.18.11.27.22.27.32,0,.14-.03.24-.08.3s-.17.1-.35.14c-.68.14-1.31.47-1.89.97-.58.5-1.04,1.13-1.4,1.89-.04.14-.11.23-.21.27-.11.04-.22,0-.32-.11-2.52-1.87-4.68-4.18-6.48-6.91-2.38,3.02-5,5.45-7.88,7.29-.25.14-.45.09-.59-.16l-.05-.05c-.18-.22-.14-.41.11-.59,2.63-2.34,4.91-5.38,6.86-9.13-2.2-4.18-3.76-9.5-4.7-15.98h-2.59v11.56c.07,4.46.22,8.6.43,12.42,0,.18-.05.34-.16.49-.29.47-.75.86-1.38,1.19-.63.32-1.34.49-2.13.49-.36,0-.67-.11-.92-.32s-.38-.47-.38-.76c.14-2.12.27-4.19.38-6.18.11-2,.18-4.62.22-7.86V12.67c0-4.25-.2-7.74-.59-10.48v-.11c0-.14.04-.23.13-.27.09-.04.21-.02.35.05l4.32,2.05h11.18l.86-1.35c.11-.14.25-.34.43-.59.18-.25.33-.44.46-.57.12-.13.26-.19.4-.19.32,0,1.06.48,2.21,1.43,1.15.95,1.87,1.7,2.16,2.24.11.18.07.36-.11.54-.58.43-1.22.68-1.94.76v7.61c0,1.04-.13,1.91-.4,2.59-.27.68-.81,1.25-1.62,1.7-.81.45-2.01.77-3.59.94h-.11c-.18,0-.31-.13-.38-.38-.18-1.12-.54-1.93-1.08-2.43-1.08-.68-2.43-1.13-4.05-1.35-.29-.07-.43-.23-.43-.49,0-.32.14-.45.43-.38,3.02.25,5.08.38,6.16.38.43,0,.73-.08.89-.24s.24-.44.24-.84v-7.88h-11.99v16.85h12.1l1.03-1.19c.14-.14.37-.39.68-.73.3-.34.57-.51.78-.51.32,0,.98.44,1.97,1.32.99.88,1.61,1.59,1.86,2.13.11.14.07.31-.11.49-.29.29-.86.49-1.73.59-1.15,5.65-2.99,10.58-5.51,14.8,2.41,2.66,5.17,4.81,8.26,6.43ZM215.19,23.85c1.08,4.79,2.86,8.96,5.35,12.53,1.58-3.96,2.72-8.14,3.4-12.53h-8.75Z"/>
    </g>
  </g>
</svg>