<?xml version="1.0" encoding="UTF-8"?>
<svg id="_レイヤー_2" data-name="レイヤー 2" xmlns="http://www.w3.org/2000/svg" viewBox="0 0 265 58.89">
  <defs>
    <style>
      .cls-1 {
        fill: none;
        stroke: #dcb259;
        stroke-miterlimit: 10;
        stroke-width: 1.65px;
      }

      .cls-2 {
        fill: #dcb259;
      }

      .cls-3 {
        fill: #fff;
      }
    </style>
  </defs>
  <g id="_テキストデータ" data-name="テキストデータ">
    <g>
      <rect class="cls-2" x="0" y="0" width="265" height="58.89" rx="27.6" ry="27.6"/>
      <path class="cls-3" d="M41.5,25.26c0,.29.03,2.7.08,2.96.08.43.32.53,1.07.53,1.58,0,2.19-.08,2.64-2.05h.19c.32.93.4,1.31.99,1.68.24.16.27.19.27.4,0,.4-.32.88-.64,1.17-.45.43-.93.59-3.02.59-3.47,0-3.66,0-3.42-5.29h-2.67l1.07.53c.16.08.27.24.27.35,0,.27-.32.35-.88.45-1.39,2.08-3.63,4.3-5.92,5.5l-.16-.21c1.95-2.13,3.18-3.84,4.16-6.62h-4.32v3.74c0,3.1.03,4.32.05,6.54.03,1.07.05,2.8.05,3.23,0,.85-.16,1.55-1.52,1.55-.83,0-.99-.43-.99-.96,0-.24.11-1.44.13-1.73.08-1.5.13-3.1.13-6.54,0-5.55-.03-6.54-.45-8.06l2.91,1.6h8.99c.8-1.36,1.71-3.2,1.63-4.62h-11.5c-1.84,0-2.35.08-2.88.19l-.43-.99c1.2.11,2.56.16,3.79.16h6.64c-.05-1.68-.27-2.56-.85-3.39l3.52.99c.21.05.4.16.4.4,0,.21-.35.51-.85.88-.03.35-.03.59,0,1.12h6.54l1.25-1.33c.16-.16.29-.35.43-.35s.27.13.51.29l2,1.33c.19.11.29.24.29.4,0,.27-.21.29-.4.29h-7.63l1.79.96c.19.11.29.27.29.45,0,.29-.21.37-.83.51-.45.37-2.62,2.29-3.12,2.7h5.31l.8-.83c.16-.19.27-.24.4-.24s.29.08.43.19l1.39,1.07c.11.08.27.27.27.43,0,.27-.19.4-.77.77,0,1.52.03,8.89.03,10.57,0,1.25,0,3.79-3.34,3.76-.32-1.6-.75-2.56-1.95-2.99l.03-.27c.11.03,2.16.29,2.32.29.51,0,.72-.24.75-.75.05-.91.05-7.12.05-9.07,0-.83-.05-1.65-.08-2.29h-5.23ZM33.17,20.24c2.29.37,3.87,1.6,3.87,2.96,0,.67-.45,1.28-1.28,1.28-.96,0-1.15-.72-1.42-1.65-.43-1.6-.99-2.21-1.23-2.48l.05-.11ZM40.94,31.82l.69-.77c.16-.19.27-.24.45-.24.16,0,.29.05.45.19l1.25.96c.11.08.21.21.21.35,0,.24-.19.4-.69.72,0,.53.08,3.15.08,3.76,0,1.65-1.17,1.65-1.36,1.65-.91,0-.85-.64-.83-1.09h-4.94c.08.72-.45,1.41-1.31,1.41-.43,0-.93-.21-.93-.83,0-.32.16-3.07.16-3.63,0-1.17-.05-2.11-.21-3.66l2.67,1.17h4.3ZM36.24,32.46v4.24h4.96v-4.24h-4.96Z"/>
      <path class="cls-3" d="M64.61,29.9l.83-.91c.08-.11.29-.32.4-.32s.43.21.51.29l1.25.99c.21.16.29.27.29.4,0,.16-.08.24-.85.85.05,1.36.16,6.06.16,7.31,0,.75-.4,1.28-1.39,1.28s-.96-.59-.96-.91c0-.21,0-.32.03-.53h-4.16c-.05,1.2-.08,1.9-1.28,1.9-1.04,0-1.07-.72-1.07-1.12,0-1.01.13-5.55.13-6.46,0-2.67-.11-3.34-.24-4.24l2.8,1.47h3.55ZM60.74,30.54v7.18h4.16v-7.18h-4.16ZM72.93,17.89l.69-.83c.11-.13.24-.29.4-.29.13,0,.35.13.45.21l1.44,1.12c.08.05.21.19.21.37s-.72.72-.83.85c-.03.32-.05.48-.05.91,0,.83.11,4.54.11,5.28,0,.53,0,1.36-1.44,1.36-1.01,0-.93-.72-.85-1.33h-8.06c-.05.8-.11,1.52-1.31,1.52-1.04,0-1.09-.48-1.09-1.07,0-.35.08-1.84.11-2.13.08-1.5.08-2.64.08-3.66,0-1.82-.19-2.99-.32-3.76l2.78,1.44h7.69ZM65.01,18.53v6.38h8.09v-6.38h-8.09ZM76.62,29.93l.83-.91c.13-.13.29-.32.53-.32.13,0,.29.11.45.24l1.28,1.01c.19.13.27.24.27.37,0,.27-.53.61-.8.8,0,.37,0,.72.03,4,0,.61.13,3.55.13,3.82,0,.4,0,1.31-1.33,1.31-1.12,0-1.09-.53-1.09-1.9h-4.46c0,.21,0,1.04-.03,1.23-.11.56-.72.88-1.36.88-1.04,0-1.09-.64-1.09-1.01,0-1.04.27-5.6.27-6.57,0-3.12-.21-3.84-.45-4.62l2.99,1.66h3.84ZM72.45,30.57v7.15h4.48v-7.15h-4.48Z"/>
      <path class="cls-3" d="M109.2,35.48c-1.63,0-7.69-6.49-9.31-8.43-1.95-2.32-2.72-2.86-3.31-2.86-.85,0-1.87,1.41-2.62,2.62-.37.56-2.59,4-2.7,4.3-.45,1.09-.51,1.2-.85,1.2-.72,0-2.96-1.97-2.96-3.74,0-.37.05-.61.13-.96.37.51,1.15,1.44,1.63,1.44.37,0,.61-.27,1.17-.88,3.2-3.55,4.56-5.04,5.26-5.44.37-.21.67-.35,1.15-.35,1.01,0,1.71.35,4.19,3.26,2.03,2.4,4.46,4.46,7.18,6,.4.21,1.76,1.57,1.76,2.91,0,.37-.24.93-.72.93ZM106.21,24.54c-1.39,0-2.51-1.12-2.51-2.51s1.12-2.51,2.51-2.51,2.51,1.12,2.51,2.51-1.15,2.51-2.51,2.51ZM106.21,20.61c-.77,0-1.42.64-1.42,1.41s.64,1.44,1.42,1.44,1.44-.64,1.44-1.44-.64-1.41-1.44-1.41Z"/>
      <path class="cls-3" d="M137.59,29.85c-.43,0-1.09-.03-1.63-.08-.51-.03-7.02-.08-7.47-.08-1.55,0-5.63.08-6.86.43-.48.13-.69.19-.91.19-.99,0-2.48-2.11-2.48-3.18,0-.35.11-.8.43-1.5.93,1.87,1.57,2.19,4.75,2.19,1.55,0,10.81-.03,11.72-.35.4-.13.72-.27,1.07-.27.05,0,3.18.24,3.18,1.65,0,.45-.51.99-1.79.99Z"/>
      <path class="cls-3" d="M156.4,28.97c-.45,0-.61-.13-2.03-1.2-1.31-.99-2.94-1.68-4.48-2.35.61-.11,1.33-.21,2.4-.21,3.23,0,5.02,1.09,5.02,2.56,0,.69-.43,1.2-.91,1.2ZM158.43,22.91c-.43,0-.59-.13-1.95-1.33-.35-.29-2-1.63-4-2.56.48-.08.75-.13,1.31-.13,1.04,0,3.55.4,4.35,1.01,1.07.83,1.17,1.71,1.17,1.97,0,.75-.59,1.04-.88,1.04ZM156.74,37.4c-.35.27-.61.53-.69.64-.35.43-.51.61-.91.61-.83,0-2.64-2.35-2.64-3.68,0-.24.03-.43.13-.8.24.32,1.33,1.49,1.98,1.49.45,0,.69-.13,1.04-.35,7.1-4.4,11.26-9.45,13.32-12.04l.21.13c-3.1,6.78-5.74,8.83-12.44,13.98ZM167.77,22.8c-.45,0-.67-.21-1.39-1.04-.37-.43-2-1.76-2.86-2.29,3.39,0,4.94,1.12,4.94,2.51,0,.53-.4.83-.69.83ZM169.87,20.4c-.35,0-.43-.08-1.15-.8-.56-.56-1.63-1.58-3.07-2.08.32-.08.56-.13.99-.13.13,0,4.03.08,4.03,2.11,0,.61-.43.91-.8.91Z"/>
      <path class="cls-3" d="M200.27,35.05c-1.01,0-5.58-2.86-7.77-4.91-.77-.72-4.91-4.59-5.68-5.34-.11-.11-.51-.43-1.04-.43-1.09,0-3.07,2.48-4.06,3.74-1.66,2.11-1.84,2.32-2.48,2.32-.48,0-2.67-.61-2.67-2.46,0-.24.05-.37.19-.64.27.19.75.51,1.49.51,1.12,0,3.47-2.27,4.51-3.28,1.52-1.49,2.32-1.87,3.1-1.87,1.01,0,1.65.53,2.59,1.47,4.38,4.3,6.75,5.5,10.57,7.39,1.23.61,2.22,1.28,2.22,2.43,0,.32,0,1.07-.96,1.07Z"/>
      <circle class="cls-3" cx="229.11" cy="29.44" r="14.72"/>
      <polyline class="cls-1" points="223.66 21.3 234.57 29.44 223.66 37.59"/>
    </g>
  </g>
</svg>