<?xml version="1.0" encoding="UTF-8"?>
<svg id="_レイヤー_2" data-name="レイヤー 2" xmlns="http://www.w3.org/2000/svg" viewBox="0 0 389.35 57.32">
  <defs>
    <style>
      .cls-1 {
        fill: #231815;
      }

      .cls-2 {
        fill: #1a1a1a;
      }
    </style>
  </defs>
  <g id="_ガイド" data-name="ガイド">
    <g>
      <path class="cls-1" d="M.28,28.52c-.28-.3-.1-1.31-.08-1.9.01-.58-.4-1.32-.1-1.59.9-.85,2.08-1.39,3.33-1.79,1.25-.39,3.03-1.34,4.2-1.59,4.1-.74,7.12-.06,12.8-.59,4.5.15,5.82-.09,10.03-.24.1-.8-.22-2.12-.32-3.5-.1-1.38-.41-3.11-.91-3.08-4.29.22-8.74.72-12.06.64-3.79-.16-7.46.95-11.14,2.21-.27.09-.67-.06-1.06-.32-.4-.26-.8-.61-1.08-.91.6-.56,1.29-1.55,1.97-2.48.68-.92,1.36-1.77,1.96-2.04,3.51-.76,6.92-.56,10.32-.27,3.41.3,6.81.7,10.3.38,2.62-.34,2.7-1.78,3.33-3.95,1.1-2.29,1.21-5.47,1.57-7.51,1.14.78,1.66.36,2.16.81.49.44,1.44.48,1.12,1.19-.61.86-1.78,3.07-2.33,3.99.19.95-.8,2.15-1.12,3.3-.07,2.03,1.4,1.79,3.15,1.71,1.74-.08,4.07-.15,4.52-.57.06-1.74.67-2.3.99-3.6.34-1.3.54-2.75.87-4.19.3-.27.61-1,.89-.69.28.3,1.13,1.05,1.43.78.53,1.75-.59,4.47-2.1,6.17-1.06,1.41-.21,1.74,1.77,3.54-.95,2.3-2.99,2.52-5.97,2.64-1.98.44-3.83-.5-5.76.45-.58.28.37,1.98.49,2.93.11.95-.06,1.74.53,1.76,2.88.53,4.91.61,7.55-.04,3.2.26,6.25-.07,8.84.3-2.55,2.39-3.74,3.51-5.67,4.46-2.46-.22-6.09-.35-9.12-1.04-.29,0-.21.07-.44.28-.22.21.51,2.49.49,2.78,2.13,5.88,4.47,9.82,8.39,14.08,3.92,4.27,11.07,7.36,13.96,8.18-.19,1.16-3.08.91-5.14,1.57-1.9.23-4.66.28-7.26.05-1.55-1.64-3.69-2.74-3.97-5.07-.87-2.07-1.62-5.58-3.35-5.93-.56-.6-1.75.23-2.78.85-1.04.62-2.23,1.46-3.4,1.7-4.09.73-8.3.66-12.23.75-3.94.73-8.16.89-12.27,1.9-.59.28-1.17.55-1.77.82-.59.28-1.18.53-1.77.82-.88.25-1.44-.35-1.71-1.01-.27-.67-.21-2.55.09-2.55,2.37-1.38,4.86-2.16,4.79-3.9-.52-2.05-1.19-3.54-.97-5.84.01-.29.31-.43.67-.49.37-.05,1.11-.62,1.4-.6.54,1.18,1.2,3.09,1.3,4.4.11,1.31-.82,3.02-.27,3.62,1.29.48,3.27-.03,5.09-.12,1.82-.09,3.63.13,4.25-1.01.37-2.46-.21-2.48-1.17-4.03-.38-1.69-1.2-3.16-2.44-4.96.02-.57.47-1,1.06-1.19.59-.2,1.76-.45,2.33-.14,1.38,1.94,1.97,4.21,1.67,6.31-.29,2.1-.82,3.02,0,4.21,2.3.66,4.2.28,6.68.08,2.48-.21,5.98-.52,8.3-.44.29,0,.8-.19,1.18-.54.38-.36.47-1.01.48-1.29-.79-2.35-1.23-4.33-1.79-6.89-.28-1.24-2.26-6.39-2.12-6.32-4.05-.58-8.62-.8-12.62-.43-4.02.37-8.16.74-11.98,1.77-.3.28-.75.7-1.2,1.05-.44.34-.88.62-1.18.61-1.14-.33-2.19.35-3.15.91-.96.54-1.58,1.54-2.42.64"/>
      <path class="cls-1" d="M31.86,31.04c.23.19.3,1.18.62,1.75.33.59.58,1.2.58,1.49-1.6.1-3.45-.84-5.5-.61-1.85-.22-3.61-.56-5.02-1.49.32-1,3.76.41,5.41-.98,1.45-.1,2.91-.33,3.92-.16"/>
      <path class="cls-1" d="M68.88,23.59c.28-.05.81-.35,1.17-.39.37-.04,1,.48.99.75-.15,4.06-.74,8.84-2.41,13-1.69,4.88-4.41,7.7-8.81,9.29-1.47.54-2.03-.21-2.21-1.31-.18-1.09.01-2.54.05-3.42,1.99.94,3.49-.31,5.57-1.41,2.21-1.08,3.04-3.96,3.23-5.26.04-1.3-1.28-.77-3.11-.32-2.1,0-3.45.96-4.88.63-.29,0-.58-.16-.72-.39-.14-.22-.13-.51.17-.78,1.48-.82,2.66-1.37,4.27-1.6,2.49-.64,3.67-1.19,5.12-.99,0-.28.02-.71-.03-1.1-.07-.36.39-.92.1-.93-1.16-.05-2.91.05-4.07,0-1.15-.03-1.87-.35-3.05.19-.29-.01-.89.26-.95.04-.06-.21-.05-.51-.05-.8.3-.28.46-.42.53-.56.08-.14.24-.85.26-1.16,1.15.05,1.89,0,2.9.1,1.01.11,1.75-.22,3.18.27,1.17-.25,1.48-.69,1.65-1.55-.12-.87-.07-2.04,1.1-2.28"/>
      <path class="cls-1" d="M86.11,3.69c-.44.42-.62,1.08-.67,1.77-.06.7-.01,1.45-.04,2.06-.01.62-.07,1.07-.3,1.44-.23.37-.64.65-1.38.91-.43.13-.8.12-1.25.05-.45-.07-.99-.2-1.79-.3-.5,0-.91.12-1.29.22-.39.09-.75.15-1.18,0-.43-.3-.57-.67-.6-1.11-.04-.43.01-.94-.04-1.53-.06-.58-.22-1.17-.34-1.79-.13-.62-.2-1.28-.11-2-.15.14-.7.1-1.26.02-.57-.09-1.15-.21-1.36-.25-.21-.05-.23.11-.25.34-.02.23-.04.54-.22.8-.31.43-.47.86-.54,1.29-.08.42-.07.84-.04,1.24.01.39.2.79.28,1.14.07.36.02.68-.43.96-.16.65-.68.9-1.37.98-.69.08-1.57-.03-2.43-.1-.87-.07-1.82.01-2.7.29-.88.27-1.7.72-2.3,1.43,0,.15-.02.32-.02.53-.01.2-.02.42-.02.63,0,.22-.01.44-.02.65,0,.18,0,.38,0,.51.72-.11,1.45-.23,2.18-.35.73-.11,1.46-.22,2.19-.3,1.37.3,2.11.24,2.66.1.57-.13.98-.33,1.7-.31.44.02.81.14,1.09.34.27.19.49.48.63.8.13.34.18.72.17,1.12-.01.41-.1.86-.25,1.28-.88.19-1.91.45-2.98.57-1.08.14-2.2.12-3.27-.21-1.03,0-1.72.25-2.19.9-.48.67-.73,1.77-.87,3.5,1.52.2,2.46-.65,4.1-1.02,1.51.37,4.01-.19,8.14-.16,1.97-.11,3.82-.2,5.7-.16,1.87.03,4.18.2,6.2.57.29.15.02.36.12.61.11.26.13.55.12.84,0,.3.05.62.12.91.06.29-.31.39-.31.53-1.18.25-2.12.56-3.57.61-1.43.05-2.92,0-4.3-.15-1.37-.16-2.68-.17-4.01-.09-1.33.07-2.68.22-4.13.38.14.15.06.41-.1.65-.15.25-.38.5-.53.64-.15.13-.29.28-.37.42-.08.14-.08.29.05.43.14.15.32.35.5.54.18.21.38.43.55.66.18.22.33.45.44.65.11.2.18.39.17.53-.04,1.46-.1,2.94-.15,4.45-.04,1.51-.06,3.03-.08,4.55.19,1.9.19,3.42.17,4.84-.02,1.42-.07,2.72.02,4.18,0,.14.06.25.18.34.12.08.29.16.46.19.19.04.49.07.8.08.29.03.58.04.73.04.27-1.66.43-2.93.68-3.79.24-.86.59-1.32,1.24-1.37,1.24-.18,2.81-.27,4.3-.31,1.49-.03,2.91-.03,3.85,0,.57.17.6.46.41.9-.18.43-.58,1.02-.88,1.77-.41.46-1.06.96-1.72,1.42-.66.47-1.33.87-1.77,1.15,1.94.36,3.14.54,4.12.61.98.07,1.73.03,2.82-.09.85-1.09,1.89-3.09,3.03-4.91,1.13-1.83,2.35-3.48,3.53-3.87.58-.12.97.18,1.34.68.37.5.73,1.2,1.26,1.88.81.68,1.39,1.36,1.92,2,.53.66,1.01,1.29,1.65,1.9.86.32,1.77.35,2.7.32.93-.03,1.9-.13,2.88-.05.98-.15,2.35-.26,3.61-.43,1.27-.16,2.44-.38,3.04-.72.57.17-1-.51-3.13-1.42-2.14-.9-4.81-2.05-6.46-2.84-1.57-.58-3.3-1.23-4.7-2.07-1.38-.84-2.44-1.87-2.68-3.26-.25-1.03.1-1.75.6-2.49.49-.75,1.13-1.49,1.45-2.52.2-1.59.39-2.71.56-3.85.16-1.14.32-2.3.45-3.96-.16-.01-.41.13-.66.26-.25.14-.49.27-.6.27-.12,0-.24-.15-.33-.29-.1-.15-.16-.3-.16-.3-.34,1.08-.64,2.08-.9,3.06-.27.97-.48,1.91-.62,2.84-.14.94-.25,1.85-.53,2.55-.29.7-.76,1.19-1.63,1.3-.72-.17-1.24-.46-1.63-.97-.4-.52-.65-1.24-.87-2.31-.54-1.33-.71-2.89-.66-4.34.05-1.45.32-2.79.63-3.65,1.02.03,1.37.12,1.59.14.22.03.33,0,.88-.21.54-.2.96-.54,1.39-.99.43-.44.85-.96,1.46-1.53.46-.57,1.04-.69,1.65-.59.62.13,1.25.47,1.82.85,1.08.24,1.58.67,1.99,1.03.4.36.72.66,1.44.68.14,0,.33-.06.52-.17.19-.11.37-.28.52-.46.15-.17.38-.48.53-.77.16-.3.24-.58.1-.73-.42-.45-1.06-.79-1.75-1.1-.69-.31-1.42-.57-2.04-.84-.61-.27-1.26-.74-1.85-1.08-.58-.34-1.08-.54-1.38-.26-.4.94-.6,1.72-1.22,2.22-.62.51-1.64.72-3.66.51-1.2-.04-2.71-.12-4.2-.18-1.48-.06-2.91-.06-3.94.04-.23-1.6.14-1.93.39-2.6.24-.67.34-1.66.66-2.02,1.57.64,2.91-.48,5.48-.04,2.08.09,4.09.23,5.1.27.02-.15-.05-.44,0-.78.05-.32.21-.67.66-.95.11-.21.19-.36.2-.48.02-.13-.04-.25-.18-.39-.86-.32-1.95-.42-3.05-.4-1.11,0-2.24.11-3.19.19-1.01-.19-1.74-.03-2.36-.01-.62.02-1.12-.11-1.68-.86-.14-.29-.05-.62.07-.95.12-.32.28-.64.28-.93.23-.28.46-.5.59-.71.14-.21.19-.43.04-.73-.14-.28-.32-.71-.53-1.1-.22-.37-.46-.71-.71-.82-.25-.13-.64-.21-1.05-.24-.41-.01-.84.03-1.13.15M77.12,28.95c-.57-.31-.54-.67-.39-1.31.15-.66.4-1.15,1.06-1.13,1.02-.26,1.31-.1,1.96,0,1.14.16,1.53-.03,1.76,1.57-.87-.02-.44.28-1.48.98-.88.12-2.04-.07-2.9-.11M76.85,32.57c-.26-.73-.14-2.6-.38-1.61.09-.37-.13-.44.16-.43,1.45.05,2.76-.05,4.07-.08,1.32-.02,2.63.02,4.06.36,1.16.33,1.31.92,1.04,1.49-.27.57-.97,1.13-1.58,1.39-1.45-.04-3.22-.3-4.94-.16-.41-.3-1.61.38-2.43-.96M76.45,35.61c.42-.57,1.65-.63,2.68-.56,1.02.08,1.84.28,1.41.27.57.31.7.75.68,1.26-.01.51-.19,1.09-.2,1.66-.52.43-1.12.55-1.75.54-.63-.03-1.04.25-1.76.07-.55-.12-.96-.91-.99-1.38-.02-.48.05-1.11-.07-1.85M89.97,26.63c.38,1.47.69,2.78,1.32,4.25.62,1.47,1.36,2.38,2.48,4.01.25.88-1.56,2.78-2.31,3.84-1.61,2.28-2.03,1.97-2.36,1.08-.73-.18-1.01-.33-.71-.74-.93-.25-2.6-.1-3.77-.14-.29,0-.86-.25-1.15-.62-.27-.37-.41-.45-.69-.75-.25-1.17-.24-1.62.56-1.87.82-.27,1.83-.23,2.41-.22.59-.55,1.06-1.41,1.53-2.28.46-.85.93-1.7,1.53-2.26.3-.27.31-.57.17-.79-.4-.97-.42-.37-.72-.39-1.13-.76-2.89-.24-4.12-.43-1.23-.2-1.94-.65-1.02-2.07.33-.86,1.55-.75,2.79-.79,1.23-.02,3.51-.45,4.06.15M83.77,12.62c.27.59.36,2.12.19,2.91-.17.79.25,1.16-.63,1.44-.87-.04-1.59-.35-2.31-.38-.72-.02-2.04.08-2.91.05-.85-.31-.42-.51-.53-1.32-.11-.81.07-2.04.38-2.61,1.6-.09,1.69-.6,3.07-.63,1.3.19,2.17.23,2.74.53"/>
      <path class="cls-1" d="M137.64,9.07c-1.63.96-6.39-.07-9.76.69-3.19-.03-6.98.35-9.12-.88-.29-.02-1.21,1.26-1.29,1.61-.08.36.17,1.68.16,1.97,1.11,1.48,1.06,2.66,1.66,4.49.59,1.83.81,4.16.45,6.19-.3.28-1-.46-.9.77-.31.5-.47,1.08-.2,1.66,1.13.91,2.44.81,3.76.57,1.3-.25,2.47-.2,3.78-.31.28.3.71.31,1.08.4.36.08.65.24.63.81-.02.58-.22,2.24-.38,2.89-.18.64-1.02-.17-1.6.1-1.47.24-3.19-.25-4.49-.44-.72-.03-.89.54-1.86,3.56,1.17-.25,2.48-.5,3.8-.6,1.3-.1,2.61-.06,3.76.28.86.32,1.28,1.2,1.31,2.15.05.94.13,2.4-.46,2.95-2.48.35-5.37-.02-8,.31-2.61.06-2.48.07-2.91,4.56,4.2.14,7.22-.76,10.78-1.09,3.57-.32,7.99-.01,11.15.97.58.02,1.2-.98,1.01-2.01.53-.71,1.9-2.25,2.79-2.8-2.01-.95-3.92-.13-6.4-.08-1.9.23-2.46-.09-4.93-.17-.85-.61-.62-.96-.52-1.76.1-.8-.37-1.9.24-2.75,1.32-.4,1.46.04,2.32.21.86.18,1.45-.1,2.47-.06.59-.28.45-.57,1.08-1.85-.12-.66-.67-1.77-1.24-1.79-.59-.01-1.77.44-2.5.64-.73.19-1.45.09-2.03-.21-.57-.32-.43-.24-.54-.9-.12-.66.2-1.6.21-2.17.01-.29-.05-.37.17-.57.23-.22.01-.44.3-.43.87.03,1.88.21,2.69.31.79.1,2.53.16,2.53-.12.1-2.76.07-6.39,1.03-8.83.52-2.61.15-4.36,2.52-5.88.01-.28-.52-1.47-.95-1.77-.43-.3-.98-.9-1.57-.63M127,22.81c-.88.26-2.02.67-3.2.17-1.18-.5-.99-.9-1.53-2.08.92-1.14,1.73-1.54,2.81-1.36,1.08.18,2.32-.06,2.88.53.27.59.38,1.76.14,2.25-.24.51-.52.21-1.11.48M133.57,19.83c.65.17,1.14.08,1.41.68-.13.86-.22,1.6-1.03,1.72-.8.1-1.64-.06-2.51-.1-.3,0-.51.1-.58-.11-.06-.21-.08-.48-.07-.78,0-.28,0-.8.23-1.15.23-.36.49-.08.59-.47.59.03,1.31.05,1.96.22M122.99,16.86c-.57-.32-1.3-.28-1.28-.78.01-.5.04-1.15.06-1.74,0-.28-.13-.51.02-.72.15-.21.18-.71.18-.71,1.15.03,4.36-.22,5.66.04,1.3.27,0,0,.22,2.04-.04,1.31-1.01,1.72-2.09,1.68-1.03.54-1.9.22-2.77.2M134.76,12.46c.87.32,1.02-.14,1.15.53.13.66-.25,1.64-.37,2.31-.33,1.01-.06.43-.52,1.15-.81.26-2.23.22-3.31.27-.57-.3-1.33-.18-1.42-.81-.1-.63.36-2.12.49-2.99.11-.67,1.4-.51,2.05-.71.97.03,1.45.05,1.92.26"/>
      <path class="cls-1" d="M156.71,8.48c-1.11.71-1.2.33-3.13.26-.8.15-1.59.14-1.94.13-.36-.02-2.04-.07-2.04-.07-.43-.01-1.14.16-1.67.35-.53.18-1.08.34-1.59.29-.5-.06-1.12-.24-1.64-.37-.52-.14-.96-.23-1.11-.09-.24,1.55-.49,3.08.44,3.89.2,1.35.05,3.03,1.12,3.57.73,1.04,2.04,1.95,2.93,2.96.88,1.01,1.57,2.08,2.1,3.56-.6.65-1.75.42-3.01.47-1.18.17-2.59.18-3.69.07-.38-.01-2.6-.28-2.6-.28-.47.33-.04,1.26-.5,3.66-.01.16,1.25-.07,1.55-.13.3-.07.52.06,1-.07.47-.12,1.01-.24,1.52-.31.52-.05,1.02-.04,1.46.13.86.41.16.91.63,1.37.75.6,1.51,1.31,1.97,1.8.46.5,1.03.59,1.43,1.12.39.53.53,1.37.8,1.97.39,1.18.44,2.09.66,3.31.3,1.64.36,2.59.36,3.69-.01,1.23.09,3.01-.52,3.86-.29,1.2.22,2.14-.4,3.28-.32.86-1.05,2.39-2.02,2.35-1.06-.23-2.36,1.17-2.95,1.16-.88.52-1.31,1.04-2.28,1.47-.95.43-2.36,1.18-3.23,1.44-.45.13-.63.13-1.08.24-.45.13-.59-.02-1.06.07-.48.09-.85.21-1.37.24-.51.05-.97.37-1.56.34-.15.14-.68.08-.88.16-.2.09-.47.45-.69.56-.22.1-.01.51-.22.68-.21.16-.87-.13-.8.65.76.42,1.82.46,2.61.38.85.09,2.17-.23,3-.09,1.44.15,1.7.75,2.48.77.8.02,2-.32,2.74-.59,1.03-.4,1.24-.9,2.44-1.26,1.19-.39,2.37-1.27,3.47-1.74,1.11-.47,2.38-.86,3.15-1.54.97.13,2.03-1.04,2.2-2.06.38-2.21-.68-2.63-.22-4.66-.02-1.35.08-2.09.02-3.49-.06-1.37.19-3.08.24-4.44-.14-1.36-.29-2.82-.24-4.27.32-.85,1.32-.82,2.18-1.29.86-.46,1.86-.51,2.44-1.26,1.07-.33,2.48-.89,3.56-1.14.93-.46,1.86-.91,2.77-1.74.15-.14-.56-.79-.64-1.09-.09-.3-.21-.65-.45-.98-.24-.34-1.46-1.85-1.77-2.09-.57-.4-.5.46-.79.45-.72-.02-.88-.12-1.54-.15-.68-.04-1.19-.1-1.83-.15-.65-.06-1.18.23-1.85.13-.67-.1-.54.13-1.26-.04-.15-.01-.25-.14-.34-.21-.09-.07-.74-.3-.8-.42-.06-.11-.18-.35-.27-.49-.09-.13-.24-.25-.37-.4.4-.66.34-.68.76-.88.41-.21.71-.34.65-.71-.35-.9-.76-1.29-1.03-1.54-.27-.26-.41-.36-.26-.65.16-.58.59-1.04,1.11-1.49.52-.45,1.14-.86,1.71-1.31.55-.45,1.2-.99,1.86-1.52.66-.53,1.32-1.04,1.92-1.45.3-.28.43-.72.48-1.17.05-.44.02-.94,0-1.34-.03-.4-.18-.8-.44-1.16-.26-.36-.63-.36-1.06-.53-.76-.31-.96-.52-2.59-.17M153.96,26.03c.61.11,1.23.2,1.83.22.29,0,.59.02.86.05.28.02.55.07.81.15.25.09.48.2.68.36.2.18.59-.08.72.22-.59.41-1.41,1.13-1.89,1.67-.49.55-.96.92-1.41,1.41-.45.49-.62,1.06-1.11,1.31-.48.26-.89.8-1.48.64-.43-.16-.63-.71-1.03-1.11-.38-.4-.35-1.05-.62-1.57-.27-.52-.35-1.36-.92-1.57-.09-.54-.79-1.05-.63-1.48.16-.43.88-.02,1.27-.14.39-.14.82-.12,1.36-.05.54.05.95-.21,1.55-.11M152.4,12.48c.58.03.85.43.54.8.08.58-.32.86-.62,1.42-.31.58-.33.96-.92,1.52-.68.27-.8.65-2.06.81-.57-.32-.8-1.03-1.2-1.69-.42-.67-.9-2.07-1.55-2.66,1.27-.36,1.38-.2,2.33-.31.95-.13,2.62.08,3.49.11"/>
      <path class="cls-1" d="M205.95,6.75c-.22.96-.52,1.23-.75,2.2-.31.76-.24,1.35.63,1.68,3.66.41,2.96.41,4.93.25,1.97-.49,3.98-.34,5.83-.56,1.25.23.43,2.27.47,3.01.05.72-.43,1.53-1.02,1.51-2.05.51-4.19-.33-6.36-.7-2.17-.36-4.52-.93-6.28-.6-.28-.1-.93,1.71-1.25,2.77-1.71,1.98-1.19,2.94-1.35,2.76,1.88,1.51.6,2.15,5.29,3.86,2.34,1.53,7.07,5.66,8.34,5.51,1.98,1.23,4.82.99,7.22,1.21,3.07,1.08,5.49.58,6.27.98.99,1.88,1.11,1.3-5.27,3.62-3.23,1.23-5.53.47-6.09-.03-.78.06-5.29-4.06-7.09-5.48-.63-1.28-7.23-6.64-14.54-8.15-3.28,2.5-6.65,4.9-10.48,7.06-3.49,2.34-6.76,4.47-10.7,6.46-.84-.12-1.94-.3-2.98-.59-.69-1.11-2.41-3.18-2.96-4.07,6.88-.15,9.55-1.8,13.59-3.89,4.36-2.25,8.69-4.64,12.8-8.86.56.89,1.35,1.2,2.28,1.53.93.32,2.01.55,2.89.29,1.56-.43,1.39-.64,1.26-2.67.34-1.3.37-2.41.42-3.76-.29-.03-1.15-.05-1.45-.13-.28-.08-.46-.81-.74-1.11.3.01,1.3.24,1.73.25.43.01.78-.36,1.07-.36,1.09-.44.66-2.29.63-4.03-.04-1.76.66-2.61,4.48-3.73-.02.57.53,1.03.43,1.47-.08.43-.02.57-1.24,2.28"/>
      <path class="cls-1" d="M186.46,10.16c.43,1.46.59,1.12,1.6,1.31,1.01.17,2.33-.12,3.38.21.29,0,.7.22.76.5.06.3-.8.85-.8.85-1.17-.05-2.04.31-3.5.37-.61.66-.92,1.41-.11,3.19,0,.29-.76.99-1.28,1.26-.51.29-1.48.19-1.76-.11-1.29-2.07-.41-2.33-1.35-3.14-5.81-.01-5.94.96-7.97,1.09-.3,0-2.45.6-2.81-.19-.29,0-.47-.6-.16-.87.6-.56.77-1.29.94-1.94.17-.65.45-1.61,1.03-1.87,1.75-.23,3.59-.17,5.42.08,2.49.86,2.78.96,3.78.03.23-1.05.21-1.87.17-2.75-.05-.88-.36-2.96.23-3.23,1.62.44,2.2.7,2.46,1.43.27.74,0,2.91-.03,3.79"/>
      <path class="cls-1" d="M196.92,27.36c-.02.58-.03.91-.06,1.64-.02.72-.52.95.07.98,1.73.35,3.53-.02,5.42-.11,1.89-.08,4.75-.41,6.49-.07.88-.16.54,1.38-.67,2.59-1.19.64-.34,1.35-1.5,1.51-1.45-.06-3.91-.53-5.57-.66-1.59.41-3.14.26-4.2.32-.59,3.08-.62,6.35-.53,9.77.1,3.41-.52,6.85-.46,10.54l-.78-.04-.66-.4c-.19-2.9-.35-5.39-.41-8.15-.05-2.76.18-4.93-.02-7.84.02-.58-.07-2.18-.12-3.04-.04-.88-.12-1.32-.99-1.36-1.17-.03-2.39,0-3.69.17-1.74-.25-1.85.43-2.93.78-.68-.12-1.61.53-2.04.22-.43-.3-1.13-.91-1.12-1.19.02-.58.19-1.45.8-2.08,1.34-.76,1.85-1.71,2.41-1.4.69.03,2.17.23,3.19.12,1.03-.12,1.85-.13,3.01-.09.86.33,1.45-.14,1.32-1.8-.12-1.16-.5-2.53-.35-3.89.29.02.95.23,1.82.26,1.07.23,1.26.23,1.54.53-.02.29.06.88.05,1.16,0,.29-.04,1.26-.05,1.55"/>
      <path class="cls-1" d="M189.91,39.71c-2.38,1.56-2.55,3.79-4.23,4.7-1.43,1.31-1.43,2.17-2.26,3.7-.98.45-3.08-.39-4.12.16-1.17-.04-2.45-.67-2.43-1.24.37-2.31,1.86-3.23,4.44-4.65,2.36-1.81,5.5-2.75,7.48-4.34.3-.27.75.21.95.51.2.3.17.88.15,1.17"/>
      <path class="cls-1" d="M205.05,38.97c2.07,1.81,4.29,1.7,7.34,3.34,2.46.91,1.99,1.33,4.31,1.4-.33,1.26-3.37,2.32-4.74,2.66-1.19.93-3.25,1.24-4.67.61-1.42-.82-2.73-2.85-3.91-4.48-1.11-2.07-3.17-3.88-3.49-5.75.29.02,1.26.08,1.54.16.29.07,3.34,1.76,3.62,2.06"/>
      <path class="cls-1" d="M257.89,1.54c-3.78.31-6.8.2-9.17.27-2.25-.23-4.13-.21-6.03-.24-1.91-.03-2.68.24-6.14-.46-.01.29-.11.72-.19,1.15-.09.43-.17.87-.18,1.16-.01.29.16.99.24,1.32.08.33,2.39.37,2.59.81,2.84-.33,1.63-.96,5.1-.53,2.22,0,4.29.06,6.53.06,2.05-.36,3.59-.23,5.53-.25,1.93-.03,3.76.13,6.23.5.15-.14.96-.82,1.32-1.09.37-.26.75-.55.93-.71.51-.21.46-.45.61-1.01.15-.56.33-1.01.33-1.01-1.6-.2-3.48-.12-7.7.03"/>
      <path class="cls-1" d="M232.82,8.54c-1.47.24-1.98,2.54-.84,3.3.69,1.04,1.08,2.36,2.51,2.85.56,4.96,1.1,10.5-.3,15.23-3.13,8.9-7.79,9.33-9.84,9.7.55.89,1.22,2.8,1.9,3.7.7.89,2.86,1.4,4.05.56,3.17-3.52,4.15-6.82,5.18-11.29,1.02-4.47,1.64-9.67,1.79-14.32,2.07-1.09,3.52-.96,5.56-1.12,2.04-.15,3.49.13,6.83.24-.34,1.3.37,1.47.86,2.28.48.81.76,1.12,1.61,1.72-1.5,1.41-2.01,1.39-3.82,1.33-1.81-.06-3.09,1.35-5.08-.18,0,.3-1.23,1.84-.48,3.41.2.51,1.63,1.29,1.92,1.3,1.66-1.84,3.09-1.28,5.57-1.56,2.78-.63,5.52-.1,8.56.15-2.49,4.85-6.27,9.38-9.76,13.76-3.78,4.08-7.97,7.86-12.16,11.5-.3.28-.16.58.12.87.27.3.7.61.99.91,1.93-1.09,3.19-2.21,4.91-3.61,1.98-2.69,3.42-2.35,5.22-3.74,1.21-1.69,4.23-4.64,6.64-7.62,1.83-2.55,4.09-4.94,6.07-7.49.88-.27,2.91-.04,3.61.56.78.31,1.14.63,1.11,1.49-.19,1.3-.94,4.33-1.24,6.79-.3,2.46-.47,5.21-1.71,7.5-.9.83-2.21,1.16-4.09.88-2.04.22-4.03-1.01-5.46-1.64-.32.86-.35,1.87.13,2.33.5.45,1.21.76,1.78,1.07,3.19.4,3.44,1.28,5.09,1.77,2.54.1,3.82.86,4.76-.85,1.65-1.55.94-1.87,1.19-2.87.25-1.01,1-1.71,1.33-2.57.8-2.15,1.17-4.46,1.24-6.64.07-2.17.57-3.91.05-5.96-.26-.88.71-1.57-.23-1.89-.93-.32-.55-.61-2.43-1.1-.58-.03-.84-.76-3.03-.69-.56-.45-.11-1.01-.1-1.31,1.51-1.69,2.07-.94,3.82-1.03,1.81.28,6.79.96,6.27-.38-2.16-.66-5.41-1.34-8.23-1.73-2.82-.38-5.36-.32-8.25-1.01-.86-.32-2.12-1.67-1.65-2.81-.62-1.11-1.82-2.24-2.36-3.42,3.35-.32,5.67.04,8.58-.15,3.05.25,6.37.51,9.54,1.49.05-1.45.13-3.49.6-4.77.56-3.61,1.69-2.85,1.86-3.56.01-.3-.82-1.34-.96-1.56-.14-.22-.28-.36-.28-.36-6.38.06-13.07.13-19.55.35-6.47.21-12.87.57-19.39.21M266.53,12.3c.58.02.25,1.18.08,1.97-.16.78-.64,1.5-1.2,1.19-4.36-.14-8.86-.15-13.37,0-4.5.14-7.99.3-12.37.74-.58-.02-2.17-.23-2.51-.74-.34-.53-.03-1.38.29-2.25.91-1.12,2.45-1.3,3.67-1.32,1.23-.04,6.7-.5,8.14-.16,3.8-.75,6.84-.13,10.45.21,4.48.73,2.92-.48,6.81.38"/>
      <g>
        <path class="cls-2" d="M305.63,17.88c-.11,0-.25,0-.39-.02-1.22-.16-2.44-.25-3.68-.25-.8,0-1.31.02-1.68.05,0,.46,0,1.59.05,3.36.02.78.16,4.25.16,4.97,0,2.99-.94,3.68-1.47,3.68-.44,0-.62-.44-1.01-1.29-.23-.48-.8-1.36-2.46-2.32l.07-.21c1.1.32,2.6.46,2.67.46.3,0,.37-.11.41-.25.07-.25.18-4.71.18-5.86v-.53c-2.21,3.45-5.5,6.07-9.38,7.36l-.09-.16c2.9-2,7.2-5.91,8.83-9.01-2.99.34-4.85.94-4.94.99-.23.09-.67.21-.76.21-.44,0-2.25-.76-2.25-2.67,0-.34.05-.55.09-.8,1.01,1.1,1.47,1.56,3.15,1.56s4.44-.32,5.33-.44c-.05-2.48-.12-3.38-.35-3.93-.23-.55-.62-.69-1.79-1.13.6-.6,1.49-.6,1.56-.6.83,0,2.71.8,2.71,1.45,0,.16-.25.62-.34.8-.3.64-.32,1.63-.37,3.24,2.14-.25,2.37-.28,2.78-.37.18-.05.97-.34,1.15-.34.21,0,2.37.44,2.37,1.4,0,.32-.14.67-.55.67Z"/>
        <path class="cls-2" d="M317.2,16.8c-.39,0-.69-.32-1.47-1.1-1.89-1.91-3.01-2.41-3.84-2.81.41-.05.69-.07,1.13-.07.78,0,5.08.32,5.08,2.87,0,.71-.53,1.1-.9,1.1ZM319.27,24.46c-.85.67-2.23,1.66-3.01,2.37-.14.11-.67.74-.8.8-.12.07-.23.09-.32.09-.83,0-2.46-2.09-2.46-3.22,0-.39.09-.78.16-1.08.74,1.24,1.43,1.56,1.82,1.56.64,0,4.48-2.81,5.31-3.45,3.75-2.92,5.96-5.4,7.2-6.83l.09.05c-.37,1.47-2.67,5.56-7.98,9.7Z"/>
        <path class="cls-2" d="M346.62,19.01c-.12.09-.18.21-.67,1.26-1.03,2.21-2.07,4.53-4.92,6.81-1.15.94-3.75,2.74-6.25,2.81v-.16c2.32-.92,5.59-4.19,6.21-4.9.99-1.13,2.41-3.15,3.43-6.44-1.38.14-7.04.71-8.35,1.26-.14.07-.74.39-.87.39-.48,0-2.32-1.31-2.32-2.9,0-.25.05-.48.18-.83.18.25.41.6,1.01,1.06.53.39.69.44,1.33.44,1.52,0,8.83-.57,9.11-.71.18-.11.8-.9.99-.9.23,0,2.05,1.29,2.05,1.89,0,.3-.23.46-.92.92ZM343.56,14.5c-1.08.05-4.48.25-5.45.44-1.03.18-1.15.23-1.47.23-1.08,0-2.12-1.61-2-2.76,1.08,1.1,2.35,1.1,3.27,1.1,2.6,0,4.39-.48,4.67-.57.21-.05,1.01-.46,1.2-.46s1.17.34,1.45.48c.32.14.62.37.62.83,0,.6-.37.64-2.28.71Z"/>
        <path class="cls-2" d="M365.2,13.81c-.64.46-.92.76-1.49,1.38-.37.39-1.96,2.18-2.3,2.55.39.23,1.2.78,1.2,1.1,0,.16-.23.8-.25.94-.02.18-.07,1.4-.07,2.87,0,.9.16,4.85.16,5.63,0,.57-.21,1.59-.9,1.59s-1.26-1.2-1.26-1.82c0-.23.21-1.26.23-1.47.16-1.31.18-2.6.18-3.91,0-.46,0-2.97-.14-3.43q-.05-.14-.3-.32c-3.5,3.4-6.21,4.53-7.96,5.13l-.09-.14c4.69-2.87,10.83-10.62,10.83-11.57,0-.57-.62-1.1-1.15-1.54.3-.05.6-.09,1.01-.09,1.43,0,3.01,1.79,3.01,2.32,0,.28-.09.34-.71.76Z"/>
        <path class="cls-2" d="M379.3,16.8c-.39,0-.69-.32-1.47-1.1-1.89-1.91-3.01-2.41-3.84-2.81.41-.05.69-.07,1.13-.07.78,0,5.08.32,5.08,2.87,0,.71-.53,1.1-.9,1.1ZM381.37,24.46c-.85.67-2.23,1.66-3.01,2.37-.14.11-.67.74-.8.8-.12.07-.23.09-.32.09-.83,0-2.46-2.09-2.46-3.22,0-.39.09-.78.16-1.08.74,1.24,1.43,1.56,1.82,1.56.64,0,4.48-2.81,5.31-3.45,3.75-2.92,5.96-5.4,7.2-6.83l.09.05c-.37,1.47-2.67,5.56-7.98,9.7Z"/>
        <path class="cls-2" d="M295.95,44.39c-.3,0-.39-.05-1.22-.64-2.05-1.47-2.92-1.91-4.42-2.39.8-.11,1.45-.18,2.46-.18,2.9,0,4,1.24,4,2.18,0,.14-.02,1.03-.83,1.03ZM297.7,39.15c-.35,0-.48-.11-1.82-1.24-1.54-1.29-2.3-1.75-3.4-2.07.53-.07.99-.14,1.61-.14,2.97,0,4.42,1.4,4.42,2.46,0,.16-.05.99-.8.99ZM299.12,49.47c-.85.67-1.93,1.47-2.9,2.21-.14.09-.62.62-.71.74-.18.18-.37.28-.58.28-.46,0-2.3-1.33-2.3-3.2,0-.25.02-.34.09-.55.28.3,1.45,1.2,1.82,1.2,1.82,0,9.54-7.04,12.14-10.58l.14.07c-1.17,3.4-4.67,7.43-7.7,9.84Z"/>
        <path class="cls-2" d="M315.89,47.15c-.16.05-.78.37-.94.37-.3,0-1.45-.92-1.45-2.05,0-.21.05-.37.09-.62.39.57.87,1.06,1.59,1.06.55,0,2.39-.16,3.08-.23,1.61-.14,1.66-.16,3.52-.25.09-1.61.09-1.75.14-3.17-.99.07-5.52.51-6.19.67-.16.05-.87.28-1.03.28-.53,0-1.27-1.24-1.27-1.86,0-.3.07-.64.16-.9.67,1.15,1.03,1.15,2.14,1.15.9,0,5.43-.14,6.05-.62.07-.05.39-.32.46-.39.09-.07.16-.14.28-.14.23,0,1.77,1.33,1.77,1.63,0,.18-.07.21-.6.57-.23.16-.23.23-.28.8-.07,1.22-.28,6.69-.48,7.8-.14.76-.48,1.17-.9,1.17-.57,0-.74-.6-.92-1.26-1.79.11-4.58.48-5.2.67-.18.05-.92.44-1.08.44-.48,0-1.52-1.4-1.52-2.18,0-.25.05-.44.16-.71.21.34.67,1.15,1.7,1.15.21,0,5.79-.41,6.28-.46.16-1.84.16-2.05.25-3.45-1.77,0-4.99.37-5.82.55Z"/>
        <path class="cls-2" d="M333.97,44.39c0,.6-.32.94-.74.94-.57,0-.8-.55-1.06-1.15-.37-.87-1.01-1.82-1.68-2.53,1.82.25,3.47,1.45,3.47,2.74ZM332.22,53.11c6.83-3.27,8.92-10.78,8.92-11.06,0-.46-.71-.92-1.22-1.2.28-.09.62-.16,1.04-.16,1.06,0,2.32,1.24,2.32,1.56,0,.14-.05.18-.51.71-.11.14-1.13,2.3-1.36,2.71-3.13,5.66-6.76,6.99-9.15,7.63l-.05-.21ZM337.95,43.33c0,.44-.23.97-.78.97s-.64-.28-1.01-1.29c-.23-.64-.62-1.45-1.38-2.41,2.09.57,3.17,1.77,3.17,2.74Z"/>
        <path class="cls-2" d="M351.15,53.11c2.53-1.4,5.38-4.21,6.65-5.93,1.2-1.66,2.9-4.97,3.54-7.61-3.7.21-8.65.94-9.66,1.54-.16.09-.46.28-.64.28-.23,0-2.09-1.1-2.09-2.78,0-.55.16-.85.3-1.13.14.23.39.69,1.15,1.31.37.28.67.39,1.29.39.53,0,8.6-.71,9.5-1.03.16-.07.78-.55.94-.55.18,0,.28.09,1.08.97.85.92.97,1.03.97,1.29s-.09.32-.9.8c-.23.14-.25.21-.53.94-1.93,5.17-4.02,7.22-5.13,8.19-1.72,1.54-4.39,3.2-6.46,3.47v-.14ZM367.87,36.71c0,1.2-.99,2.18-2.18,2.18s-2.18-.99-2.18-2.18.99-2.18,2.18-2.18,2.18.97,2.18,2.18ZM364.44,36.71c0,.69.55,1.24,1.24,1.24s1.22-.57,1.22-1.24c0-.71-.57-1.24-1.22-1.24s-1.24.53-1.24,1.24Z"/>
      </g>
    </g>
  </g>
</svg>