<?xml version="1.0" encoding="UTF-8"?>
<svg id="_レイヤー_2" data-name="レイヤー 2" xmlns="http://www.w3.org/2000/svg" viewBox="0 0 116.09 50.48">
  <defs>
    <style>
      .cls-1 {
        fill: #1a1a1a;
      }
    </style>
  </defs>
  <g id="_ベース" data-name="ベース">
    <g>
      <path class="cls-1" d="M14.95,11.76c.14-.22.33-.49.57-.84.23-.34.42-.59.57-.76.14-.16.29-.24.43-.24.29,0,1.02.55,2.19,1.65,1.17,1.1,1.88,1.92,2.13,2.46.04.18.02.36-.05.54-.22.4-.63.59-1.24.59h-6.91v10.42l7.29-2.43h.16c.22,0,.36.09.43.27v.16c0,.18-.07.32-.22.43l-2.05,1.19c-.72.4-1.54.86-2.46,1.38-.92.52-1.97,1.11-3.16,1.75v7.45c.07,4.46.22,8.6.43,12.42,0,.14-.05.32-.16.54-.32.4-.81.76-1.46,1.11-.65.34-1.3.51-1.94.51-.32,0-.61-.11-.86-.32-.25-.22-.38-.47-.38-.76.14-1.84.26-3.65.35-5.43.09-1.78.15-4.04.19-6.78v-6.7c-1.91,1.01-3.74,1.94-5.51,2.81-.14.5-.4.9-.76,1.19-.04.04-.11.05-.22.05-.14,0-.25-.09-.32-.27L.05,29.74c-.11-.32-.04-.5.22-.54,1.87-.47,4.72-1.28,8.53-2.43v-11.61h-3.94c-1.04,3.2-2.25,5.81-3.62,7.83-.14.22-.34.25-.59.11l-.05-.05c-.22-.11-.31-.29-.27-.54.61-1.94,1.13-4.18,1.57-6.7.5-2.92.76-5.76.76-8.53,0-.72-.04-1.58-.11-2.59v-.05c0-.29.16-.4.49-.32,1.91.4,3.25.73,4.02,1,.77.27,1.16.51,1.16.73,0,.11-.16.25-.49.43l-.92.49c-.4,2.27-.88,4.48-1.46,6.64h3.46v-2.21c0-3.92-.2-7.43-.59-10.53v-.11c0-.29.16-.38.49-.27,1.98.54,3.37.98,4.16,1.32.79.34,1.19.64,1.19.89,0,.18-.16.36-.49.54l-.92.59v9.77h1.19l1.13-1.84ZM42.49,16.62c.14-.22.33-.5.57-.86.23-.36.42-.62.57-.78.14-.16.29-.24.43-.24.29,0,1.05.56,2.29,1.67,1.24,1.12,2.01,1.94,2.29,2.48l.05.22c0,.29-.14.51-.41.68s-.6.24-1,.24h-21.71c-2.3.04-4.88.27-7.72.7h-.16c-.14,0-.27-.09-.38-.27l-.97-1.89s-.05-.11-.05-.22c0-.18.13-.27.38-.27,1.98.18,4.18.31,6.59.38h6.26v-8.26h-3.35c-1.87.04-3.73.25-5.56.65-.29.07-.47,0-.54-.22l-.92-1.89s-.05-.11-.05-.22c0-.18.13-.27.38-.27,1.98.18,4.18.31,6.59.38h3.46c0-2.77-.14-5.31-.43-7.61,0-.36.16-.49.49-.38,2.02.5,3.43.93,4.24,1.27.81.34,1.21.64,1.21.89,0,.18-.16.36-.49.54l-.92.59v4.7h5.4l1.19-1.78c.18-.22.38-.49.59-.81.22-.32.4-.57.54-.73.14-.16.29-.24.43-.24.29,0,1.03.53,2.24,1.59,1.21,1.06,1.93,1.86,2.19,2.4l.05.22c0,.29-.13.51-.4.67-.27.16-.6.24-1,.24h-11.23v8.26h7.67l1.19-1.84ZM42.87,25.75c.11-.18.28-.44.51-.78.23-.34.42-.59.57-.76.14-.16.29-.24.43-.24.29,0,.98.53,2.08,1.59,1.1,1.06,1.77,1.86,2.02,2.4.04.18.04.36,0,.54-.22.4-.63.59-1.24.59h-6.86v15.5c0,1.19-.14,2.15-.43,2.89-.29.74-.86,1.35-1.73,1.84-.86.49-2.14.82-3.83,1h-.11c-.18,0-.31-.13-.38-.38-.14-1.12-.58-1.98-1.3-2.59-.83-.68-2.34-1.19-4.54-1.51-.29-.07-.43-.22-.43-.43v-.05c0-.32.14-.45.43-.38,3.89.29,6.21.43,6.97.43.47,0,.79-.08.97-.24.18-.16.27-.44.27-.84v-15.23h-10.53c-2.3.04-4.88.27-7.72.7h-.16c-.14,0-.27-.09-.38-.27l-.92-1.94s-.05-.11-.05-.22c0-.18.13-.27.38-.27,1.98.18,4.18.31,6.59.38h12.8c0-2.52-.11-4.72-.32-6.59v-.11c0-.29.16-.38.49-.27,3.49.97,5.24,1.69,5.24,2.16,0,.14-.14.31-.43.49l-.86.54v3.78h1.4l1.08-1.73ZM20.78,31.09c.14-.14.32-.18.54-.11,2.92.9,5.07,2.05,6.45,3.46,1.39,1.4,2.08,2.77,2.08,4.1,0,.72-.2,1.32-.59,1.81-.4.49-.9.73-1.51.73-.47,0-.95-.16-1.46-.49-.14-.07-.25-.22-.32-.43-.4-1.33-1.08-2.78-2.05-4.35s-2.02-2.96-3.13-4.19c-.18-.25-.18-.43,0-.54Z"/>
      <path class="cls-1" d="M109.08,32.23c.14-.18.33-.44.57-.78.23-.34.43-.59.59-.76.16-.16.31-.24.46-.24.29,0,1.08.54,2.38,1.62,1.3,1.08,2.09,1.89,2.38,2.43.04.07.05.16.05.27,0,.25-.13.46-.41.62s-.59.24-.95.24h-18.47c2.34,1.98,5.35,3.74,9.04,5.29,3.69,1.55,7.35,2.68,10.99,3.4.25.07.38.16.38.27,0,.14-.04.25-.11.32-.07.07-.16.13-.27.16-.68.22-1.29.61-1.81,1.19-.52.58-.91,1.28-1.16,2.11-.11.29-.29.38-.54.27-3.71-1.26-7.16-3.01-10.37-5.26-3.21-2.25-5.81-4.83-7.83-7.75h-.27v4.54c.11,3.71.22,6.53.32,8.48,0,.22-.05.38-.16.49-.29.36-.79.67-1.51.94-.72.27-1.44.4-2.16.4-.36,0-.64-.11-.84-.32-.2-.22-.3-.47-.3-.76.14-1.84.27-4.35.38-7.56v-4.37c-2.59,2.52-5.72,4.76-9.4,6.72-3.67,1.96-7.71,3.57-12.1,4.83h-.16c-.18,0-.32-.07-.43-.22v-.05c-.18-.25-.13-.43.16-.54,3.46-1.55,6.71-3.42,9.75-5.62,3.04-2.2,5.61-4.52,7.7-6.97h-7.94c-2.3.04-4.88.27-7.72.7h-.16c-.14,0-.27-.09-.38-.27l-1.03-1.94s-.05-.11-.05-.22c0-.18.14-.27.43-.27,1.94.18,4.12.31,6.53.38h14.8c0-1.62-.07-3.01-.22-4.16,0-.36.16-.49.49-.38,3.49.97,5.24,1.69,5.24,2.16,0,.11-.06.21-.19.3-.13.09-.21.15-.24.19l-.81.54v1.35h14.15l1.19-1.78ZM105.78,25.53c.11-.14.29-.39.54-.73.25-.34.46-.59.62-.76s.32-.24.46-.24c.32,0,1.11.5,2.35,1.51,1.24,1.01,2.01,1.78,2.29,2.32.04.18.02.36-.05.54-.22.4-.65.59-1.3.59h-31.16v1.51c0,.11-.14.28-.43.51-.29.23-.68.43-1.19.59-.5.16-1.08.24-1.73.24-.32,0-.6-.11-.84-.32-.23-.22-.35-.47-.35-.76.25-3.31.41-7.02.49-11.12v-6.1c-2.3,2.16-4.72,3.96-7.24,5.4-.25.18-.45.16-.59-.05l-.05-.05c-.18-.25-.16-.45.05-.59,2.09-1.98,4.16-4.46,6.21-7.45.94-1.37,1.88-3.05,2.84-5.05.95-2,1.63-3.73,2.02-5.21.04-.29.23-.38.59-.27,3.38,1.76,5.08,2.88,5.08,3.35,0,.18-.16.31-.49.38l-.97.22c-.94,1.51-1.87,2.88-2.81,4.1l.11.05h9.99c.5-1.15.94-2.39,1.32-3.73.38-1.33.62-2.54.73-3.62.04-.14.1-.24.19-.3.09-.05.21-.04.35.03,2.09.83,3.53,1.46,4.32,1.89.79.43,1.19.76,1.19.97,0,.14-.16.25-.49.32l-.97.27c-1.73,1.58-3.42,2.97-5.08,4.16h12.31l1.13-1.67c.14-.18.33-.43.57-.76.23-.32.42-.57.57-.73.14-.16.29-.24.43-.24.29,0,1.04.5,2.27,1.51,1.22,1.01,1.98,1.78,2.27,2.32l.05.22c0,.29-.13.51-.41.67-.27.16-.6.24-1,.24h-15.88v4.7h9.13l1.08-1.57c.14-.18.31-.42.51-.73.2-.31.37-.53.51-.68.14-.14.29-.22.43-.22.29,0,1,.48,2.13,1.43,1.13.95,1.83,1.68,2.08,2.19.04.18.02.36-.05.54-.22.4-.61.59-1.19.59h-14.63v4.75h9.13l1.08-1.57c.14-.18.31-.42.51-.73.2-.31.37-.53.51-.67s.29-.22.43-.22c.29,0,1.01.48,2.16,1.43,1.15.95,1.85,1.68,2.11,2.19.04.18.02.36-.05.54-.22.36-.63.54-1.24.54h-14.63v4.97h10.48l1.19-1.67ZM89.85,14.41v-4.7h-10.31v4.7h10.31ZM79.54,20.73h10.31v-4.75h-10.31v4.75ZM79.54,27.21h10.31v-4.97h-10.31v4.97Z"/>
    </g>
  </g>
</svg>