<?xml version="1.0" encoding="UTF-8"?>
<svg id="_レイヤー_2" data-name="レイヤー 2" xmlns="http://www.w3.org/2000/svg" viewBox="0 0 686.64 100.64">
  <defs>
    <style>
      .cls-1 {
        stroke-width: .64px;
      }

      .cls-1, .cls-2 {
        fill: none;
        stroke: #1a1a1a;
        stroke-miterlimit: 10;
      }

      .cls-3 {
        fill: #1a1a1a;
      }
    </style>
  </defs>
  <g id="_テキストデータ" data-name="テキストデータ">
    <g>
      <polyline class="cls-2" points="625.14 37 642.97 50.32 625.14 63.64"/>
      <path class="cls-3" d="M68.48,61.98c.26.37.39.73.39,1.08,0,.28-.12.54-.35.77-.23.23-.5.35-.81.35-.47,0-.99-.23-1.58-.7-1.42-1.05-2.87-1.94-4.34-2.66-.16,3.03-2.36,4.55-6.58,4.55-.98,0-1.97-.13-2.97-.4-1-.27-1.85-.69-2.54-1.26-.69-.57-1.03-1.29-1.03-2.15,0-1.47.81-2.53,2.42-3.19,1.61-.65,3.42-.98,5.42-.98.91,0,1.79.07,2.62.21-.23-3.73-.36-6.9-.38-9.49-.02-.63-.04-1.41-.04-2.34l-.14-5.08c-.05-.84-.16-1.48-.33-1.91-.18-.43-.52-.78-1.03-1.03-.4-.21-.59-.41-.59-.59,0-.16.11-.29.33-.37.22-.08.5-.12.82-.12,1.07,0,1.94.23,2.61.7s1,1.13,1,2c0,.47-.08,1.05-.25,1.75-.21.91-.34,1.67-.38,2.28-.05.89-.07,1.53-.07,1.92.7-.05,1.44-.17,2.21-.38.77-.21,1.44-.43,2-.67.26-.12.6-.17,1.02-.17.56,0,1.04.13,1.45.38s.61.58.61.98c0,.58-.5,1.01-1.5,1.29-1,.28-2.02.42-3.05.42-.96,0-1.88-.16-2.76-.49v.35c0,1.87.07,3.52.21,4.97.14,1.45.33,2.96.56,4.55l.21,1.65c1.17.37,2.26.81,3.27,1.31,1.02.5,1.84.97,2.47,1.42.49.33.86.68,1.12,1.05ZM58.01,62.49c.75-.5,1.14-1.38,1.19-2.64-1.49-.47-2.85-.7-4.06-.7-1.12,0-2.25.18-3.4.54-1.14.36-1.71.92-1.71,1.66s.5,1.22,1.49,1.49c.99.27,1.98.4,2.96.4,1.61,0,2.79-.25,3.54-.75Z"/>
      <path class="cls-3" d="M99.42,65.17c-.35-.58-.69-1.4-1.02-2.45-.72-2.26-1.33-3.9-1.82-4.92-.49-1.01-1.13-2.13-1.92-3.34-.7-1.07-1.17-1.84-1.42-2.29-.25-.45-.37-.89-.37-1.31,0-.4.11-.84.33-1.35.22-.5.6-1.15,1.14-1.94,1.96-3.15,3.36-5.72,4.2-7.7.21-.56.31-1.01.31-1.37,0-.58-.22-1.04-.67-1.37-.12-.12-.3-.25-.54-.4-.24-.15-.37-.27-.37-.37,0-.16.23-.25.7-.25.42,0,.94.11,1.56.31.62.21,1.2.49,1.73.84.63.44.95,1,.95,1.68,0,.35-.09.74-.28,1.16-.33.75-.7,1.42-1.12,2.01-.42.6-1.1,1.43-2.03,2.5-1.54,1.75-2.92,3.46-4.13,5.15-.26.33-.39.69-.39,1.08s.16.76.49,1.09c1.8,1.87,3.46,3.94,5,6.21,1.54,2.28,2.31,4.36,2.31,6.25,0,.49-.1.89-.31,1.19s-.54.46-.98.46c-.56,0-1.02-.29-1.37-.88Z"/>
      <path class="cls-3" d="M146.42,47.33c1.52.71,2.72,1.76,3.62,3.13.9,1.38,1.35,3.02,1.35,4.94s-.52,3.67-1.58,5.2c-1.05,1.53-2.62,2.78-4.72,3.75-2.1.97-4.66,1.58-7.67,1.84-.49.05-1.11.09-1.85.14-.35,0-.53-.08-.53-.25,0-.05.04-.11.1-.19.07-.08.2-.13.39-.16,3.99-.51,7.13-1.64,9.43-3.38,2.3-1.74,3.45-4.19,3.45-7.37,0-1.52-.36-2.85-1.07-3.99-.71-1.14-1.67-2.02-2.89-2.64-1.21-.62-2.55-.93-4.02-.93h-.52c.16.56.25,1.16.25,1.79,0,2.29-1.08,4.92-3.26,7.91.12.51.28,1.04.49,1.58.26.63.38,1.13.38,1.5,0,.4-.11.7-.33.91s-.47.31-.75.31-.55-.12-.8-.35c-.26-.23-.46-.51-.6-.84l-.31-.74c-1.19,1.31-2.3,2.24-3.34,2.8-1.04.56-1.97.84-2.78.84-1.1,0-1.92-.36-2.48-1.07-.56-.71-.84-1.62-.84-2.71,0-1.28.4-2.67,1.21-4.15.81-1.48,1.9-2.88,3.27-4.2s2.91-2.37,4.59-3.17c.09-.89.24-2.03.45-3.43-1.21.23-2.09.35-2.62.35-.82,0-1.65-.26-2.5-.79-.85-.53-1.44-1.08-1.77-1.66-.16-.26-.24-.43-.24-.53,0-.16.09-.25.28-.25.14,0,.26.04.35.11.51.33,1.01.58,1.49.77.48.19,1.03.28,1.66.28.28,0,.77-.04,1.47-.12.7-.08,1.44-.2,2.21-.37.12-.93.17-1.81.17-2.62,0-.54-.05-.95-.14-1.22-.3-.65-.79-1.05-1.47-1.19-.09-.02-.21-.04-.35-.05s-.21-.05-.21-.12c0-.26.19-.49.58-.7.39-.21.79-.32,1.21-.32.47,0,.99.11,1.58.32.58.21.97.49,1.15.84.09.16.14.53.14,1.08v.35c.56.23,1.27.44,2.14.61.86.17,1.69.29,2.48.33.47.02.8.09,1,.21.2.12.3.3.3.56,0,.58-.93,1.33-2.8,2.24-.98.49-2.35.97-4.1,1.43-.12.65-.25,1.68-.38,3.08,1.56-.51,3.13-.77,4.69-.77,1.87,0,3.56.36,5.07,1.07ZM131.36,59.58c1.02-.67,2.04-1.52,3.06-2.57-.12-.77-.17-1.74-.17-2.9,0-1.45.08-3.09.25-4.94-.63.35-1.33.86-2.1,1.54-1.35,1.19-2.47,2.54-3.34,4.04s-1.31,2.86-1.31,4.08.4,1.75,1.19,1.75c.61,0,1.42-.33,2.43-1ZM139.04,47.49c-.86.14-1.68.35-2.45.63-.09,1.05-.14,2.21-.14,3.46,0,1,.03,1.96.1,2.87.12-.14.27-.35.45-.63,1.4-2.05,2.1-3.9,2.1-5.53,0-.21-.02-.48-.07-.8ZM137.46,41.68c.77-.26,1.37-.49,1.79-.7.26-.09.38-.25.38-.46,0-.14-.19-.29-.56-.46-.42-.14-.81-.32-1.16-.53-.07.42-.16.86-.28,1.33-.09.3-.15.57-.18.8Z"/>
      <path class="cls-3" d="M183,50.76c1.19.5,2.16,1.27,2.92,2.29.76,1.03,1.14,2.28,1.14,3.75s-.44,2.85-1.33,4.01c-.89,1.16-2.04,2.04-3.46,2.66-1.42.62-2.91.93-4.45.93-1.35,0-2.53-.3-3.53-.91-1-.61-1.51-1.4-1.51-2.38,0-.79.32-1.46.96-2,.64-.54,1.44-.81,2.4-.81s1.86.31,2.71.93c.85.62,1.48,1.48,1.87,2.57,1.07-.56,1.96-1.32,2.66-2.29.7-.97,1.05-2.02,1.05-3.17,0-1.77-.56-3.09-1.68-3.96s-2.44-1.29-3.96-1.29-2.84.44-4.11,1.31c-1.27.88-2.51,2.37-3.73,4.5-.09.16-.28.5-.56,1.01-.28.51-.55.88-.82,1.08-.27.21-.57.32-.89.32-.44,0-.79-.14-1.05-.42-.26-.28-.38-.62-.38-1.02,0-.72.26-1.47.77-2.24.51-.77,1.39-1.87,2.62-3.29,3.78-4.34,6.49-7.57,8.12-9.7.12-.16.26-.35.44-.56.17-.21.3-.4.38-.56.08-.16.12-.32.12-.46,0-.23-.09-.46-.28-.68-.19-.22-.37-.33-.56-.33-.28,0-.58.21-.91.63-.72.96-1.49,1.75-2.31,2.36-.82.62-1.62.93-2.42.93-.65,0-1.2-.25-1.63-.75-.43-.5-.72-1.27-.86-2.29l-.04-.63c0-.21.05-.32.14-.32.07,0,.25.18.52.53.33.42.7.63,1.12.63s1.06-.18,1.91-.54c.85-.36,1.79-.85,2.82-1.45.61-.4,1.15-.59,1.65-.59.44,0,1,.13,1.66.38.66.26,1.24.6,1.73,1.03.49.43.73.9.73,1.42,0,.68-.42,1.33-1.26,1.96-3.34,2.57-6.17,5.41-8.51,8.54,1.98-1.26,3.99-1.89,6.02-1.89,1.31,0,2.56.25,3.75.75ZM178.48,62.54c-.23-.75-.57-1.36-1.01-1.85-.44-.49-1.04-.74-1.79-.74-.42,0-.73.1-.94.3-.21.2-.32.44-.32.72,0,.44.34.83,1.03,1.16.69.33,1.42.49,2.19.49.19,0,.47-.02.84-.07Z"/>
      <path class="cls-3" d="M212.24,63.7c-1.48-.3-2.63-.82-3.45-1.54-1-.82-1.5-1.94-1.5-3.36,0-.63.07-1.19.21-1.68.26-.68.48-1.02.67-1.02.16,0,.25.18.25.53,0,.14-.01.28-.04.42-.02.14-.04.28-.04.42,0,1.38.86,2.37,2.59,2.98,1.17.4,2.58.59,4.23.59s3.6-.21,5.84-.63c1.26-.19,2-.28,2.21-.28.68,0,1.22.15,1.63.44.41.29.61.67.61,1.14,0,.75-.63,1.32-1.89,1.71-.7.21-1.63.39-2.8.53-1.17.14-2.39.21-3.68.21-1.75,0-3.37-.15-4.85-.46ZM213.1,47.46c0-.12.07-.25.21-.38.09-.09.61-.55,1.54-1.37,1.07-.89,1.61-1.4,1.61-1.54,0-.16-.52-.36-1.58-.59-.96-.23-1.81-.58-2.55-1.05-.75-.47-1.29-.92-1.65-1.37-.28-.35-.42-.65-.42-.91,0-.12.02-.17.07-.17l.31.17.77.38c.54.26,1.23.47,2.08.65.85.18,1.67.26,2.47.26.58,0,1.28-.06,2.1-.17.84-.09,1.44-.14,1.79-.14.37,0,.67.05.88.14.49.14.91.37,1.26.68.35.32.52.69.52,1.14,0,.37-.15.64-.44.79-.29.15-.86.29-1.7.4-2.19.28-4.39,1.27-6.58,2.97-.23.16-.41.25-.52.25s-.17-.05-.17-.14ZM225.42,48.79c-.44-.63-.89-1.15-1.35-1.56-.45-.41-1.03-.74-1.73-1-.12-.05-.26-.1-.44-.16-.17-.06-.3-.12-.37-.17-.07-.06-.1-.12-.1-.19,0-.14.16-.24.49-.3.33-.06.65-.09.98-.09,1.38,0,2.59.26,3.64.79,1.05.53,1.58,1.25,1.58,2.19,0,.4-.14.7-.42.91-.28.21-.59.32-.94.32-.56,0-1-.25-1.33-.74ZM228.88,45.53c-.56-.61-1.04-1.07-1.45-1.38-.41-.31-.93-.58-1.56-.79-.16-.05-.35-.1-.56-.16s-.36-.11-.46-.16c-.09-.05-.14-.12-.14-.21,0-.14.28-.25.84-.33s.99-.12,1.29-.12c1.19,0,2.24.25,3.15.74.91.49,1.37,1.12,1.37,1.89,0,.37-.12.66-.37.86s-.52.3-.82.3c-.54,0-.97-.21-1.3-.63Z"/>
      <path class="cls-3" d="M253.77,39.48c.07-.09.17-.23.3-.42.13-.19.24-.33.33-.42.09-.09.19-.14.28-.14.21,0,.65.29,1.33.86.68.57,1.1,1.02,1.26,1.35.02.12.02.23,0,.35-.14.26-.42.38-.84.38h-3.81v1.5l.07,1.22c0,.3.02.78.07,1.43,0,.14-.03.25-.1.32-.16.19-.43.36-.8.51-.37.15-.82.23-1.33.23-.19,0-.33-.07-.42-.21-.09-.14-.14-.3-.14-.49.07-.65.12-1.28.14-1.89l.03-.88v-1.75h-3.5c-.28,3.08-1.89,5.33-4.83,6.75-.19.07-.31.03-.38-.11l-.04-.07c-.07-.16-.05-.29.07-.39,1.12-1.05,1.87-2.17,2.24-3.38.37-1.2.56-2.54.56-4.01v-2c0-.4-.02-.99-.07-1.79v-.04c0-.09.03-.16.09-.19.06-.04.13-.03.23.02l2.8,1.08c1.07-.33,2.18-.75,3.33-1.26,1.14-.51,2.09-1.03,2.83-1.54.16-.07.29-.05.38.07,1.35,1.59,2.03,2.52,2.03,2.8,0,.07-.05.12-.14.14-.09.02-.21.02-.35,0l-.84-.14c-2.12.4-4.75.7-7.88.91v2.1h6.44l.67-.95ZM252.7,61.09c.08.01.15.04.19.09l1.5,1.47c.86.56,1.29.94,1.29,1.16,0,.12-.19.17-.56.17l-.84-.03c-1.52.7-3.37,1.34-5.56,1.92-2.19.58-4.36.99-6.51,1.22h-.07c-.12,0-.2-.07-.25-.21v-.03s-.03-.07-.03-.14c0-.09.07-.16.21-.21,1.8-.54,3.48-1.16,5.04-1.85,2.43-1.1,4.22-2.25,5.39-3.46.05-.07.11-.1.19-.09ZM263.92,46.58c-.19,0-.28-.09-.28-.28v-4.87h-3.47c-.42,2.52-2.09,4.4-5,5.63-.02.02-.07.04-.14.04-.12,0-.2-.06-.24-.18l-.04-.03c-.07-.16-.04-.29.1-.39,1.19-.93,1.98-1.94,2.38-3.03.4-1.08.6-2.3.6-3.66v-1.82c0-.37-.02-.91-.07-1.61,0-.26.11-.34.32-.25l2.59,1.01c2.33-.63,4.53-1.35,6.58-2.17.14-.07.27-.05.38.07.75.77,1.27,1.32,1.56,1.66.29.34.44.58.44.72s-.17.19-.52.14l-.88-.14c-2.45.37-5.1.63-7.95.77v2.21h6.93l.7-1.01c.09-.12.2-.27.33-.47.13-.2.24-.34.33-.44s.19-.14.28-.14c.19,0,.65.31,1.4.93.75.62,1.2,1.09,1.37,1.42.02.12.02.23,0,.35-.14.26-.41.38-.81.38h-4.62v4.3c0,.12-.05.22-.14.31-.23.19-.6.33-1.08.42.86.63,1.46,1.11,1.8,1.44.34.33.51.57.51.74,0,.14-.12.25-.35.31l-.63.21v4.03c.05,2.78.14,5.31.28,7.59,0,.14-.05.26-.14.35-.26.21-.63.41-1.12.59-.49.19-.91.28-1.26.28h-.14c-.19,0-.28-.09-.28-.28v-1.19h-13.86v1.08c0,.16-.24.35-.73.56-.49.21-.98.31-1.47.31-.21,0-.38-.07-.51-.21-.13-.14-.19-.3-.19-.49.09-1.31.17-3.08.25-5.32v-3.01c0-2.75-.13-5.02-.39-6.79v-.07c0-.16.09-.21.28-.14l2.98,1.3h13.33l1.05-1.19h-.46ZM263.64,51.66v-2.87h-13.86v2.87h13.86ZM263.64,55.54v-2.91h-13.86v2.91h13.86ZM249.78,56.56v2.94h13.86v-2.94h-13.86ZM258.49,62.51c0-.21.1-.31.31-.31,2.78.14,5.02.41,6.72.82s2.92.86,3.64,1.37c.72.5,1.08,1.01,1.08,1.52,0,.35-.16.63-.47.86-.32.22-.68.33-1.1.33-.49,0-.96-.15-1.4-.46-.96-.7-2.16-1.39-3.6-2.06-1.45-.68-3.1-1.27-4.97-1.79-.14-.05-.21-.14-.21-.28Z"/>
      <path class="cls-3" d="M291.6,36.36c.07-.09.16-.22.28-.39.12-.16.22-.29.3-.37.08-.08.17-.12.26-.12.21,0,.65.29,1.33.88s1.1,1.05,1.26,1.4c.07.14.03.26-.1.35-.35.23-.71.38-1.08.46v3.22c.07,2.71.15,4.72.24,6.05,0,.14-.05.26-.14.35-.21.19-.55.37-1.02.54-.47.18-.88.26-1.23.26-.28,0-.47-.17-.56-.52,0-.05.02-.16.07-.35l.07-.42v-.67h-6.58v10.64c.05,2.89.14,5.58.28,8.05,0,.12-.04.22-.11.32-.19.3-.48.56-.89.77-.41.21-.87.31-1.38.31-.23,0-.44-.07-.61-.21-.18-.14-.26-.3-.26-.49.09-1.38.18-2.71.25-4.01s.12-2.99.14-5.09v-14.49c0-2.78-.13-5.03-.39-6.75v-.07c0-.09.03-.16.09-.19.06-.03.13-.03.23.02l2.8,1.37h6.16l.6-.84ZM291.29,41.54v-3.36h-6.58v3.36h6.58ZM284.71,42.56v3.47h6.58v-3.47h-6.58ZM291.88,61.04l.07.84v.16c0,.08-.02.15-.07.19-.16.21-.46.4-.89.58-.43.17-.87.26-1.31.26-.16,0-.3-.07-.4-.21-.1-.14-.16-.3-.16-.49.09-.89.16-2.03.21-3.43v-2.07c0-2.26-.1-4.25-.31-5.95v-.07c0-.09.02-.15.07-.17.05-.02.12-.01.21.03l2.73,1.23h7.07l.59-.74c.05-.07.13-.18.25-.33.12-.15.22-.26.31-.33.09-.07.19-.11.28-.11.21,0,.65.26,1.33.79.68.52,1.11.95,1.29,1.28.07.09.05.2-.07.32-.3.26-.68.42-1.12.49v2.8c.07,2.29.14,4,.21,5.15,0,.12-.03.23-.1.35-.21.21-.55.41-1.01.61-.47.2-.88.3-1.23.3-.28,0-.47-.17-.56-.52l.04-.35.1-.49v-.7h-7.53v.59ZM291.88,52.92v6.48h7.53v-6.48h-7.53ZM300.07,47.91c0,.16-.24.34-.72.54-.48.2-.96.3-1.45.3-.16,0-.3-.07-.4-.21s-.16-.3-.16-.49c.09-.96.16-2.15.21-3.57v-2.13c0-2.45-.12-4.5-.35-6.16v-.07c0-.09.02-.15.07-.17.05-.02.12-.01.21.03l2.77,1.23h6.33l.56-.84c.05-.07.13-.19.25-.35.12-.16.22-.29.31-.37.09-.08.19-.12.28-.12.21,0,.69.3,1.45.89.76.6,1.24,1.07,1.45,1.42.07.09.05.2-.07.32-.4.28-.82.45-1.26.52v24.78c0,.72-.08,1.31-.25,1.77-.16.46-.51.82-1.03,1.1-.53.28-1.29.48-2.29.59h-.07c-.12,0-.2-.08-.25-.25-.12-.72-.35-1.21-.7-1.47-.47-.42-1.28-.72-2.45-.91-.19-.05-.28-.14-.28-.28,0-.16.07-.24.21-.24.28,0,.61.01.98.04.37.02.73.05,1.08.07.7.07,1.24.1,1.61.1.3,0,.51-.06.63-.19.12-.13.18-.33.18-.61v-16.13h-6.86v.88ZM306.93,41.54v-3.36h-6.86v3.36h6.86ZM300.07,42.56v3.47h6.86v-3.47h-6.86Z"/>
      <rect class="cls-1" x=".32" y=".32" width="686" height="100" rx="5" ry="5"/>
    </g>
  </g>
</svg>